SplineFontDB: 3.0
FontName: HanamoyouMidashi
FullName: HanamoyouMidashi
FamilyName: HanamoyouMidashi
Weight: Bold
Copyright: Created by g,,, with FontForge 2.0 (http://fontforge.sf.net)\nGlyphs based off those from Hanazono Mincho.
UComments: "2015-9-16: Created.+AAoA-Used Hanazono Mincho glyphs as a skeleton." 
Version: 001.000
ItalicAngle: 0
UnderlinePosition: -200
UnderlineWidth: 48
Ascent: 800
Descent: 200
LayerCount: 2
Layer: 0 0 "Back"  1
Layer: 1 0 "Fore"  0
HasVMetrics: 1
NeedsXUIDChange: 1
XUID: [1021 109 133594851 5176528]
UseXUID: 1
FSType: 0
OS2Version: 0
OS2_WeightWidthSlopeOnly: 0
OS2_UseTypoMetrics: 1
CreationTime: 1442421342
ModificationTime: 1464576972
PfmFamily: 17
TTFWeight: 500
TTFWidth: 5
LineGap: 90
VLineGap: 0
OS2TypoAscent: 0
OS2TypoAOffset: 1
OS2TypoDescent: 0
OS2TypoDOffset: 1
OS2TypoLinegap: 200
OS2WinAscent: 0
OS2WinAOffset: 1
OS2WinDescent: 0
OS2WinDOffset: 1
HheadAscent: 0
HheadAOffset: 1
HheadDescent: 0
HheadDOffset: 1
OS2Vendor: 'PfEd'
MarkAttachClasses: 1
DEI: 91125
LangName: 1041 "" "+MG8wajCCMIQwRomLUfowVwAA" "" "" "" "" "" "" "" "" "" "" "" "" "" "" "" "" "" "+Z5cwaGAdYPMwADBuMABm+GWOMABn8zAAMEYwAG13lsAwAHL8" "+grFqIWnYiYtR+jBX" 
LangName: 1033 
Encoding: UnicodeBmp
Compacted: 1
UnicodeInterp: japanese
NameList: Adobe Glyph List
DisplaySize: -24
AntiAlias: 1
FitToEm: 1
WinInfo: 0 23 7
BeginPrivate: 0
EndPrivate
Grid
-1000 -140 m 0
 2000 -140 l 0
940 1300 m 0
 940 -700 l 0
-1000 740 m 0
 2000 740 l 0
60 1300 m 0
 60 -700 l 0
EndSplineSet
TeXData: 1 0 0 346030 173015 115343 0 1048576 115343 783286 444596 497025 792723 393216 433062 380633 303038 157286 324010 404750 52429 2506097 1059062 262144
BeginChars: 65537 230

StartChar: uni6642
Encoding: 26178 26178 0
Width: 1000
Flags: HM
LayerCount: 2
Back
SplineSet
410 125 m 1
 420 140 l 1
 530 130 610 75 610 20 c 0
 610 0 592 -15 575 -15 c 0
 520 -15 555 85 410 125 c 1
731 -155 m 1
 731 -124 l 1
 626 -108 l 1
 626 -93 l 1
 731 -93 l 1
 737 -92 l 1
 742 -91 l 1
 747 -89 l 1
 749 -87 l 1
 750 -82 l 1
 752 -77 l 1
 752 -71 l 1
 752 227 l 1
 369 227 l 1
 369 249 l 1
 752 249 l 1
 752 380 l 1
 815 370 l 1
 831 359 l 1
 815 350 l 1
 815 249 l 1
 836 249 l 1
 889 302 l 1
 951 249 l 1
 951 227 l 1
 815 227 l 1
 815 -71 l 1
 813 -84 l 1
 812 -98 l 1
 808 -110 l 1
 801 -122 l 1
 792 -133 l 1
 782 -142 l 1
 770 -148 l 1
 757 -152 l 1
 744 -154 l 1
 731 -155 l 1
75 -63 m 1
 75 677 l 1
 139 645 l 1
 281 645 l 1
 313 672 l 1
 371 624 l 1
 345 603 l 1
 345 0 l 1
 281 -31 l 1
 281 31 l 1
 139 31 l 1
 139 -31 l 1
 75 -63 l 1
573 -14 m 1
 554 0 l 1
 545 17 l 1
 535 33 l 1
 524 50 l 1
 499 81 l 1
 470 111 l 1
 437 140 l 1
 419 153 l 1
 422 162 l 1
 468 146 l 1
 488 137 l 1
 509 126 l 1
 527 113 l 1
 546 100 l 1
 579 67 l 1
 594 51 l 1
 608 32 l 1
 611 9 l 1
 597 -11 l 1
 573 -14 l 1
139 53 m 1
 281 53 l 1
 281 337 l 1
 139 337 l 1
 139 53 l 1
139 357 m 1
 281 357 l 1
 281 624 l 1
 139 624 l 1
 139 357 l 1
363 401 m 1
 363 422 l 1
 621 422 l 1
 621 585 l 1
 395 585 l 1
 395 605 l 1
 621 605 l 1
 621 764 l 1
 684 753 l 1
 699 742 l 1
 684 733 l 1
 684 605 l 1
 794 605 l 1
 847 658 l 1
 909 605 l 1
 909 585 l 1
 684 585 l 1
 684 422 l 1
 847 422 l 1
 899 475 l 1
 962 422 l 1
 962 401 l 1
 363 401 l 1
EndSplineSet
EndChar

StartChar: uni8A08
Encoding: 35336 35336 1
Width: 1000
Flags: HM
LayerCount: 2
Back
SplineSet
657 -160 m 1
 657 391 l 1
 447 391 l 1
 447 412 l 1
 657 412 l 1
 657 764 l 1
 721 753 l 1
 736 742 l 1
 721 733 l 1
 721 412 l 1
 841 412 l 1
 894 464 l 1
 957 412 l 1
 957 391 l 1
 721 391 l 1
 721 -129 l 1
 657 -160 l 1
83 -155 m 1
 83 165 l 1
 146 134 l 1
 335 134 l 1
 366 160 l 1
 425 112 l 1
 398 92 l 1
 398 -108 l 1
 335 -140 l 1
 335 -87 l 1
 146 -87 l 1
 146 -124 l 1
 83 -155 l 1
146 -66 m 1
 335 -66 l 1
 335 112 l 1
 146 112 l 1
 146 -66 l 1
82 244 m 1
 82 265 l 1
 285 265 l 1
 337 317 l 1
 400 265 l 1
 400 244 l 1
 82 244 l 1
82 380 m 1
 82 401 l 1
 285 401 l 1
 337 454 l 1
 400 401 l 1
 400 380 l 1
 82 380 l 1
59 527 m 1
 59 548 l 1
 335 548 l 1
 387 601 l 1
 450 548 l 1
 450 527 l 1
 59 527 l 1
82 664 m 1
 82 685 l 1
 285 685 l 1
 337 737 l 1
 400 685 l 1
 400 664 l 1
 82 664 l 1
EndSplineSet
EndChar

StartChar: uni8D64
Encoding: 36196 36196 2
Width: 1000
Flags: HM
LayerCount: 2
Back
SplineSet
-5.94434 -57.2246 m 1
 95.7988 46.0879 171.913 168.589 199.015 259.504 c 1
 262.943 231.537 285.381 218.249 285.701 208.254 c 0
 285.925 201.258 270.997 198.778 246.01 197.978 c 1
 198.822 109.42 122.874 12.9375 6.40234 -67.835 c 1
 -5.94434 -57.2246 l 1
780.19 183.442 m 1
 794.525 194.375 l 1
 895.293 149.145 953.058 71.1162 935.17 19.1064 c 0
 928.666 0.193359 906.767 -8.13672 890.69 -2.6084 c 0
 838.681 15.2793 904.3 98.46 780.19 183.442 c 1
134 -154 m 1
 131 -146 l 1
 178 -119 l 1
 220 -93 l 1
 255 -64 l 1
 286 -33 l 1
 312 -1 l 1
 331 33 l 1
 347 69 l 1
 356 107 l 1
 362 148 l 1
 363 191 l 1
 363 364 l 1
 49 364 l 1
 49 386 l 1
 469 386 l 1
 469 574 l 1
 148 574 l 1
 148 596 l 1
 469 596 l 1
 469 764 l 1
 531 753 l 1
 547 742 l 1
 531 733 l 1
 531 596 l 1
 736 596 l 1
 789 647 l 1
 852 596 l 1
 852 574 l 1
 531 574 l 1
 531 386 l 1
 836 386 l 1
 889 437 l 1
 951 386 l 1
 951 364 l 1
 652 364 l 1
 652 -66 l 1
 651 -79 l 1
 649 -93 l 1
 645 -105 l 1
 638 -117 l 1
 630 -128 l 1
 619 -136 l 1
 607 -143 l 1
 595 -147 l 1
 581 -149 l 1
 568 -150 l 1
 568 -118 l 1
 463 -103 l 1
 463 -87 l 1
 568 -87 l 1
 574 -87 l 1
 579 -86 l 1
 584 -84 l 1
 586 -82 l 1
 588 -77 l 1
 589 -72 l 1
 589 -66 l 1
 589 364 l 1
 427 364 l 1
 427 191 l 1
 422 142 l 1
 412 94 l 1
 396 50 l 1
 374 9 l 1
 347 -28 l 1
 314 -62 l 1
 277 -91 l 1
 233 -116 l 1
 187 -138 l 1
 134 -154 l 1
46 -27 m 1
 40 -20 l 1
 86 30 l 1
 126 81 l 1
 143 107 l 1
 157 134 l 1
 171 161 l 1
 183 189 l 1
 192 218 l 1
 200 248 l 1
 203 256 l 1
 261 230 l 1
 273 216 l 1
 253 211 l 1
 248 197 l 1
 234 167 l 1
 218 137 l 1
 199 108 l 1
 179 81 l 1
 156 57 l 1
 132 32 l 1
 105 10 l 1
 77 -10 l 1
 46 -27 l 1
920 -2 m 1
 896 -1 l 1
 880 16 l 1
 871 41 l 1
 860 65 l 1
 848 89 l 1
 819 134 l 1
 785 178 l 1
 744 221 l 1
 722 242 l 1
 728 251 l 1
 756 237 l 1
 783 221 l 1
 809 203 l 1
 832 184 l 1
 854 163 l 1
 874 141 l 1
 893 117 l 1
 909 93 l 1
 925 66 l 1
 938 39 l 1
 938 16 l 1
 920 -2 l 1
EndSplineSet
EndChar

StartChar: uni9752
Encoding: 38738 38738 3
Width: 1000
Flags: HM
LayerCount: 2
Back
SplineSet
940 380 m 1
 130 380 l 1
 60 375 l 1
 60 415 l 1
 130 410 l 1
 825 410 l 1
 865 470 l 1
 867 470 l 1
 940 400 l 1
 940 380 l 1
715 0 m 1
 715 35 l 1
 290 35 l 1
 290 -135 l 1
 235 -145 l 1
 230 -145 l 1
 230 333 l 1
 232 333 l 1
 300 300 l 1
 710 300 l 1
 733 335 l 1
 735 335 l 1
 780 305 805 285 805 278 c 0
 805 273 795 266 775 255 c 1
 775 0 l 1
 775 -65 l 2
 775 -125 745 -140 650 -150 c 1
 650 -100 625 -90 555 -85 c 1
 555 -63 l 1
 600 -67 680 -72 695 -72 c 0
 710 -72 715 -65 715 -45 c 2
 715 0 l 1
470 400 m 1
 470 715 l 1
 465 764 l 1
 467 765 l 1
 558 752 570 745 570 738 c 0
 570 733 565 727 530 717 c 1
 530 400 l 1
715 185 m 1
 715 270 l 1
 290 270 l 1
 290 185 l 1
 715 185 l 1
715 155 m 1
 290 155 l 1
 290 65 l 1
 715 65 l 1
 715 155 l 1
693 -145 m 1
 693 -112 l 1
 599 -97 l 1
 599 -81 l 1
 699 -81 l 1
 704 -80 l 1
 707 -79 l 1
 709 -78 l 1
 710 -77 l 1
 711 -76 l 1
 713 -72 l 1
 714 -67 l 1
 714 -61 l 1
 714 30 l 1
 286 30 l 1
 286 -116 l 1
 223 -147 l 1
 223 326 l 1
 286 295 l 1
 714 295 l 1
 746 321 l 1
 804 273 l 1
 777 253 l 1
 777 -61 l 1
 776 -74 l 1
 774 -87 l 1
 770 -100 l 1
 763 -111 l 1
 755 -122 l 1
 744 -131 l 1
 732 -137 l 1
 720 -142 l 1
 706 -144 l 1
 693 -145 l 1
286 52 m 1
 714 52 l 1
 714 152 l 1
 286 152 l 1
 286 52 l 1
286 173 m 1
 714 173 l 1
 714 273 l 1
 286 273 l 1
 286 173 l 1
49 380 m 1
 49 400 l 1
 469 400 l 1
 469 505 l 1
 169 505 l 1
 169 525 l 1
 469 525 l 1
 469 629 l 1
 133 629 l 1
 133 650 l 1
 469 650 l 1
 469 765 l 1
 531 754 l 1
 547 743 l 1
 531 734 l 1
 531 650 l 1
 752 650 l 1
 805 702 l 1
 867 650 l 1
 867 629 l 1
 531 629 l 1
 531 525 l 1
 735 525 l 1
 778 573 l 1
 831 525 l 1
 831 505 l 1
 531 505 l 1
 531 400 l 1
 855 400 l 1
 899 448 l 1
 951 400 l 1
 951 380 l 1
 49 380 l 1
EndSplineSet
EndChar

StartChar: uni524D
Encoding: 21069 21069 4
Width: 1000
Flags: HM
LayerCount: 2
Back
SplineSet
395 -45 m 2
 395 -66 390 -72 375 -72 c 0
 360 -72 280 -67 235 -63 c 1
 235 -85 l 1
 305 -90 330 -100 330 -150 c 1
 425 -140 455 -125 455 -65 c 2
 455 420 l 1
 475 431 485 438 485 443 c 0
 485 450 460 470 415 500 c 1
 413 500 l 1
 390 465 l 1
 220 465 l 1
 152 498 l 1
 150 498 l 1
 150 -135 l 1
 155 -135 l 1
 210 -125 l 1
 210 435 l 1
 395 435 l 1
 395 -45 l 2
533.275 317.396 m 1
 649.096 721.111 l 1
 657.802 769.59 l 1
 660 770 l 1
 743.887 732.41 753.491 722.372 751.561 715.644 c 0
 750.182 710.837 743.721 706.449 707.32 706.488 c 1
 593.707 310.463 l 1
 538.082 316.018 l 1
 533.275 317.396 l 1
475 590 m 1
 580 690 660 810 690 900 c 1
 753 870 775 856 775 846 c 0
 775 839 760 837 735 837 c 1
 685 750 606 656 487 579 c 1
 475 590 l 1
100 715 m 1
 110 730 l 1
 220 720 300 665 300 610 c 0
 300 590 282 575 265 575 c 0
 210 575 245 675 100 715 c 1
783 -150 m 1
 783 -118 l 1
 679 -103 l 1
 679 -87 l 1
 783 -87 l 1
 790 -87 l 1
 795 -86 l 1
 799 -84 l 1
 802 -82 l 1
 803 -77 l 1
 804 -72 l 1
 805 -66 l 1
 805 479 l 1
 867 470 l 1
 883 459 l 1
 867 449 l 1
 867 -66 l 1
 866 -79 l 1
 864 -93 l 1
 860 -105 l 1
 854 -117 l 1
 845 -128 l 1
 834 -136 l 1
 822 -143 l 1
 810 -147 l 1
 797 -149 l 1
 783 -150 l 1
374 -135 m 1
 374 -103 l 1
 311 -87 l 1
 311 -71 l 1
 374 -71 l 1
 380 -70 l 1
 385 -69 l 1
 390 -68 l 1
 392 -66 l 1
 394 -62 l 1
 395 -57 l 1
 395 -51 l 1
 395 112 l 1
 211 112 l 1
 211 -113 l 1
 148 -145 l 1
 148 496 l 1
 211 464 l 1
 395 464 l 1
 427 490 l 1
 484 443 l 1
 458 422 l 1
 458 -51 l 1
 457 -64 l 1
 455 -76 l 1
 450 -89 l 1
 443 -102 l 1
 436 -111 l 1
 425 -120 l 1
 413 -127 l 1
 400 -131 l 1
 387 -133 l 1
 374 -135 l 1
595 -9 m 1
 595 464 l 1
 657 454 l 1
 673 443 l 1
 657 434 l 1
 657 23 l 1
 595 -9 l 1
211 134 m 1
 395 134 l 1
 395 291 l 1
 211 291 l 1
 211 134 l 1
211 311 m 1
 395 311 l 1
 395 443 l 1
 211 443 l 1
 211 311 l 1
76 562 m 1
 76 584 l 1
 582 584 l 1
 644 726 l 1
 657 759 l 1
 661 764 l 1
 713 729 l 1
 722 713 l 1
 701 712 l 1
 692 698 l 1
 643 632 l 1
 614 598 l 1
 602 584 l 1
 829 584 l 1
 882 637 l 1
 944 584 l 1
 944 562 l 1
 76 562 l 1
397 597 m 1
 374 598 l 1
 356 614 l 1
 349 640 l 1
 344 653 l 1
 337 666 l 1
 322 693 l 1
 293 736 l 1
 279 749 l 1
 285 757 l 1
 302 747 l 1
 317 737 l 1
 334 727 l 1
 361 705 l 1
 374 693 l 1
 396 667 l 1
 406 652 l 1
 415 638 l 1
 414 614 l 1
 397 597 l 1
EndSplineSet
EndChar

StartChar: uni5B50
Encoding: 23376 23376 5
Width: 1000
Flags: HMW
LayerCount: 2
Back
SplineSet
1245 650 m 1
 1180 645 l 1
 1175 685 l 1
 1245 680 l 1
 1695 680 l 1
 1728 723 l 1
 1731 723 l 1
 1797 675 1825 650 1825 640 c 0
 1825 635 1813 630 1790 625 c 1
 1735 570 1645 500 1550 445 c 1
 1530 455 l 1
 1590 510 1650 585 1695 650 c 1
 1245 650 l 1
1948 280 m 1
 1870 285 l 1
 1125 285 l 1
 1055 280 l 1
 1050 320 l 1
 1125 315 l 1
 1805 315 l 1
 1858 390 l 1
 1860 390 l 1
 1950 300 l 1
 1948 280 l 1
1460 405 m 1
 1455 469 l 1
 1457 470 l 1
 1580 450 1590 441 1590 433 c 0
 1590 428 1585 420 1550 410 c 1
 1550 -35 l 1
 1550 -115 1525 -140 1380 -155 c 1
 1380 -95 1370 -75 1280 -62 c 1
 1280 -40 l 1
 1320 -44 1405 -50 1425 -50 c 0
 1450 -50 1460 -40 1460 -23 c 2
 1460 405 l 1
255 650 m 1
 185 645 l 1
 185 685 l 1
 255 680 l 1
 715 680 l 1
 740 717 l 1
 742 717 l 1
 791 678 813 658 813 650 c 0
 813 645 800 640 780 635 c 1
 712 558 635 494 558 449 c 1
 572 445 575 442 575 438 c 0
 575 433 570 427 535 417 c 1
 535 315 l 1
 820 315 l 1
 867 380 l 1
 869 380 l 1
 945 305 l 1
 945 285 l 1
 535 285 l 1
 535 -65 l 2
 535 -125 505 -140 400 -150 c 1
 400 -100 370 -90 285 -85 c 1
 285 -63 l 1
 355 -67 440 -72 455 -72 c 0
 470 -72 475 -65 475 -45 c 2
 475 285 l 1
 125 285 l 1
 55 280 l 1
 55 320 l 1
 125 315 l 1
 475 315 l 1
 475 415 l 1
 470 464 l 1
 472 465 l 1
 495 462 517 458 531 455 c 1
 601 510 670 580 713 650 c 1
 255 650 l 1
EndSplineSet
Fore
SplineSet
460 405 m 1
 455 469 l 1
 457 470 l 1
 489 465 514 460 532 456 c 1
 591 511 650 586 695 650 c 1
 245 650 l 1
 180 645 l 1
 175 685 l 1
 245 680 l 1
 695 680 l 1
 728 723 l 1
 731 723 l 1
 797 675 825 650 825 640 c 0
 825 635 813 630 790 625 c 1
 737 572 651 504 559 450 c 1
 587 443 590 438 590 433 c 0
 590 428 585 420 550 410 c 1
 550 315 l 1
 805 315 l 1
 858 390 l 1
 860 390 l 1
 950 300 l 1
 948 280 l 1
 870 285 l 1
 550 285 l 1
 550 -35 l 2
 550 -115 525 -140 380 -155 c 1
 380 -95 370 -75 280 -62 c 1
 280 -40 l 1
 320 -44 405 -50 425 -50 c 0
 450 -50 460 -40 460 -23 c 2
 460 285 l 1
 125 285 l 1
 55 280 l 1
 50 320 l 1
 125 315 l 1
 460 315 l 1
 460 405 l 1
EndSplineSet
EndChar

StartChar: uni5973
Encoding: 22899 22899 6
Width: 1000
Flags: HM
LayerCount: 2
Back
SplineSet
830 -155 m 0
 797.919 -155 767.556 -95.3291 685 -30 c 0
 654.212 -5.63672 615.837 20.4346 566.686 48.334 c 1
1675 450 m 9
 1740 450 l 17
 1670 80 1475 -115 1095 -150 c 9
 1090 -132 l 17
 1390 -70 1605 70 1675 450 c 9
1207 110 m 1
 1310 315 1385 505 1445 710 c 1
 1457 758 l 1
 1460 759 l 1
 1530 725 1550 715 1550 705 c 0
 1550 697 1537 696 1505 696 c 1
 1445 495 1365 295 1265 93 c 1
 1212 107 l 1
 1207 110 l 1
1305 180 m 1
 1314 198 l 1
 1535 147 1865 -40 1865 -105 c 0
 1865 -127 1850 -145 1830 -145 c 0
 1788 -145 1780.49 -95.649 1685 -20 c 0
 1613.81 36.4016 1500 103 1305 180 c 1
1950 450 m 1
 1120 450 l 1
 1050 445 l 1
 1050 485 l 1
 1120 480 l 1
 1830 480 l 1
 1872 542 l 1
 1874 542 l 1
 1950 470 l 1
 1950 450 l 1
305 180 m 1
 314 198 l 1
 580 130 865 -45 865 -100 c 0
 865 -122 850 -140 830 -140 c 0
 770 -140 730 5 305 180 c 1
590 55 m 1
 600 70 l 1
 710 60 790 5 790 -50 c 0
 790 -70 772 -85 755 -85 c 0
 700 -85 735 15 590 55 c 1
675 450 m 9
 740 450 l 17
 665.52 115.186 483.145 -114.873 100 -150 c 9
 90 -135 l 17
 382.551 -73.5511 605.689 82.9271 675 450 c 9
286.962 248.812 m 1
 451.116 710.497 l 1
 462.82 758.341 l 1
 465.04 758.613 l 1
 546.427 715.879 555.389 705.263 553.043 698.667 c 0
 551.368 693.956 544.646 689.979 508.319 692.281 c 1
 346.845 238.134 l 1
 291.673 247.137 l 1
 286.962 248.812 l 1
97 -149 m 1
 95 -140 l 1
 203 -109 l 1
 300 -73 l 1
 384 -30 l 1
 457 19 l 1
 520 73 l 1
 524 80 l 1
 466 112 l 1
 350 166 l 1
 307 184 l 1
 276 106 l 1
 206 101 l 1
 338 433 l 1
 49 433 l 1
 49 454 l 1
 346 454 l 1
 467 759 l 1
 522 727 l 1
 532 710 l 1
 515 707 l 1
 414 454 l 1
 836 454 l 1
 889 506 l 1
 951 454 l 1
 951 433 l 1
 729 433 l 1
 718 346 l 1
 693 258 l 1
 657 178 l 1
 609 105 l 1
 595 90 l 1
 649 59 l 1
 702 24 l 1
 753 -13 l 1
 801 -53 l 1
 847 -96 l 1
 855 -118 l 1
 847 -140 l 1
 824 -148 l 1
 803 -140 l 1
 761 -97 l 1
 717 -57 l 1
 671 -19 l 1
 623 18 l 1
 572 52 l 1
 564 57 l 1
 551 42 l 1
 481 -14 l 1
 400 -61 l 1
 310 -99 l 1
 208 -129 l 1
 97 -149 l 1
552 112 m 1
 570 135 l 1
 610 202 l 1
 641 276 l 1
 659 357 l 1
 666 433 l 1
 405 433 l 1
 312 195 l 1
 355 185 l 1
 419 166 l 1
 479 144 l 1
 538 118 l 1
 552 112 l 1
EndSplineSet
EndChar

StartChar: uni7B11
Encoding: 31505 31505 7
Width: 1000
Flags: HM
LayerCount: 2
Back
SplineSet
1650 615 m 1
 1690 615 l 1
 1745 595 1810 550 1810 512 c 0
 1810 492 1792 475 1775 475 c 0
 1725 475 1760 550 1650 615 c 1
1190 615 m 1
 1530 615 l 1
 1530 635 l 1
 1460 703 l 1
 1458 703 l 1
 1420 645 l 1
 1190 645 l 1
 1190 615 l 1
1470 250 m 1
 1470 360 l 1
 1530 360 l 1
 1530 240 l 1
 1530 -10 1285 -115 1050 -140 c 9
 1045 -121 l 17
 1265 -70 1470 20 1470 250 c 1
1765 457 m 1
 1800 433 1834 410 1834 399 c 3
 1834 395 1832 391 1824 391 c 3
 1817 391 1804 393 1792 396 c 1
 1590 350 1370 325 1120 320 c 9
 1115 340 l 17
 1330 360 1655 415 1765 457 c 1
1600 615 m 1
 1950 615 l 1
 1950 635 l 1
 1877 704 l 1
 1875 704 l 1
 1835 645 l 1
 1600 645 l 1
 1600 615 l 1
1042 443 m 1
 1130 545 1175 655 1200 765 c 1
 1270 742 1290 731 1290 721 c 0
 1290 714 1276 709 1251 707 c 1
 1216 623 1160 515 1053 430 c 1
 1042 443 l 1
1230 615 m 1
 1270 615 l 1
 1335 595 1400 535 1400 490 c 0
 1400 470 1382 455 1365 455 c 0
 1310 455 1355 535 1230 615 c 1
1510 175 m 1
 1520 185 l 1
 1530 180 l 1
 1605 35 1820 -60 1960 -80 c 1
 1960 -95 l 1
 1930 -95 1905 -115 1900 -145 c 1
 1740 -90 1575 10 1510 175 c 1
1452 463 m 1
 1540 560 1590 660 1620 765 c 1
 1682 745 1710 730 1710 720 c 0
 1710 713 1695 709 1670 706 c 1
 1629 624 1570 530 1463 450 c 1
 1452 463 l 1
1930 180 m 1
 1140 180 l 1
 1070 175 l 1
 1070 215 l 1
 1140 210 l 1
 1815 210 l 1
 1855 270 l 1
 1857 270 l 1
 1930 200 l 1
 1930 180 l 1
200 595 m 1
 210 610 l 1
 320 600 400 545 400 490 c 0
 400 470 382 455 365 455 c 0
 310 455 345 555 200 595 c 1
615 195 m 1
 625 205 l 1
 635 200 l 1
 685 55 830 -50 960 -80 c 1
 960 -95 l 1
 930 -95 905 -115 900 -145 c 1
 780 -80 655 30 615 195 c 1
433.149 438.659 m 1
 529.027 547.437 598.255 673.957 620.291 766.231 c 1
 685.667 741.841 708.805 729.812 709.677 719.851 c 0
 710.287 712.878 695.52 709.577 670.614 707.396 c 1
 628.394 616.367 557.894 515.834 446.063 428.748 c 1
 433.149 438.659 l 1
482.87 204.713 m 1
 607.94 278.076 713.243 376.623 763.013 457.388 c 1
 817.492 413.787 835.711 395.131 833.426 385.395 c 0
 831.827 378.58 816.767 380.061 792.428 385.772 c 1
 723.872 312.498 625.484 239.035 492.039 191.262 c 1
 482.87 204.713 l 1
895 -137 m 1
 834 -115 l 1
 779 -93 l 1
 729 -66 l 1
 685 -37 l 1
 644 -6 l 1
 609 27 l 1
 580 63 l 1
 557 102 l 1
 539 143 l 1
 529 181 l 1
 521 181 l 1
 508 136 l 1
 481 86 l 1
 446 40 l 1
 401 0 l 1
 348 -36 l 1
 286 -67 l 1
 216 -95 l 1
 137 -117 l 1
 50 -136 l 1
 47 -126 l 1
 131 -98 l 1
 205 -68 l 1
 271 -37 l 1
 327 -3 l 1
 372 33 l 1
 409 72 l 1
 437 113 l 1
 455 155 l 1
 461 181 l 1
 64 181 l 1
 64 202 l 1
 466 202 l 1
 469 249 l 1
 469 343 l 1
 405 336 l 1
 334 329 l 1
 261 324 l 1
 185 320 l 1
 106 318 l 1
 105 328 l 1
 330 363 l 1
 533 399 l 1
 656 426 l 1
 766 453 l 1
 771 454 l 1
 772 447 l 1
 826 402 l 1
 828 387 l 1
 806 397 l 1
 728 381 l 1
 605 360 l 1
 541 352 l 1
 531 351 l 1
 531 249 l 1
 525 202 l 1
 820 202 l 1
 873 254 l 1
 936 202 l 1
 936 181 l 1
 541 181 l 1
 559 151 l 1
 582 118 l 1
 608 88 l 1
 640 59 l 1
 674 32 l 1
 713 8 l 1
 756 -15 l 1
 804 -35 l 1
 856 -54 l 1
 956 -82 l 1
 895 -137 l 1
41 433 m 1
 34 440 l 1
 82 501 l 1
 123 561 l 1
 156 623 l 1
 170 655 l 1
 182 687 l 1
 191 721 l 1
 199 749 l 1
 198 749 l 1
 202 763 l 1
 261 738 l 1
 273 724 l 1
 255 719 l 1
 249 702 l 1
 234 667 l 1
 223 643 l 1
 416 643 l 1
 469 694 l 1
 531 643 l 1
 531 621 l 1
 263 621 l 1
 275 616 l 1
 294 605 l 1
 312 596 l 1
 329 584 l 1
 344 571 l 1
 357 558 l 1
 370 544 l 1
 382 527 l 1
 392 512 l 1
 392 488 l 1
 375 471 l 1
 351 471 l 1
 334 488 l 1
 329 500 l 1
 324 514 l 1
 317 527 l 1
 310 541 l 1
 300 555 l 1
 276 582 l 1
 247 611 l 1
 233 621 l 1
 211 621 l 1
 199 601 l 1
 178 568 l 1
 155 538 l 1
 131 510 l 1
 104 482 l 1
 73 456 l 1
 41 433 l 1
455 455 m 1
 449 462 l 1
 497 517 l 1
 519 544 l 1
 538 572 l 1
 571 630 l 1
 585 659 l 1
 597 690 l 1
 607 722 l 1
 614 749 l 1
 617 763 l 1
 676 738 l 1
 688 724 l 1
 669 719 l 1
 649 669 l 1
 636 643 l 1
 836 643 l 1
 889 694 l 1
 951 643 l 1
 951 621 l 1
 678 621 l 1
 690 616 l 1
 709 605 l 1
 727 596 l 1
 743 584 l 1
 759 571 l 1
 772 558 l 1
 785 544 l 1
 797 527 l 1
 806 512 l 1
 806 488 l 1
 789 471 l 1
 765 471 l 1
 748 488 l 1
 744 500 l 1
 739 514 l 1
 732 527 l 1
 725 541 l 1
 715 555 l 1
 691 582 l 1
 662 611 l 1
 648 621 l 1
 623 621 l 1
 593 575 l 1
 570 548 l 1
 545 521 l 1
 518 497 l 1
 487 475 l 1
 455 455 l 1
EndSplineSet
EndChar

StartChar: seven
Encoding: 55 55 8
Width: 1000
Flags: HMW
LayerCount: 2
Back
SplineSet
420 455 m 1
 345 465 l 1
 100 465 l 1
 50 460 l 1
 40 500 l 1
 100 490 l 1
 305 490 l 1
 345 550 l 1
 347 550 l 1
 425 470 l 1
 420 455 l 1
470 140 m 1
 530 140 l 1
 530 -95 l 1
 510 -135 450 -155 405 -160 c 1
 405 -110 385 -102 310 -100 c 1
 310 -78 l 1
 345 -82 385 -85 405 -85 c 0
 425 -85 457 -83 470 -73 c 1
 470 140 l 1
75 60 m 1
 180 160 260 280 290 370 c 1
 352 340 375 326 375 316 c 0
 375 309 360 307 335 307 c 1
 285 220 205 125 85 50 c 1
 75 60 l 1
50 -30 m 1
 160 -10 285 35 375 80 c 1
 380 65 l 1
 300 5 204 -50 111 -80 c 1
 110 -107 107 -115 101 -115 c 0
 92 -115 80 -97 50 -30 c 1
585 180 m 1
 595 185 l 1
 605 180 l 1
 655 35 800 -70 930 -100 c 1
 930 -115 l 1
 900 -115 875 -130 870 -160 c 1
 750 -100 625 10 585 180 c 1
100 715 m 1
 110 730 l 1
 220 720 300 665 300 610 c 0
 300 590 282 575 265 575 c 0
 210 575 245 675 100 715 c 1
940 495 m 0
 940 470 910 450 775 450 c 2
 735 450 l 2
 605 450 590 465 590 545 c 2
 590 660 l 1
 650 660 l 1
 650 550 l 2
 650 520 660 510 750 510 c 2
 775 510 l 2
 825 510 860 515 870 525 c 0
 880 535 895 580 905 630 c 1
 920 625 l 1
 917 595 915 550 915 535 c 0
 915 520 940 515 940 495 c 0
945 55 m 0
 945 40 930 30 910 30 c 0
 835 30 610 130 600 405 c 1
 598 440 l 1
 660 435 694 430 694 420 c 0
 694 414 687 409 660 398 c 1
 670 170 855 105 870 105 c 0
 880 105 905 150 925 225 c 1
 940 220 l 1
 935 185 925 110 925 95 c 0
 925 86 945 75 945 55 c 0
460 220 m 1
 460 710 l 1
 455 759 l 1
 457 760 l 1
 547 745 560 737 560 730 c 0
 560 725 555 720 520 710 c 1
 520 230 l 1
 465 220 l 1
 460 220 l 1
75 394 m 1
 77 395 l 1
 150 360 l 1
 200 360 l 1
 200 335 l 1
 140 335 l 1
 140 250 l 1
 80 250 l 1
 80 340 l 1
 75 394 l 1
800 755 m 1
 845 725 870 705 870 698 c 0
 870 693 860 686 840 675 c 1
 840 570 l 1
 780 570 l 1
 780 690 l 1
 600 690 l 1
 600 715 l 1
 773 715 l 1
 798 755 l 1
 800 755 l 1
850 370 m 1
 878 412 l 1
 880 412 l 1
 930 373 953 353 953 345 c 0
 953 340 940 335 920 330 c 1
 900 300 855 260 815 235 c 1
 805 245 l 1
 825 275 845 315 855 345 c 1
 740 345 l 1
 740 370 l 1
 850 370 l 1
EndSplineSet
Fore
SplineSet
420 455 m 1
 345 465 l 1
 100 465 l 1
 50 460 l 1
 40 500 l 1
 100 490 l 1
 305 490 l 1
 345 550 l 1
 347 550 l 1
 425 470 l 1
 420 455 l 1
470 140 m 1
 530 140 l 1
 530 -95 l 1
 510 -135 450 -155 405 -160 c 1
 405 -110 385 -102 310 -100 c 1
 310 -78 l 1
 345 -82 385 -85 405 -85 c 0
 425 -85 457 -83 470 -73 c 1
 470 140 l 1
75 60 m 1
 180 160 260 280 290 370 c 1
 352 340 375 326 375 316 c 0
 375 309 360 307 335 307 c 1
 285 220 205 125 85 50 c 1
 75 60 l 1
50 -30 m 1
 160 -10 285 35 375 80 c 1
 380 65 l 1
 300 5 204 -50 111 -80 c 1
 110 -107 107 -115 101 -115 c 0
 92 -115 80 -97 50 -30 c 1
585 180 m 1
 595 185 l 1
 605 180 l 1
 655 35 800 -70 930 -100 c 1
 930 -115 l 1
 900 -115 875 -130 870 -160 c 1
 750 -100 625 10 585 180 c 1
100 715 m 1
 110 730 l 1
 220 720 300 665 300 610 c 0
 300 590 282 575 265 575 c 0
 210 575 245 675 100 715 c 1
940 495 m 0
 940 470 910 450 775 450 c 2
 735 450 l 2
 605 450 590 465 590 545 c 2
 590 660 l 1
 650 660 l 1
 650 550 l 2
 650 520 660 510 750 510 c 2
 775 510 l 2
 825 510 860 515 870 525 c 0
 880 535 895 580 905 630 c 1
 920 625 l 1
 917 595 915 550 915 535 c 0
 915 520 940 515 940 495 c 0
945 55 m 0
 945 40 930 30 910 30 c 0
 835 30 610 130 600 405 c 1
 598 440 l 1
 660 435 694 430 694 420 c 0
 694 414 687 409 660 398 c 1
 670 170 855 105 870 105 c 0
 880 105 905 150 925 225 c 1
 940 220 l 1
 935 185 925 110 925 95 c 0
 925 86 945 75 945 55 c 0
460 220 m 1
 460 710 l 1
 455 759 l 1
 457 760 l 1
 547 745 560 737 560 730 c 0
 560 725 555 720 520 710 c 1
 520 230 l 1
 465 220 l 1
 460 220 l 1
75 394 m 1
 77 395 l 1
 150 360 l 1
 200 360 l 1
 200 335 l 1
 140 335 l 1
 140 250 l 1
 80 250 l 1
 80 340 l 1
 75 394 l 1
800 755 m 1
 845 725 870 705 870 698 c 0
 870 693 860 686 840 675 c 1
 840 570 l 1
 780 570 l 1
 780 690 l 1
 600 690 l 1
 600 715 l 1
 773 715 l 1
 798 755 l 1
 800 755 l 1
850 370 m 1
 878 412 l 1
 880 412 l 1
 930 373 953 353 953 345 c 0
 953 340 940 335 920 330 c 1
 900 300 855 260 815 235 c 1
 805 245 l 1
 825 275 845 315 855 345 c 1
 740 345 l 1
 740 370 l 1
 850 370 l 1
EndSplineSet
EndChar

StartChar: eight
Encoding: 56 56 9
Width: 1000
Flags: HM
LayerCount: 2
Back
SplineSet
470 140 m 1
 530 140 l 1
 530 -65 l 2
 530 -130 490 -150 405 -160 c 1
 405 -110 380 -103 310 -100 c 1
 310 -78 l 1
 340 -82 385 -85 410 -85 c 0
 430 -85 457 -83 470 -73 c 1
 470 140 l 1
75 60 m 1
 180 160 260 280 290 370 c 1
 352 340 375 326 375 316 c 0
 375 309 360 307 335 307 c 1
 285 220 205 125 85 50 c 1
 75 60 l 1
50 -30 m 1
 160 -10 285 35 375 80 c 1
 380 65 l 1
 300 5 204 -50 111 -80 c 1
 110 -107 107 -115 101 -115 c 0
 92 -115 80 -97 50 -30 c 1
585 180 m 1
 595 185 l 1
 605 180 l 1
 655 35 800 -70 930 -100 c 1
 930 -115 l 1
 900 -115 875 -130 870 -160 c 1
 750 -100 625 10 585 180 c 1
100 715 m 1
 110 730 l 1
 220 720 300 665 300 610 c 0
 300 590 282 575 265 575 c 0
 210 575 245 675 100 715 c 1
940 495 m 0
 940 470 910 450 780 450 c 2
 735 450 l 2
 605 450 590 465 590 545 c 2
 590 660 l 1
 650 660 l 1
 650 550 l 2
 650 520 660 510 750 510 c 2
 775 510 l 2
 825 510 860 515 870 525 c 0
 880 535 895 580 905 630 c 1
 920 625 l 1
 917 595 915 550 915 535 c 0
 915 520 940 515 940 495 c 0
945 55 m 0
 945 40 930 30 910 30 c 0
 835 30 610 130 600 405 c 1
 598 440 l 1
 660 435 694 430 694 420 c 0
 694 414 687 409 660 398 c 1
 670 170 855 105 870 105 c 0
 880 105 905 150 925 225 c 1
 940 220 l 1
 935 187 925 110 925 95 c 0
 925 86 945 75 945 55 c 0
460 220 m 1
 460 710 l 1
 455 759 l 1
 457 760 l 1
 545 745 560 737 560 730 c 0
 560 725 555 720 520 710 c 1
 520 230 l 1
 465 220 l 1
 460 220 l 1
75 394 m 1
 77 395 l 1
 105 387 140 373 150 360 c 1
 200 360 l 1
 200 335 l 1
 140 335 l 1
 140 250 l 1
 80 250 l 1
 80 350 l 1
 75 394 l 1
410 455 m 1
 375 462 345 465 320 465 c 2
 120 465 l 2
 105 465 85 463 60 458 c 1
 50 500 l 1
 110 490 l 1
 295 490 l 1
 335 550 l 1
 337 550 l 1
 365 532 398 500 415 470 c 1
 410 455 l 1
800 755 m 1
 840 730 870 705 870 698 c 0
 870 693 860 686 840 675 c 1
 840 570 l 1
 780 570 l 1
 780 690 l 1
 600 690 l 1
 600 715 l 1
 773 715 l 1
 798 755 l 1
 800 755 l 1
850 370 m 1
 878 412 l 1
 880 412 l 1
 925 380 953 353 953 345 c 0
 953 340 940 335 920 330 c 1
 900 300 855 260 815 235 c 1
 805 245 l 1
 825 275 845 315 855 345 c 1
 740 345 l 1
 740 370 l 1
 850 370 l 1
EndSplineSet
EndChar

StartChar: nine
Encoding: 57 57 10
Width: 1000
Flags: HMW
LayerCount: 2
Back
SplineSet
470 140 m 1
 530 140 l 1
 530 -60 l 2
 530 -125 490 -150 405 -160 c 1
 405 -110 380 -103 310 -100 c 1
 310 -78 l 1
 340 -82 385 -85 410 -85 c 0
 430 -85 457 -83 470 -73 c 1
 470 140 l 1
75 60 m 1
 180 160 260 280 290 370 c 1
 352 340 375 326 375 316 c 0
 375 309 360 307 335 307 c 1
 285 220 205 125 85 50 c 1
 75 60 l 1
50 -30 m 1
 160 -10 285 35 375 80 c 1
 380 65 l 1
 300 5 204 -50 111 -80 c 1
 110 -107 107 -115 101 -115 c 0
 92 -115 80 -97 50 -30 c 1
870 -160 m 1
 750 -100 625 10 585 180 c 1
 595 185 l 1
 605 180 l 1
 655 30 825 -85 930 -95 c 1
 930 -100 929 -106 925 -110 c 0
 918 -117 880 -115 870 -160 c 1
300 610 m 0
 300 590 282 575 265 575 c 0
 210 575 245 675 100 715 c 1
 103 723 109 730 115 730 c 0
 160 730 300 690 300 610 c 0
940 495 m 0
 940 470 910 450 780 450 c 2
 735 450 l 2
 605 450 590 465 590 545 c 2
 590 660 l 1
 650 660 l 1
 650 550 l 2
 650 520 660 510 750 510 c 2
 775 510 l 2
 825 510 860 515 870 525 c 0
 880 535 895 580 905 630 c 1
 920 625 l 1
 917 595 915 550 915 535 c 0
 915 520 940 515 940 495 c 0
945 55 m 0
 945 40 930 30 910 30 c 0
 835 30 610 130 600 405 c 1
 598 440 l 1
 660 435 694 430 694 420 c 0
 694 414 687 409 660 398 c 1
 670 170 855 105 870 105 c 0
 880 105 905 150 925 225 c 1
 940 220 l 1
 935 187 925 110 925 95 c 0
 925 86 945 75 945 55 c 0
457 210 m 1
 460 325 l 1
 460 700 l 1
 455 759 l 1
 457 760 l 1
 545 745 560 737 560 730 c 0
 560 725 555 720 520 710 c 1
 520 340 l 2
 520 310 522 275 522 265 c 0
 522 235 510 215 457 210 c 1
75 394 m 1
 77 395 l 1
 105 387 140 373 150 360 c 1
 200 360 l 1
 200 335 l 1
 140 335 l 1
 140 250 l 1
 80 250 l 1
 80 350 l 1
 75 394 l 1
410 455 m 1
 375 462 345 465 320 465 c 2
 120 465 l 2
 105 465 85 463 60 458 c 1
 50 500 l 1
 110 490 l 1
 295 490 l 1
 335 550 l 1
 380 520 412 490 412 465 c 0
 412 462 411 458 410 455 c 1
798 755 m 1
 845 725 870 705 870 695 c 0
 870 690 860 682 840 675 c 1
 840 570 l 1
 780 570 l 1
 780 690 l 1
 600 690 l 1
 600 715 l 1
 773 715 l 1
 798 755 l 1
920 330 m 1
 880 275 825 238 818 238 c 0
 813 238 808 242 805 245 c 1
 825 275 845 315 855 345 c 1
 740 345 l 1
 740 370 l 1
 850 370 l 1
 878 414 l 1
 925 380 953 355 953 347 c 0
 953 340 940 335 920 330 c 1
EndSplineSet
Fore
SplineSet
470 140 m 1
 530 140 l 1
 530 -60 l 2
 530 -125 490 -150 405 -160 c 1
 405 -110 380 -103 310 -100 c 1
 310 -78 l 1
 340 -82 385 -85 410 -85 c 0
 430 -85 457 -83 470 -73 c 1
 470 140 l 1
75 60 m 1
 180 160 260 280 290 370 c 1
 352 340 375 326 375 316 c 0
 375 309 360 307 335 307 c 1
 285 220 205 125 85 50 c 1
 75 60 l 1
50 -30 m 1
 160 -10 285 35 375 80 c 1
 380 65 l 1
 300 5 204 -50 111 -80 c 1
 110 -107 107 -115 101 -115 c 0
 92 -115 80 -97 50 -30 c 1
870 -160 m 1
 750 -100 625 10 585 180 c 1
 595 185 l 1
 605 180 l 1
 655 30 825 -85 930 -95 c 1
 930 -100 929 -106 925 -110 c 0
 918 -117 880 -115 870 -160 c 1
300 610 m 0
 300 590 282 575 265 575 c 0
 210 575 245 675 100 715 c 1
 103 723 109 730 115 730 c 0
 160 730 300 690 300 610 c 0
940 495 m 0
 940 470 910 450 780 450 c 2
 735 450 l 2
 605 450 590 465 590 545 c 2
 590 660 l 1
 650 660 l 1
 650 550 l 2
 650 520 660 510 750 510 c 2
 775 510 l 2
 825 510 860 515 870 525 c 0
 880 535 895 580 905 630 c 1
 920 625 l 1
 917 595 915 550 915 535 c 0
 915 520 940 515 940 495 c 0
945 55 m 0
 945 40 930 30 910 30 c 0
 835 30 610 130 600 405 c 1
 598 440 l 1
 660 435 694 430 694 420 c 0
 694 414 687 409 660 398 c 1
 670 170 855 105 870 105 c 0
 880 105 905 150 925 225 c 1
 940 220 l 1
 935 187 925 110 925 95 c 0
 925 86 945 75 945 55 c 0
457 210 m 1
 460 325 l 1
 460 700 l 1
 455 759 l 1
 457 760 l 1
 545 745 560 737 560 730 c 0
 560 725 555 720 520 710 c 1
 520 340 l 2
 520 310 522 275 522 265 c 0
 522 235 510 215 457 210 c 1
75 394 m 1
 77 395 l 1
 105 387 140 373 150 360 c 1
 200 360 l 1
 200 335 l 1
 140 335 l 1
 140 250 l 1
 80 250 l 1
 80 350 l 1
 75 394 l 1
410 455 m 1
 375 462 345 465 320 465 c 2
 120 465 l 2
 105 465 85 463 60 458 c 1
 50 500 l 1
 110 490 l 1
 295 490 l 1
 335 550 l 1
 380 520 412 490 412 465 c 0
 412 462 411 458 410 455 c 1
798 755 m 1
 845 725 870 705 870 695 c 0
 870 690 860 682 840 675 c 1
 840 570 l 1
 780 570 l 1
 780 690 l 1
 600 690 l 1
 600 715 l 1
 773 715 l 1
 798 755 l 1
920 330 m 1
 880 275 825 238 818 238 c 0
 813 238 808 242 805 245 c 1
 825 275 845 315 855 345 c 1
 740 345 l 1
 740 370 l 1
 850 370 l 1
 878 414 l 1
 925 380 953 355 953 347 c 0
 953 340 940 335 920 330 c 1
EndSplineSet
EndChar

StartChar: five
Encoding: 53 53 11
Width: 1000
Flags: HM
LayerCount: 2
Back
SplineSet
420 465 m 1
 120 465 l 1
 50 460 l 1
 50 495 l 1
 120 490 l 1
 305 490 l 1
 345 550 l 1
 347 550 l 1
 420 480 l 1
 420 465 l 1
800 755 m 1
 845 725 870 705 870 698 c 0
 870 693 860 686 840 675 c 1
 840 570 l 1
 780 570 l 1
 780 690 l 1
 600 690 l 1
 600 715 l 1
 773 715 l 1
 798 755 l 1
 800 755 l 1
470 140 m 1
 530 140 l 1
 530 -75 l 2
 530 -135 500 -150 405 -160 c 1
 405 -110 380 -100 310 -95 c 1
 310 -75 l 1
 360 -79 435 -82 450 -82 c 0
 465 -82 470 -75 470 -55 c 2
 470 140 l 1
75 60 m 1
 180 160 260 280 290 370 c 1
 352 340 375 326 375 316 c 0
 375 309 360 307 335 307 c 1
 285 220 205 125 85 50 c 1
 75 60 l 1
50 -30 m 1
 160 -10 285 35 375 80 c 1
 380 65 l 1
 300 5 204 -50 111 -80 c 1
 110 -107 107 -115 101 -115 c 0
 92 -115 80 -97 50 -30 c 1
585 180 m 1
 595 185 l 1
 605 180 l 1
 655 35 800 -70 930 -100 c 1
 930 -115 l 1
 900 -115 875 -135 870 -165 c 1
 750 -100 625 10 585 180 c 1
100 715 m 1
 110 730 l 1
 220 720 300 665 300 610 c 0
 300 590 282 575 265 575 c 0
 210 575 245 675 100 715 c 1
940 495 m 0
 940 470 900 450 770 450 c 2
 735 450 l 2
 605 450 590 465 590 545 c 2
 590 660 l 1
 650 660 l 1
 650 550 l 2
 650 520 660 510 750 510 c 2
 775 510 l 2
 825 510 860 515 870 525 c 0
 880 535 895 580 905 630 c 1
 920 625 l 1
 917 595 915 550 915 535 c 0
 915 520 940 515 940 495 c 0
850 370 m 1
 878 412 l 1
 880 412 l 1
 930 373 953 353 953 345 c 0
 953 340 940 335 920 330 c 1
 900 300 855 260 815 235 c 1
 805 245 l 1
 825 275 845 315 855 345 c 1
 740 345 l 1
 740 370 l 1
 850 370 l 1
945 55 m 0
 945 40 930 30 910 30 c 0
 835 30 610 130 600 405 c 1
 598 440 l 1
 660 435 694 430 694 420 c 0
 694 414 687 409 660 398 c 1
 670 170 855 105 870 105 c 0
 880 105 905 150 925 225 c 1
 940 220 l 1
 935 187 925 110 925 95 c 0
 925 86 945 75 945 55 c 0
460 220 m 1
 460 710 l 1
 455 759 l 1
 457 760 l 1
 548 747 560 740 560 733 c 0
 560 728 555 722 520 712 c 1
 520 230 l 1
 465 220 l 1
 460 220 l 1
80 395 m 1
 82 395 l 1
 150 360 l 1
 200 360 l 1
 200 335 l 1
 140 335 l 1
 140 250 l 1
 80 250 l 1
 80 395 l 1
EndSplineSet
EndChar

StartChar: four
Encoding: 52 52 12
Width: 1000
Flags: HM
LayerCount: 2
Back
SplineSet
520 718 m 1
 520 360 l 1
 524 240 l 1
 505 225 475 220 456 220 c 1
 460 360 l 1
 460 705 l 1
 455 760 l 1
 485 759 530 752 557 744 c 1
 555 728 l 1
 520 718 l 1
585 180 m 1
 610 180 l 1
 655 40 800 -70 920 -100 c 1
 920 -115 l 1
 895 -115 870 -130 865 -165 c 1
 725 -95 625 30 585 180 c 1
100 -23 m 1
 190 -5 285 25 375 65 c 1
 380 45 l 1
 300 -5 210 -55 103 -85 c 1
 103 -117 l 1
 87 -120 l 1
 72 -97 57 -62 50 -27 c 1
 100 -23 l 1
50 500 m 1
 120 490 l 1
 305 490 l 1
 345 550 l 1
 373 530 400 505 420 480 c 1
 417 465 l 1
 120 465 l 1
 60 460 l 1
 50 500 l 1
290 380 m 1
 320 369 357 350 382 330 c 1
 375 316 l 1
 340 320 l 1
 285 210 200 120 90 50 c 1
 75 65 l 1
 155 140 225 220 275 330 c 1
 290 380 l 1
840 670 m 1
 840 570 l 1
 780 570 l 1
 780 690 l 1
 620 690 l 1
 620 715 l 1
 773 715 l 1
 793 755 l 1
 820 742 855 715 870 695 c 1
 870 690 l 1
 840 670 l 1
940 510 m 1
 935 460 900 450 770 450 c 2
 735 450 l 2
 620 450 592 465 588 535 c 1
 590 600 l 1
 590 660 l 1
 650 660 l 1
 650 550 l 2
 650 515 660 510 750 510 c 2
 775 510 l 2
 825 510 870 515 875 530 c 1
 900 630 l 1
 920 626 l 1
 918 540 l 2
 917 520 925 512 940 510 c 1
600 390 m 1
 595 440 l 1
 625 440 670 434 697 427 c 1
 695 410 l 1
 660 400 l 1
 675 215 800 125 875 102 c 1
 920 220 l 1
 940 215 l 1
 925 115 l 2
 922 92 925 80 945 70 c 1
 942 50 925 32 903 32 c 0
 813 32 620 158 600 390 c 1
80 330 m 1
 75 395 l 1
 100 390 130 375 150 360 c 1
 200 360 l 1
 200 335 l 1
 140 335 l 1
 140 250 l 1
 80 250 l 1
 80 330 l 1
100 710 m 1
 110 730 l 1
 200 715 300 650 300 620 c 0
 300 600 267 575 250 575 c 0
 230 575 220 660 100 710 c 1
530 20 m 1
 533 -90 l 1
 520 -140 470 -150 410 -155 c 1
 405 -110 400 -100 310 -95 c 1
 310 -70 l 1
 450 -78 l 2
 465 -78 470 -75 470 -60 c 2
 470 140 l 1
 530 140 l 1
 530 20 l 1
920 325 m 1
 893 290 855 255 820 230 c 1
 806 245 l 1
 828 275 845 310 855 340 c 1
 740 340 l 1
 740 365 l 1
 853 365 l 1
 880 407 l 1
 905 392 937 365 952 343 c 1
 952 338 l 1
 920 325 l 1
EndSplineSet
EndChar

StartChar: three
Encoding: 51 51 13
Width: 1000
Flags: HM
LayerCount: 2
Back
SplineSet
460 760 m 1
 525 755 558 745 558 735 c 0
 558 727 545 720 520 715 c 1
 520 210 l 1
 460 210 l 1
 460 760 l 1
50 490 m 1
 300 490 l 1
 340 550 l 1
 345 550 l 1
 420 480 l 1
 420 460 l 1
 50 460 l 1
 50 490 l 1
220 370 m 1
 220 340 l 1
 140 340 l 1
 140 260 l 1
 80 260 l 1
 80 400 l 1
 83 400 l 1
 150 370 l 1
 220 370 l 1
910 515 m 1
 925 510 935 500 935 490 c 0
 935 465 905 450 860 450 c 2
 655 450 l 2
 605 450 590 465 590 515 c 2
 590 640 l 1
 650 640 l 1
 650 535 l 2
 650 515 655 510 675 510 c 2
 820 510 l 2
 850 510 865 515 870 540 c 2
 890 630 l 1
 910 625 l 1
 910 515 l 1
585 180 m 1
 610 180 l 1
 660 40 800 -55 925 -100 c 1
 875 -160 l 1
 735 -90 625 30 585 180 c 1
337 321 m 1
 277 206 195 125 100 55 c 1
 80 70 l 1
 160 140 240 255 290 380 c 1
 360 355 378 340 378 331 c 0
 378 324 365 319 337 321 c 1
50 -30 m 1
 160 -10 275 30 370 70 c 1
 380 50 l 1
 290 -5 185 -60 70 -90 c 1
 50 -30 l 1
470 130 m 1
 530 130 l 1
 530 -95 l 2
 530 -145 485 -160 420 -170 c 1
 420 -130 400 -113 340 -113 c 1
 340 -90 l 1
 450 -90 l 2
 465 -90 470 -85 470 -70 c 2
 470 130 l 1
100 710 m 1
 110 730 l 1
 220 715 300 670 300 615 c 0
 300 595 282 580 265 580 c 0
 210 580 240 670 100 710 c 1
600 720 m 1
 775 720 l 1
 800 760 l 1
 805 760 l 1
 850 730 873 708 873 700 c 0
 873 694 864 687 840 680 c 1
 840 570 l 1
 780 570 l 1
 780 690 l 1
 600 690 l 1
 600 720 l 1
740 370 m 1
 845 370 l 1
 875 415 l 1
 880 415 l 1
 930 380 955 355 955 348 c 0
 955 342 943 335 920 330 c 1
 895 295 855 260 815 235 c 1
 800 250 l 1
 820 275 840 310 850 340 c 1
 740 340 l 1
 740 370 l 1
600 405 m 1
 598 440 l 1
 672 438 697 428 697 420 c 0
 697 410 680 403 660 398 c 1
 670 170 850 105 870 105 c 0
 880 105 895 130 920 225 c 1
 940 220 l 1
 933 175 925 115 925 100 c 0
 925 80 945 80 945 55 c 0
 945 40 930 30 910 30 c 0
 830 30 610 130 600 405 c 1
EndSplineSet
EndChar

StartChar: two
Encoding: 50 50 14
Width: 1000
Flags: HM
LayerCount: 2
Back
SplineSet
805 765 m 1
 840 740 870 715 870 705 c 0
 870 698 855 690 840 685 c 1
 840 580 l 1
 780 580 l 1
 780 690 l 1
 610 690 l 1
 610 725 l 1
 773 725 l 1
 800 765 l 1
 805 765 l 1
580 180 m 1
 595 185 l 1
 610 180 l 1
 655 35 800 -70 930 -100 c 1
 930 -120 l 1
 895 -120 880 -130 870 -165 c 1
 756 -105 620 10 580 180 c 1
100 705 m 1
 110 730 l 1
 230 710 300 660 300 610 c 0
 300 590 282 575 265 575 c 0
 210 575 240 655 100 705 c 1
940 495 m 0
 940 470 900 450 770 450 c 2
 735 450 l 2
 605 450 590 465 590 545 c 2
 590 660 l 1
 650 660 l 1
 650 550 l 2
 650 520 660 510 750 510 c 2
 775 510 l 2
 825 510 860 515 870 525 c 0
 880 535 890 580 895 630 c 1
 920 625 l 1
 917 595 915 550 915 535 c 0
 915 520 940 515 940 495 c 0
945 55 m 0
 945 40 930 30 910 30 c 0
 835 30 610 130 600 405 c 1
 598 440 l 1
 660 435 694 430 694 420 c 0
 694 414 687 409 660 398 c 1
 670 170 855 105 870 105 c 0
 880 105 900 150 915 225 c 1
 940 220 l 1
 935 187 925 110 925 95 c 0
 925 86 945 75 945 55 c 0
50 500 m 1
 305 500 l 1
 345 555 l 1
 350 555 l 1
 420 485 l 1
 420 465 l 1
 50 465 l 1
 50 500 l 1
80 400 m 1
 82 400 l 1
 150 365 l 1
 200 365 l 1
 200 330 l 1
 140 330 l 1
 140 250 l 1
 80 250 l 1
 80 400 l 1
885 415 m 1
 920 385 953 355 953 345 c 0
 953 338 938 330 923 325 c 1
 895 285 855 250 820 225 c 1
 800 245 l 1
 820 272 840 310 850 340 c 1
 740 340 l 1
 740 375 l 1
 853 375 l 1
 880 415 l 1
 885 415 l 1
460 760 m 1
 545 750 560 738 560 730 c 0
 560 722 545 715 520 710 c 1
 520 230 l 1
 460 230 l 1
 460 760 l 1
530 -65 m 2
 530 -125 485 -152 420 -152 c 0
 410 -152 392 -151 385 -150 c 1
 380 -115 370 -105 300 -95 c 1
 300 -70 l 1
 340 -75 395 -80 420 -80 c 0
 453 -80 470 -75 470 -45 c 2
 470 140 l 1
 530 140 l 1
 530 -65 l 2
85 65 m 1
 190 165 265 275 300 370 c 1
 365 343 386 326 386 316 c 0
 386 310 379 304 344 305 c 1
 294 218 210 125 105 45 c 1
 85 65 l 1
50 -30 m 1
 160 -10 290 30 370 65 c 1
 380 40 l 1
 300 -10 205 -50 112 -80 c 1
 111 -107 108 -117 101 -117 c 0
 90 -117 75 -95 50 -30 c 1
EndSplineSet
EndChar

StartChar: zero
Encoding: 48 48 15
Width: 1000
Flags: HMW
LayerCount: 2
Back
SplineSet
75 720 m 1
 83 740 l 1
 180 725 255 675 255 625 c 0
 255 600 235 575 205 575 c 0
 145 575 175 665 75 720 c 1
265.78 316.279 m 1
 278.739 379.153 l 1
 280.938 379.559 l 1
 393.556 326.209 400.665 314.787 398.445 307.102 c 0
 397.058 302.297 390.033 296 353.633 296.105 c 1
766 340 m 17
 701 335 l 1
 696 375 l 1
 766 370 l 9
 840 370 l 25
 868 410 l 25
 871 410 l 17
 933 365 957 340 957 330 c 1
 957 325 947 318 925 310 c 1
 895 285 855 255 815 235 c 9
 803 247 l 17
 820 280 832 310 840 340 c 9
 766 340 l 17
-940 490 m 25
 -760 490 l 17
 -757 500 -725 550 -715 550 c 1
 -705 550 -640 485 -640 475 c 9
 -645 460 l 25
 -940 460 l 25
 -1005 455 l 25
 -1010 495 l 25
 -940 490 l 25
-615 235 m 1
 -615 690 l 1
 -615 710 -617 740 -620 759 c 1
 -618 760 l 1
 -515 745 -485 735 -485 725 c 0
 -485 718 -495 712 -525 705 c 1
 -525 245 l 1
 -525 225 -570 210 -595 210 c 1
 -610 210 -615 220 -615 235 c 1
420 460 m 1
 120 460 l 1
 50 455 l 1
 50 495 l 1
 120 490 l 1
 305 490 l 1
 345 550 l 1
 347 550 l 1
 420 480 l 1
 420 460 l 1
800 755 m 1
 845 725 870 705 870 698 c 0
 870 693 860 686 840 675 c 1
 840 570 l 1
 780 570 l 1
 780 690 l 1
 600 690 l 1
 600 720 l 1
 775 720 l 1
 798 755 l 1
 800 755 l 1
470 140 m 1
 530 140 l 1
 530 -75 l 2
 530 -135 500 -150 405 -160 c 1
 405 -110 380 -100 310 -95 c 1
 310 -73 l 1
 355 -77 435 -82 450 -82 c 0
 465 -82 470 -75 470 -55 c 2
 470 140 l 1
75 60 m 1
 180 160 260 280 290 370 c 1
 353 340 375 326 375 316 c 0
 375 309 360 307 335 307 c 1
 285 220 206 126 87 49 c 1
 75 60 l 1
585 175 m 1
 595 185 l 1
 605 180 l 1
 655 35 800 -70 930 -100 c 1
 930 -115 l 1
 900 -115 875 -135 870 -165 c 1
 750 -100 625 10 585 175 c 1
100 715 m 1
 110 730 l 1
 220 720 300 665 300 610 c 0
 300 590 282 575 265 575 c 0
 210 575 245 675 100 715 c 1
940 495 m 0
 940 470 900 450 770 450 c 2
 735 450 l 2
 605 450 590 465 590 545 c 2
 590 660 l 1
 650 660 l 1
 650 550 l 2
 650 520 660 510 750 510 c 2
 775 510 l 2
 825 510 860 515 870 525 c 0
 880 535 895 580 905 630 c 1
 920 625 l 1
 917 595 915 550 915 535 c 0
 915 520 940 515 940 495 c 0
855 375 m 1
 878 412 l 1
 880 412 l 1
 930 373 953 353 953 345 c 0
 953 340 940 335 920 330 c 1
 900 300 855 260 815 235 c 1
 805 245 l 1
 825 275 845 315 855 345 c 1
 740 345 l 1
 740 375 l 1
 855 375 l 1
945 55 m 0
 945 40 930 30 910 30 c 0
 835 30 610 130 600 405 c 1
 598 440 l 1
 660 435 694 430 694 420 c 0
 694 414 687 409 660 398 c 1
 670 170 855 105 870 105 c 0
 880 105 905 150 925 225 c 1
 940 220 l 1
 935 187 925 110 925 95 c 0
 925 86 945 75 945 55 c 0
460 220 m 1
 460 710 l 1
 455 759 l 1
 457 760 l 1
 548 747 560 740 560 733 c 0
 560 728 555 722 520 712 c 1
 520 230 l 1
 465 220 l 1
 460 220 l 1
80 398 m 1
 82 398 l 1
 150 365 l 1
 200 365 l 1
 200 335 l 1
 140 335 l 1
 140 250 l 1
 80 250 l 1
 80 398 l 1
-210 -150 m 0
 -230 -150 -245 -135 -245 -119 c 0
 -245 -90 -235 -40 -235 5 c 0
 -235 65 -255 100 -315 105 c 1
 -315 130 l 1
 -245 130 l 1
 -65 570 l 1
 -45 565 l 1
 -160 210 -190 100 -190 60 c 0
 -190 15 -165 -50 -165 -100 c 0
 -165 -125 -185 -150 -210 -150 c 0
-345 515 m 1
 -338 535 l 1
 -245 520 -170 473 -170 428 c 0
 -170 407 -185 390 -207 390 c 0
 -250 390 -230 465 -345 515 c 1
-295 720 m 1
 -287 740 l 1
 -195 715 -129 665 -129 623 c 0
 -129 603 -145 585 -165 585 c 0
 -210 585 -185 657 -295 720 c 1
-682 -30 m 1
 -572 -5 -457 35 -357 80 c 1
 -352 62 l 1
 -432 5 -537 -50 -621 -80 c 1
 -622 -107 -625 -115 -631 -115 c 0
 -640 -115 -652 -100 -682 -30 c 1
50 -30 m 1
 160 -10 285 35 375 80 c 1
 380 62 l 1
 300 5 204 -50 111 -80 c 1
 110 -107 107 -115 101 -115 c 0
 92 -115 80 -100 50 -30 c 1
EndSplineSet
Fore
SplineSet
280 385 m 1
 365 342 400 320 400 309 c 0
 400 300 385 296 355 295 c 1
 310 210 215 115 110 50 c 1
 95 60 l 1
 195 175 255 285 280 385 c 1
1020 600 m 1
 1110 600 l 1
 1110 475 l 2
 1110 450 1120 440 1200 440 c 2
 1230 440 l 2
 1320 440 1365 455 1375 465 c 0
 1390 480 1410 530 1420 580 c 1
 1437 575 l 1
 1434 540 1430 470 1430 455 c 0
 1430 440 1448 425 1448 405 c 0
 1448 375 1370 350 1230 350 c 2
 1190 350 l 2
 1040 350 1020 380 1020 465 c 2
 1020 600 l 1
580 570 m 1
 670 570 l 1
 670 465 l 2
 670 440 680 430 760 430 c 2
 790 430 l 2
 850 430 875 440 885 450 c 0
 900 465 918 505 928 555 c 1
 945 550 l 1
 942 505 940 450 940 440 c 0
 940 425 955 415 955 395 c 0
 955 365 905 340 790 340 c 2
 750 340 l 2
 600 340 580 370 580 455 c 2
 580 570 l 1
130 290 m 1
 85 280 l 1
 40 290 l 1
 40 360 l 1
 35 435 l 1
 37 435 l 1
 140 395 l 1
 210 395 l 1
 215 380 l 1
 210 365 l 1
 130 365 l 1
 130 290 l 1
780 560 m 1
 780 690 l 1
 676 690 l 1
 611 685 l 1
 606 725 l 1
 676 720 l 1
 773 720 l 1
 808 763 l 1
 811 763 l 1
 870 725 902 700 902 690 c 0
 902 685 890 675 870 665 c 1
 870 560 l 1
 825 550 l 1
 780 560 l 1
-240 575 m 1
 -220 570 l 1
 -335 235 -355 125 -355 85 c 0
 -355 5 -325 -45 -325 -85 c 0
 -325 -120 -370 -140 -425 -155 c 1
 -445 -145 l 1
 -435 -105 -420 -10 -420 25 c 0
 -420 75 -440 105 -495 110 c 1
 -495 135 l 1
 -435 135 -427 140 -415 170 c 0
 -391 230 -345 340 -240 575 c 1
-210 -155 m 0
 -235 -155 -255 -135 -255 -115 c 0
 -255 -85 -240 -20 -240 25 c 0
 -240 75 -260 105 -315 110 c 1
 -315 135 l 1
 -250 135 l 1
 -65 575 l 1
 -45 570 l 1
 -160 215 -175 130 -175 90 c 0
 -175 10 -140 -40 -140 -85 c 0
 -140 -125 -165 -155 -210 -155 c 0
1046 240 m 1
 981 235 l 1
 976 275 l 1
 1046 270 l 1
 1160 270 l 1
 1188 313 l 1
 1191 313 l 1
 1253 265 1277 240 1277 230 c 0
 1277 225 1267 218 1245 210 c 1
 1200 110 1095 15 973 -20 c 1
 965 -5 l 1
 1065 60 1130 155 1160 240 c 1
 1046 240 l 1
756 190 m 1
 691 185 l 1
 686 225 l 1
 756 220 l 1
 830 220 l 1
 858 260 l 1
 861 260 l 1
 920 210 942 185 942 175 c 0
 942 170 930 165 910 160 c 1
 880 135 845 105 805 85 c 1
 793 97 l 1
 810 130 822 160 830 190 c 1
 756 190 l 1
1320 170 m 1
 1410 170 l 1
 1410 -70 l 1
 1380 -105 1310 -130 1255 -135 c 1
 1250 -85 1235 -55 1160 -50 c 1
 1160 -28 l 1
 1195 -32 1235 -35 1255 -35 c 0
 1275 -35 1307 -33 1320 -23 c 1
 1320 170 l 1
592 190 m 1
 605 195 l 1
 615 190 l 1
 670 45 810 -55 950 -85 c 1
 950 -95 l 1
 905 -100 875 -125 865 -165 c 1
 755 -105 632 20 592 190 c 1
423 485 m 1
 345 490 l 1
 120 490 l 1
 50 485 l 1
 45 525 l 1
 120 520 l 1
 280 520 l 1
 333 595 l 1
 335 595 l 1
 425 505 l 1
 423 485 l 1
447 210 m 1
 450 340 l 1
 450 700 l 1
 445 764 l 1
 447 765 l 1
 570 745 580 736 580 728 c 0
 580 723 575 715 540 705 c 1
 540 340 l 1
 543 225 l 1
 465 210 l 1
 447 210 l 1
428 40 m 1
 260 -50 110 -110 95 -110 c 0
 86 -110 75 -90 48 -20 c 1
 165 -5 310 25 425 60 c 1
 428 40 l 1
470 145 m 1
 560 145 l 1
 560 -55 l 2
 560 -135 535 -160 390 -175 c 1
 390 -115 380 -95 290 -82 c 1
 290 -60 l 1
 330 -64 415 -70 435 -70 c 0
 460 -70 470 -60 470 -43 c 2
 470 145 l 1
1520 500 m 1
 1610 500 l 1
 1610 285 l 2
 1610 240 1550 205 1455 195 c 1
 1450 245 1435 275 1360 280 c 1
 1360 302 l 1
 1395 298 1435 295 1455 295 c 0
 1475 295 1507 297 1520 307 c 1
 1520 500 l 1
1670 170 m 1
 1760 170 l 1
 1760 -70 l 1
 1730 -110 1660 -130 1605 -135 c 1
 1600 -85 1585 -55 1510 -50 c 1
 1510 -28 l 1
 1555 -32 1605 -35 1625 -35 c 0
 1655 -35 1670 -30 1670 -13 c 2
 1670 170 l 1
75 720 m 1
 83 740 l 1
 180 725 257 685 257 622 c 0
 257 597 237 575 205 575 c 0
 134 575 170 670 75 720 c 1
EndSplineSet
EndChar

StartChar: uniFE31
Encoding: 65073 65073 16
Width: 1000
Flags: HMW
LayerCount: 2
Back
SplineSet
480 800 m 1
 520 800 l 1
 520 -200 l 1
 480 -200 l 1
 480 800 l 1
EndSplineSet
Fore
SplineSet
480 800 m 1
 520 800 l 1
 520 -200 l 1
 480 -200 l 1
 480 800 l 1
EndSplineSet
EndChar

StartChar: emdash
Encoding: 8212 8212 18
Width: 1000
Flags: HMW
LayerCount: 2
Back
SplineSet
1000 320 m 1
 1000 280 l 1
 0 280 l 1
 0 320 l 1
 1000 320 l 1
EndSplineSet
Fore
SplineSet
1000 320 m 1
 1000 280 l 1
 0 280 l 1
 0 320 l 1
 1000 320 l 1
EndSplineSet
EndChar

StartChar: uni4E00
Encoding: 19968 19968 19
Width: 1000
Flags: HMW
LayerCount: 2
Back
SplineSet
950 300 m 1
 120 300 l 1
 50 295 l 1
 50 335 l 1
 120 330 l 1
 820 330 l 1
 867 397 l 1
 869 397 l 1
 950 320 l 1
 950 300 l 1
EndSplineSet
Fore
SplineSet
953 295 m 1
 875 300 l 1
 120 300 l 1
 50 295 l 1
 45 335 l 1
 120 330 l 1
 795 330 l 1
 855 415 l 1
 857 415 l 1
 955 315 l 1
 953 295 l 1
EndSplineSet
EndChar

StartChar: uni4E01
Encoding: 19969 19969 20
Width: 1000
Flags: HM
LayerCount: 2
Back
SplineSet
469 -151 m 5
 469 -119 l 5
 361 -103 l 5
 361 -87 l 5
 469 -87 l 5
 475 -86 l 5
 480 -85 l 5
 485 -84 l 5
 487 -81 l 5
 489 -77 l 5
 490 -72 l 5
 490 -65 l 5
 490 644 l 5
 71 644 l 5
 71 666 l 5
 835 666 l 5
 888 720 l 5
 953 666 l 5
 953 644 l 5
 555 644 l 5
 555 -65 l 5
 554 -79 l 5
 552 -92 l 5
 547 -105 l 5
 540 -117 l 5
 532 -128 l 5
 521 -137 l 5
 509 -144 l 5
 496 -148 l 5
 482 -150 l 5
 469 -151 l 5
EndSplineSet
EndChar

StartChar: uni4E03
Encoding: 19971 19971 21
Width: 1000
Flags: HM
LayerCount: 2
Back
SplineSet
950 458 m 1
 117 296 l 1
 50 278 l 1
 45 318 l 1
 113 326 l 1
 834 466 l 1
 862 533 l 1
 864 533 l 1
 950 478 l 1
 950 458 l 1
957.658 568.553 m 1
 123.274 406.365 l 1
 55.5146 388.101 l 1
 47.8828 427.365 l 1
 117.551 435.814 l 1
 839.047 576.059 l 1
 866.863 642.589 l 1
 868.826 642.971 l 1
 953.842 588.186 l 1
 957.658 568.553 l 1
960 550 m 1
 110 550 l 1
 40 545 l 1
 40 585 l 1
 110 580 l 1
 845 580 l 1
 885 640 l 1
 887 640 l 1
 960 570 l 1
 960 550 l 1
426 -103 m 1
 412 -102 l 1
 399 -100 l 1
 386 -95 l 1
 373 -88 l 1
 363 -80 l 1
 354 -69 l 1
 347 -57 l 1
 343 -44 l 1
 341 -30 l 1
 340 -17 l 1
 340 342 l 1
 51 285 l 1
 48 306 l 1
 340 364 l 1
 340 763 l 1
 404 752 l 1
 421 741 l 1
 404 731 l 1
 404 376 l 1
 856 465 l 1
 899 529 l 1
 972 488 l 1
 976 467 l 1
 404 355 l 1
 404 -23 l 1
 406 -28 l 1
 407 -33 l 1
 409 -35 l 1
 414 -37 l 1
 419 -38 l 1
 426 -38 l 1
 846 -38 l 1
 878 96 l 1
 888 96 l 1
 878 -38 l 1
 897 -51 l 1
 910 -71 l 1
 897 -90 l 1
 878 -103 l 1
 426 -103 l 1
EndSplineSet
EndChar

StartChar: uni4E09
Encoding: 19977 19977 22
Width: 1000
Flags: HM
LayerCount: 2
Back
SplineSet
50 -38 m 1
 50 -17 l 1
 856 -17 l 1
 910 37 l 1
 974 -17 l 1
 974 -38 l 1
 50 -38 l 1
200 306 m 1
 200 327 l 1
 706 327 l 1
 759 381 l 1
 824 327 l 1
 824 306 l 1
 200 306 l 1
109 628 m 1
 109 650 l 1
 797 650 l 1
 851 703 l 1
 915 650 l 1
 915 628 l 1
 109 628 l 1
EndSplineSet
EndChar

StartChar: uni4E0A
Encoding: 19978 19978 23
Width: 1000
Flags: HM
LayerCount: 2
Back
SplineSet
60 -76 m 1
 60 -55 l 1
 458 -55 l 1
 458 768 l 1
 523 757 l 1
 539 747 l 1
 523 737 l 1
 523 397 l 1
 781 397 l 1
 835 451 l 1
 899 397 l 1
 899 376 l 1
 523 376 l 1
 523 -55 l 1
 845 -55 l 1
 899 -1 l 1
 964 -55 l 1
 964 -76 l 1
 60 -76 l 1
EndSplineSet
EndChar

StartChar: uni4E8C
Encoding: 20108 20108 24
Width: 1000
Flags: HM
LayerCount: 2
Back
SplineSet
50 10 m 1
 50 31 l 1
 856 31 l 1
 910 85 l 1
 974 31 l 1
 974 10 l 1
 50 10 l 1
146 580 m 1
 146 601 l 1
 759 601 l 1
 813 655 l 1
 878 601 l 1
 878 580 l 1
 146 580 l 1
EndSplineSet
EndChar

StartChar: uni4E94
Encoding: 20116 20116 25
Width: 1000
Flags: HM
LayerCount: 2
Back
SplineSet
479.076 675.629 m 17
 360.186 -75.0146 l 1
 325.616 -69.5391 l 1
 300.924 -65.6289 l 1
 419.814 685.015 l 9
 479.076 675.629 l 17
50 -76 m 1
 50 -55 l 1
 298 -55 l 1
 377 349 l 1
 146 349 l 1
 146 370 l 1
 381 370 l 1
 439 666 l 1
 93 666 l 1
 93 687 l 1
 813 687 l 1
 867 741 l 1
 931 687 l 1
 931 666 l 1
 505 666 l 1
 447 370 l 1
 695 370 l 1
 727 397 l 1
 786 349 l 1
 759 327 l 1
 759 -55 l 1
 856 -55 l 1
 910 -1 l 1
 974 -55 l 1
 974 -76 l 1
 50 -76 l 1
364 -55 m 1
 695 -55 l 1
 695 349 l 1
 443 349 l 1
 364 -55 l 1
EndSplineSet
EndChar

StartChar: uni56DB
Encoding: 22235 22235 26
Width: 1000
Flags: HM
LayerCount: 2
Back
SplineSet
98 -130 m 1
 98 677 l 1
 163 644 l 1
 861 644 l 1
 894 671 l 1
 953 623 l 1
 926 601 l 1
 926 -65 l 1
 861 -98 l 1
 861 -33 l 1
 163 -33 l 1
 163 -98 l 1
 98 -130 l 1
170 119 m 1
 165 127 l 1
 204 157 l 1
 238 187 l 1
 267 220 l 1
 292 254 l 1
 313 290 l 1
 330 329 l 1
 342 370 l 1
 351 414 l 1
 356 461 l 1
 356 510 l 1
 356 623 l 1
 163 623 l 1
 163 -12 l 1
 861 -12 l 1
 861 623 l 1
 620 623 l 1
 620 262 l 1
 621 257 l 1
 622 252 l 1
 624 250 l 1
 629 248 l 1
 634 247 l 1
 641 247 l 1
 766 247 l 1
 797 381 l 1
 808 381 l 1
 797 247 l 1
 816 234 l 1
 829 214 l 1
 816 195 l 1
 797 182 l 1
 641 182 l 1
 627 183 l 1
 614 185 l 1
 601 190 l 1
 588 197 l 1
 578 205 l 1
 569 216 l 1
 562 228 l 1
 558 241 l 1
 556 255 l 1
 555 268 l 1
 555 623 l 1
 421 623 l 1
 421 510 l 1
 416 455 l 1
 408 404 l 1
 394 355 l 1
 376 309 l 1
 353 268 l 1
 325 230 l 1
 293 195 l 1
 256 165 l 1
 215 140 l 1
 170 119 l 1
EndSplineSet
EndChar

StartChar: uni571F
Encoding: 22303 22303 27
Width: 1000
Flags: HM
LayerCount: 2
Back
SplineSet
50 -71 m 1
 50 -49 l 1
 480 -49 l 1
 480 402 l 1
 120 402 l 1
 120 424 l 1
 480 424 l 1
 480 763 l 1
 544 752 l 1
 560 741 l 1
 544 731 l 1
 544 424 l 1
 786 424 l 1
 840 478 l 1
 904 424 l 1
 904 402 l 1
 544 402 l 1
 544 -49 l 1
 856 -49 l 1
 910 5 l 1
 974 -49 l 1
 974 -71 l 1
 50 -71 l 1
EndSplineSet
EndChar

StartChar: uni516D
Encoding: 20845 20845 28
Width: 1000
Flags: HMW
LayerCount: 2
Back
SplineSet
600 380 m 1
 615 390 l 1
 820 200 930 0 930 -65 c 0
 930 -90 913 -110 895 -110 c 0
 830 -110 890 30 600 380 c 1
65 -115 m 1
 170 5 310 250 340 380 c 1
 403 350 425 336 425 326 c 0
 425 319 410 317 385 317 c 1
 335 190 196 -29 77 -126 c 1
 65 -115 l 1
950 485 m 1
 130 485 l 1
 60 480 l 1
 60 520 l 1
 130 515 l 1
 470 515 l 1
 470 690 l 1
 465 739 l 1
 467 740 l 1
 558 727 570 720 570 713 c 0
 570 708 565 702 530 692 c 1
 530 515 l 1
 835 515 l 1
 875 575 l 1
 877 575 l 1
 950 505 l 1
 950 485 l 1
EndSplineSet
Fore
SplineSet
150 500 m 0
 150 583 217 650 300 650 c 0
 383 650 450 583 450 500 c 0
 450 417 383 350 300 350 c 0
 217 350 150 417 150 500 c 0
EndSplineSet
EndChar

StartChar: uni516B
Encoding: 20843 20843 29
Width: 1000
Flags: HM
LayerCount: 2
Back
SplineSet
346.158 498.259 m 1
 412.054 475.307 435.449 463.788 436.539 453.848 c 0
 437.303 446.89 422.609 443.267 397.759 440.541 c 1
625 225 m 1
 635 235 l 1
 645 230 l 1
 695 85 840 -20 970 -50 c 1
 970 -65 l 1
 940 -65 915 -85 910 -115 c 1
 790 -50 665 60 625 225 c 1
35 -130 m 1
 140 -30 220 90 250 180 c 1
 313 150 335 136 335 126 c 0
 335 119 320 117 295 117 c 1
 245 30 166 -64 47 -141 c 1
 35 -130 l 1
690 625 m 1
 390 625 l 1
 320 620 l 1
 320 660 l 1
 390 655 l 1
 685 655 l 1
 708 690 l 1
 710 690 l 1
 755 660 780 640 780 633 c 0
 780 628 770 621 750 610 c 1
41 -139 m 1
 36 -131 l 1
 78 -93 l 1
 117 -50 l 1
 154 -3 l 1
 188 49 l 1
 220 107 l 1
 249 171 l 1
 275 241 l 1
 300 316 l 1
 321 397 l 1
 342 494 l 1
 402 471 l 1
 416 458 l 1
 397 451 l 1
 380 382 l 1
 354 299 l 1
 326 221 l 1
 295 150 l 1
 260 85 l 1
 222 27 l 1
 182 -25 l 1
 138 -71 l 1
 91 -108 l 1
 41 -139 l 1
921 -110 m 1
 868 -64 l 1
 821 -11 l 1
 779 48 l 1
 742 113 l 1
 710 185 l 1
 684 262 l 1
 663 345 l 1
 646 435 l 1
 636 531 l 1
 631 628 l 1
 318 628 l 1
 318 650 l 1
 587 650 l 1
 641 703 l 1
 706 650 l 1
 706 628 l 1
 642 628 l 1
 658 534 l 1
 677 441 l 1
 700 355 l 1
 727 276 l 1
 757 204 l 1
 790 139 l 1
 828 81 l 1
 870 30 l 1
 914 -15 l 1
 980 -65 l 1
 921 -110 l 1
EndSplineSet
EndChar

StartChar: uni4E5D
Encoding: 20061 20061 30
Width: 1000
Flags: HM
LayerCount: 2
Back
SplineSet
695 -10 m 1
 695 -40 705 -50 790 -50 c 2
 800 -50 l 2
 845 -50 880 -45 890 -35 c 0
 900 -25 915 30 925 90 c 1
 940 85 l 1
 937 45 935 -5 935 -23 c 0
 935 -40 960 -45 960 -65 c 0
 960 -90 920 -110 795 -110 c 2
 775 -110 l 2
 650 -110 635 -95 635 -15 c 9
 640 480 l 17
 171 470 l 1
 100 463 l 1
 100 503 l 1
 169 500 l 1
 635 510 l 1
 658 545 l 1
 660 545 l 1
 705 515 730 495 730 488 c 0
 730 483 720 476 700 465 c 1
 695 -10 l 1
430 500 m 1
 430 485 l 2
 430 195 300 -60 45 -145 c 1
 39 -128 l 1
 265 -20 370 220 370 495 c 2
 370 500 l 1
 370 710 l 1
 365 759 l 1
 367 760 l 1
 458 747 470 740 470 733 c 0
 470 728 465 722 430 712 c 1
 430 500 l 1
569.676 599.76 m 1
 499.569 602.926 l 1
 500.616 562.939 l 1
 570.461 569.77 l 1
1060 645 m 1
 1058 645 l 1
 1035 610 l 1
 570 610 l 1
 500 615 l 1
 500 575 l 1
 570 580 l 1
 1040 580 l 1
1138 -8 m 1
 1124 -7 l 1
 1110 -5 l 1
 1097 -1 l 1
 1085 6 l 1
 1074 15 l 1
 1066 26 l 1
 1059 38 l 1
 1054 51 l 1
 1052 64 l 1
 1052 78 l 1
 1052 583 l 1
 835 583 l 1
 831 522 l 1
 818 430 l 1
 797 344 l 1
 769 266 l 1
 733 194 l 1
 689 131 l 1
 638 75 l 1
 579 27 l 1
 513 -14 l 1
 441 -45 l 1
 437 -36 l 1
 503 4 l 1
 561 49 l 1
 613 99 l 1
 656 155 l 1
 693 217 l 1
 723 285 l 1
 745 359 l 1
 761 440 l 1
 770 527 l 1
 771 583 l 1
 509 583 l 1
 509 605 l 1
 772 605 l 1
 772 621 l 1
 772 868 l 1
 837 857 l 1
 853 847 l 1
 837 837 l 1
 837 621 l 1
 836 605 l 1
 1052 605 l 1
 1084 631 l 1
 1143 583 l 1
 1116 562 l 1
 1116 71 l 1
 1117 66 l 1
 1119 62 l 1
 1121 59 l 1
 1126 58 l 1
 1131 57 l 1
 1138 56 l 1
 1311 56 l 1
 1342 191 l 1
 1353 191 l 1
 1343 56 l 1
 1361 43 l 1
 1374 24 l 1
 1361 5 l 1
 1342 -8 l 1
 1138 -8 l 1
EndSplineSet
EndChar

StartChar: uni5341
Encoding: 21313 21313 31
Width: 1000
Flags: HM
LayerCount: 2
Back
SplineSet
480 -162 m 1
 480 343 l 1
 50 343 l 1
 50 365 l 1
 480 365 l 1
 480 763 l 1
 544 752 l 1
 560 741 l 1
 544 731 l 1
 544 365 l 1
 856 365 l 1
 910 419 l 1
 974 365 l 1
 974 343 l 1
 544 343 l 1
 544 -130 l 1
 480 -162 l 1
EndSplineSet
EndChar

StartChar: uni5343
Encoding: 21315 21315 32
Width: 1000
Flags: HM
LayerCount: 2
Back
SplineSet
655 570 m 1
 910 615 1200 695 1325 758 c 1
 1370 730 1400 708 1400 695 c 3
 1400 690 1395 689 1387 689 c 3
 1380 689 1372 690 1359 693 c 1
 1165 625 905 575 660 555 c 1
 655 570 l 1
1095 645 m 1
 1095 345 l 1
 1387 345 l 1
 1432 410 l 1
 1434 410 l 1
 1515 335 l 1
 1515 315 l 1
 1095 315 l 1
 1095 -145 l 1
 1040 -155 l 1
 1035 -155 l 1
 1035 315 l 1
 680 315 l 1
 610 310 l 1
 610 350 l 1
 680 345 l 1
 1035 345 l 1
 1035 625 l 1
 1095 645 l 1
417.469 323.84 m 1
 543.241 421.852 726.989 636.005 781 758 c 1
 837.201 716.643 856.161 698.739 854.272 688.92 c 0
 852.951 682.046 837.843 682.914 813.293 687.636 c 1
 740.209 572.363 562.353 383.554 427.176 310.771 c 1
 417.469 323.84 l 1
385 -45 m 1
 490 75 630 320 660 450 c 1
 723 420 745 406 745 396 c 0
 745 389 730 387 705 387 c 1
 655 260 516 41 397 -56 c 1
 385 -45 l 1
480 -162 m 1
 480 327 l 1
 50 327 l 1
 50 349 l 1
 480 349 l 1
 480 609 l 1
 414 596 l 1
 338 584 l 1
 261 573 l 1
 181 565 l 1
 99 559 l 1
 97 569 l 1
 332 619 l 1
 476 654 l 1
 609 693 l 1
 733 736 l 1
 791 759 l 1
 795 749 l 1
 841 709 l 1
 842 692 l 1
 821 701 l 1
 753 678 l 1
 690 659 l 1
 624 641 l 1
 557 625 l 1
 544 622 l 1
 544 349 l 1
 856 349 l 1
 910 402 l 1
 974 349 l 1
 974 327 l 1
 544 327 l 1
 544 -130 l 1
 480 -162 l 1
EndSplineSet
EndChar

StartChar: uni4EBB
Encoding: 20155 20155 33
Width: 1000
Flags: HM
LayerCount: 2
Back
SplineSet
468 -167 m 1
 468 428 l 1
 407 359 l 1
 359 309 l 1
 309 262 l 1
 256 216 l 1
 249 223 l 1
 380 382 l 1
 461 491 l 1
 499 546 l 1
 571 660 l 1
 634 774 l 1
 639 784 l 1
 693 748 l 1
 702 731 l 1
 682 730 l 1
 657 688 l 1
 581 573 l 1
 540 517 l 1
 493 457 l 1
 532 451 l 1
 549 440 l 1
 532 430 l 1
 532 -135 l 1
 468 -167 l 1
EndSplineSet
EndChar

StartChar: uni4EBA
Encoding: 20154 20154 34
Width: 1000
Flags: HM
LayerCount: 2
Back
SplineSet
815 640 m 1
 815 707 l 1
 820 707 l 1
 845 305 1015 -5 1265 -75 c 1
 1265 -90 l 1
 1235 -90 1210 -110 1205 -140 c 1
 975 -30 806 224 815 640 c 1
755 754 m 17
 757 755 l 1
 848 742 860 735 860 728 c 0
 860 723 855 717 820 707 c 9
 820 690 l 18
 820 370 710 -25 350 -145 c 1
 339 -128 l 1
 665 10 760 400 760 705 c 9
 755 754 l 17
585 175 m 1
 595 185 l 1
 605 180 l 1
 655 35 800 -70 930 -100 c 1
 930 -115 l 1
 900 -115 875 -135 870 -165 c 1
 750 -100 625 10 585 175 c 1
62 -145 m 1
 58 -136 l 1
 141 -88 l 1
 214 -32 l 1
 278 33 l 1
 332 105 l 1
 379 187 l 1
 416 279 l 1
 445 380 l 1
 465 490 l 1
 477 611 l 1
 480 736 l 1
 480 754 l 1
 544 741 l 1
 560 730 l 1
 544 721 l 1
 553 613 l 1
 568 500 l 1
 592 396 l 1
 622 301 l 1
 659 216 l 1
 704 140 l 1
 757 73 l 1
 816 15 l 1
 883 -35 l 1
 958 -76 l 1
 987 -91 l 1
 926 -140 l 1
 845 -91 l 1
 774 -32 l 1
 711 35 l 1
 658 110 l 1
 614 194 l 1
 579 287 l 1
 554 387 l 1
 537 495 l 1
 533 567 l 1
 522 481 l 1
 497 366 l 1
 463 262 l 1
 419 166 l 1
 366 82 l 1
 303 8 l 1
 232 -55 l 1
 151 -106 l 1
 62 -145 l 1
EndSplineSet
EndChar

StartChar: uni513F
Encoding: 20799 20799 35
Width: 1000
Flags: HM
LayerCount: 2
Back
SplineSet
51 -166 m 1
 48 -157 l 1
 111 -130 l 1
 166 -99 l 1
 214 -63 l 1
 255 -22 l 1
 289 23 l 1
 316 74 l 1
 337 130 l 1
 351 192 l 1
 359 259 l 1
 361 333 l 1
 361 720 l 1
 426 709 l 1
 442 698 l 1
 426 688 l 1
 426 333 l 1
 421 254 l 1
 408 180 l 1
 388 113 l 1
 361 51 l 1
 326 -3 l 1
 285 -50 l 1
 236 -91 l 1
 180 -123 l 1
 118 -149 l 1
 51 -166 l 1
684 -135 m 1
 670 -134 l 1
 657 -132 l 1
 644 -128 l 1
 631 -121 l 1
 621 -112 l 1
 612 -101 l 1
 605 -89 l 1
 601 -76 l 1
 599 -63 l 1
 598 -49 l 1
 598 725 l 1
 663 714 l 1
 679 703 l 1
 663 694 l 1
 663 -56 l 1
 664 -60 l 1
 665 -65 l 1
 667 -67 l 1
 672 -69 l 1
 677 -70 l 1
 684 -71 l 1
 927 -71 l 1
 958 64 l 1
 969 64 l 1
 959 -71 l 1
 978 -84 l 1
 990 -103 l 1
 978 -122 l 1
 958 -135 l 1
 684 -135 l 1
EndSplineSet
EndChar

StartChar: uni5165
Encoding: 20837 20837 36
Width: 1000
Flags: HM
LayerCount: 2
Back
SplineSet
1132 410 m 17
 1045 185 895 -20 640 -145 c 1
 632 -133 l 1
 880 25 1050 305 1110 555 c 9
 1132 410 l 17
1122 670 m 1
 1142 315 1310 55 1540 -70 c 1
 1540 -85 l 1
 1520 -85 1493 -105 1485 -135 c 1
 1215 55 1105 305 1100 675 c 1
 905 675 l 1
 835 670 l 1
 835 710 l 1
 905 705 l 1
 1078 705 l 1
 1098 740 l 1
 1100 740 l 1
 1137 712 1155 695 1155 688 c 0
 1155 683 1142 677 1122 670 c 1
46 -144 m 1
 42 -136 l 1
 105 -92 l 1
 165 -46 l 1
 220 3 l 1
 271 55 l 1
 318 109 l 1
 361 168 l 1
 400 229 l 1
 435 294 l 1
 465 363 l 1
 484 412 l 1
 483 414 l 1
 487 422 l 1
 490 431 l 1
 498 452 l 1
 520 525 l 1
 522 537 l 1
 517 579 l 1
 518 677 l 1
 275 677 l 1
 275 698 l 1
 485 698 l 1
 539 752 l 1
 603 698 l 1
 603 677 l 1
 528 677 l 1
 540 581 l 1
 559 485 l 1
 586 393 l 1
 620 306 l 1
 661 225 l 1
 708 150 l 1
 762 83 l 1
 821 23 l 1
 885 -29 l 1
 954 -72 l 1
 979 -86 l 1
 919 -134 l 1
 845 -83 l 1
 777 -23 l 1
 716 44 l 1
 663 120 l 1
 617 201 l 1
 579 289 l 1
 549 382 l 1
 546 397 l 1
 522 338 l 1
 486 268 l 1
 446 201 l 1
 402 138 l 1
 353 80 l 1
 300 26 l 1
 243 -24 l 1
 182 -69 l 1
 116 -109 l 1
 46 -144 l 1
EndSplineSet
EndChar

StartChar: uni5196
Encoding: 20886 20886 37
Width: 1000
Flags: HM
LayerCount: 2
Back
SplineSet
890 424 m 1
 893 428 l 1
 894 427 l 1
 922 451 l 1
 981 402 l 1
 954 386 l 1
 937 379 l 1
 922 358 l 1
 870 293 l 1
 821 238 l 1
 813 244 l 1
 824 267 l 1
 862 349 l 1
 877 384 l 1
 883 400 l 1
 884 402 l 1
 167 402 l 1
 168 383 l 1
 166 352 l 1
 162 324 l 1
 156 298 l 1
 148 273 l 1
 137 252 l 1
 124 232 l 1
 107 215 l 1
 84 209 l 1
 62 221 l 1
 56 245 l 1
 68 266 l 1
 79 273 l 1
 90 284 l 1
 100 298 l 1
 110 315 l 1
 118 336 l 1
 127 360 l 1
 134 387 l 1
 139 417 l 1
 145 451 l 1
 150 488 l 1
 159 489 l 1
 165 451 l 1
 167 424 l 1
 890 424 l 1
EndSplineSet
EndChar

StartChar: uni51AB
Encoding: 20907 20907 38
Width: 1000
Flags: HM
LayerCount: 2
Back
SplineSet
451 -124 m 1
 430 -112 l 1
 423 -88 l 1
 427 -59 l 1
 428 -31 l 1
 426 -4 l 1
 421 23 l 1
 413 51 l 1
 401 78 l 1
 385 106 l 1
 366 134 l 1
 344 162 l 1
 318 191 l 1
 325 199 l 1
 358 177 l 1
 388 153 l 1
 403 137 l 1
 456 204 l 1
 510 281 l 1
 677 545 l 1
 685 540 l 1
 629 414 l 1
 575 306 l 1
 501 173 l 1
 456 104 l 1
 443 87 l 1
 454 70 l 1
 468 39 l 1
 479 7 l 1
 486 -27 l 1
 488 -61 l 1
 487 -96 l 1
 474 -117 l 1
 451 -124 l 1
529 514 m 1
 509 529 l 1
 502 543 l 1
 494 557 l 1
 484 571 l 1
 472 585 l 1
 459 598 l 1
 445 612 l 1
 392 652 l 1
 370 665 l 1
 374 674 l 1
 422 661 l 1
 444 652 l 1
 465 643 l 1
 485 633 l 1
 503 621 l 1
 521 608 l 1
 537 594 l 1
 551 579 l 1
 565 562 l 1
 568 538 l 1
 554 518 l 1
 529 514 l 1
EndSplineSet
EndChar

StartChar: uni51E0
Encoding: 20960 20960 39
Width: 1000
Flags: HM
LayerCount: 2
Back
SplineSet
57 -150 m 1
 53 -141 l 1
 98 -115 l 1
 137 -85 l 1
 171 -51 l 1
 200 -14 l 1
 224 28 l 1
 244 75 l 1
 259 126 l 1
 269 183 l 1
 274 244 l 1
 275 311 l 1
 275 730 l 1
 340 698 l 1
 663 698 l 1
 695 725 l 1
 754 677 l 1
 727 655 l 1
 727 -29 l 1
 728 -34 l 1
 730 -38 l 1
 732 -41 l 1
 737 -42 l 1
 742 -43 l 1
 749 -44 l 1
 916 -44 l 1
 947 91 l 1
 958 91 l 1
 948 -44 l 1
 967 -57 l 1
 980 -76 l 1
 967 -95 l 1
 947 -108 l 1
 749 -108 l 1
 735 -107 l 1
 721 -105 l 1
 708 -101 l 1
 696 -94 l 1
 685 -85 l 1
 677 -74 l 1
 670 -62 l 1
 665 -49 l 1
 663 -36 l 1
 663 -22 l 1
 663 677 l 1
 340 677 l 1
 340 311 l 1
 336 240 l 1
 326 173 l 1
 311 112 l 1
 291 56 l 1
 264 6 l 1
 233 -38 l 1
 196 -77 l 1
 154 -108 l 1
 108 -132 l 1
 57 -150 l 1
EndSplineSet
EndChar

StartChar: uni5202
Encoding: 20994 20994 40
Width: 1000
Flags: HM
LayerCount: 2
Back
SplineSet
582 -162 m 1
 582 -130 l 1
 474 -114 l 1
 474 -98 l 1
 582 -98 l 1
 588 -97 l 1
 593 -96 l 1
 598 -94 l 1
 600 -92 l 1
 602 -87 l 1
 603 -82 l 1
 603 -76 l 1
 603 773 l 1
 668 763 l 1
 684 752 l 1
 668 742 l 1
 668 -76 l 1
 667 -89 l 1
 665 -103 l 1
 660 -116 l 1
 653 -128 l 1
 645 -139 l 1
 634 -148 l 1
 622 -155 l 1
 609 -159 l 1
 595 -161 l 1
 582 -162 l 1
351 15 m 1
 351 693 l 1
 415 682 l 1
 431 671 l 1
 415 662 l 1
 415 48 l 1
 351 15 l 1
EndSplineSet
EndChar

StartChar: uni53E3
Encoding: 21475 21475 41
Width: 1000
Flags: HM
LayerCount: 2
Back
SplineSet
168 -87 m 1
 168 644 l 1
 232 612 l 1
 792 612 l 1
 824 639 l 1
 883 591 l 1
 856 569 l 1
 856 -22 l 1
 792 -55 l 1
 792 10 l 1
 232 10 l 1
 232 -55 l 1
 168 -87 l 1
232 31 m 1
 792 31 l 1
 792 591 l 1
 232 591 l 1
 232 31 l 1
EndSplineSet
EndChar

StartChar: uni5C71
Encoding: 23665 23665 42
Width: 1000
Flags: HM
LayerCount: 2
Back
SplineSet
125 -146 m 1
 125 542 l 1
 189 531 l 1
 206 521 l 1
 189 511 l 1
 189 -28 l 1
 480 -28 l 1
 480 757 l 1
 544 747 l 1
 560 736 l 1
 544 726 l 1
 544 -28 l 1
 835 -28 l 1
 835 542 l 1
 899 531 l 1
 915 521 l 1
 899 511 l 1
 899 -81 l 1
 835 -114 l 1
 835 -49 l 1
 189 -49 l 1
 189 -114 l 1
 125 -146 l 1
EndSplineSet
EndChar

StartChar: uni65E5
Encoding: 26085 26085 43
Width: 1000
Flags: HMW
LayerCount: 2
Back
SplineSet
755 305 m 1
 250 305 l 1
 250 -35 l 1
 755 -35 l 1
 755 305 l 1
755 335 m 1
 755 660 l 1
 250 660 l 1
 250 335 l 1
 755 335 l 1
755 -65 m 1
 250 -65 l 1
 250 -135 l 1
 195 -145 l 1
 190 -145 l 1
 190 723 l 1
 192 723 l 1
 260 690 l 1
 750 690 l 1
 773 725 l 1
 775 725 l 1
 820 695 845 675 845 668 c 0
 845 663 835 656 815 645 c 1
 815 -125 l 1
 760 -135 l 1
 755 -135 l 1
 755 -65 l 1
EndSplineSet
Fore
SplineSet
718 690 m 1
 753 733 l 1
 756 733 l 1
 815 695 847 670 847 660 c 0
 847 655 835 645 815 635 c 1
 815 -15 l 1
 818 -130 l 1
 740 -145 l 1
 722 -145 l 1
 725 -65 l 1
 280 -65 l 1
 283 -130 l 1
 205 -145 l 1
 187 -145 l 1
 190 -15 l 1
 190 655 l 1
 185 730 l 1
 187 730 l 1
 290 690 l 1
 718 690 l 1
280 335 m 1
 725 335 l 1
 725 660 l 1
 280 660 l 1
 280 335 l 1
280 305 m 1
 280 -35 l 1
 725 -35 l 1
 725 305 l 1
 280 305 l 1
EndSplineSet
EndChar

StartChar: uni65E9
Encoding: 26089 26089 44
Width: 1000
Flags: HM
LayerCount: 2
Back
SplineSet
480 -167 m 1
 480 139 l 1
 50 139 l 1
 50 161 l 1
 480 161 l 1
 480 322 l 1
 254 322 l 1
 254 257 l 1
 189 225 l 1
 189 741 l 1
 254 709 l 1
 770 709 l 1
 802 736 l 1
 861 687 l 1
 835 666 l 1
 835 290 l 1
 770 257 l 1
 770 322 l 1
 544 322 l 1
 544 161 l 1
 856 161 l 1
 910 214 l 1
 974 161 l 1
 974 139 l 1
 544 139 l 1
 544 -135 l 1
 480 -167 l 1
254 343 m 1
 770 343 l 1
 770 510 l 1
 254 510 l 1
 254 343 l 1
254 531 m 1
 770 531 l 1
 770 687 l 1
 254 687 l 1
 254 531 l 1
EndSplineSet
EndChar

StartChar: uni51FA
Encoding: 20986 20986 45
Width: 1000
Flags: HM
LayerCount: 2
Back
SplineSet
109 -162 m 1
 109 263 l 1
 173 252 l 1
 189 241 l 1
 173 231 l 1
 173 -44 l 1
 480 -44 l 1
 480 370 l 1
 222 370 l 1
 222 354 l 1
 157 322 l 1
 157 682 l 1
 222 671 l 1
 238 660 l 1
 222 651 l 1
 222 392 l 1
 480 392 l 1
 480 757 l 1
 544 747 l 1
 560 736 l 1
 544 726 l 1
 544 392 l 1
 802 392 l 1
 802 682 l 1
 867 671 l 1
 883 660 l 1
 867 651 l 1
 867 359 l 1
 802 327 l 1
 802 370 l 1
 544 370 l 1
 544 -44 l 1
 851 -44 l 1
 851 263 l 1
 915 252 l 1
 931 241 l 1
 915 231 l 1
 915 -98 l 1
 851 -130 l 1
 851 -65 l 1
 173 -65 l 1
 173 -130 l 1
 109 -162 l 1
EndSplineSet
EndChar

StartChar: uni51F8
Encoding: 20984 20984 46
Width: 1000
Flags: HM
LayerCount: 2
Back
SplineSet
93 -173 m 1
 93 386 l 1
 157 354 l 1
 335 354 l 1
 335 730 l 1
 399 698 l 1
 625 698 l 1
 657 725 l 1
 716 677 l 1
 689 655 l 1
 689 354 l 1
 867 354 l 1
 899 381 l 1
 958 333 l 1
 931 311 l 1
 931 -108 l 1
 867 -141 l 1
 867 -76 l 1
 157 -76 l 1
 157 -141 l 1
 93 -173 l 1
157 -55 m 1
 867 -55 l 1
 867 333 l 1
 689 333 l 1
 689 300 l 1
 625 268 l 1
 625 677 l 1
 399 677 l 1
 399 300 l 1
 335 268 l 1
 335 333 l 1
 157 333 l 1
 157 -55 l 1
EndSplineSet
EndChar

StartChar: uni51F9
Encoding: 20985 20985 47
Width: 1000
Flags: HM
LayerCount: 2
Back
SplineSet
93 -162 m 1
 93 725 l 1
 157 693 l 1
 351 693 l 1
 383 720 l 1
 442 671 l 1
 415 650 l 1
 415 316 l 1
 609 316 l 1
 609 725 l 1
 673 693 l 1
 867 693 l 1
 899 720 l 1
 958 671 l 1
 931 650 l 1
 931 -98 l 1
 867 -130 l 1
 867 -65 l 1
 157 -65 l 1
 157 -130 l 1
 93 -162 l 1
157 -44 m 1
 867 -44 l 1
 867 671 l 1
 673 671 l 1
 673 263 l 1
 609 230 l 1
 609 295 l 1
 415 295 l 1
 415 230 l 1
 351 198 l 1
 351 671 l 1
 157 671 l 1
 157 -44 l 1
EndSplineSet
EndChar

StartChar: uni5206
Encoding: 20998 20998 48
Width: 1000
Flags: HM
LayerCount: 2
Back
SplineSet
41 -161 m 1
 38 -151 l 1
 107 -124 l 1
 168 -93 l 1
 221 -57 l 1
 267 -18 l 1
 306 27 l 1
 337 76 l 1
 362 130 l 1
 380 189 l 1
 391 253 l 1
 394 311 l 1
 201 311 l 1
 201 333 l 1
 706 333 l 1
 739 360 l 1
 798 311 l 1
 771 295 l 1
 771 269 l 1
 770 218 l 1
 769 171 l 1
 766 126 l 1
 762 84 l 1
 757 45 l 1
 751 9 l 1
 743 -23 l 1
 734 -54 l 1
 725 -81 l 1
 719 -93 l 1
 712 -105 l 1
 703 -115 l 1
 694 -125 l 1
 683 -133 l 1
 672 -140 l 1
 660 -144 l 1
 647 -148 l 1
 634 -150 l 1
 620 -151 l 1
 620 -119 l 1
 513 -103 l 1
 513 -86 l 1
 620 -86 l 1
 627 -86 l 1
 634 -85 l 1
 639 -83 l 1
 643 -82 l 1
 648 -79 l 1
 651 -76 l 1
 655 -73 l 1
 658 -68 l 1
 662 -63 l 1
 665 -56 l 1
 673 -34 l 1
 681 -8 l 1
 687 22 l 1
 693 55 l 1
 698 91 l 1
 701 131 l 1
 704 174 l 1
 706 220 l 1
 706 268 l 1
 706 311 l 1
 457 311 l 1
 451 245 l 1
 436 174 l 1
 412 110 l 1
 381 51 l 1
 341 -2 l 1
 294 -48 l 1
 241 -86 l 1
 181 -119 l 1
 114 -143 l 1
 41 -161 l 1
31 275 m 1
 26 283 l 1
 71 320 l 1
 113 358 l 1
 151 396 l 1
 188 436 l 1
 221 478 l 1
 252 522 l 1
 280 567 l 1
 305 615 l 1
 327 664 l 1
 344 711 l 1
 349 723 l 1
 406 693 l 1
 418 678 l 1
 398 674 l 1
 383 639 l 1
 356 588 l 1
 326 539 l 1
 293 493 l 1
 257 449 l 1
 218 408 l 1
 176 370 l 1
 131 335 l 1
 83 303 l 1
 31 275 l 1
920 302 m 1
 869 336 l 1
 822 372 l 1
 778 412 l 1
 738 454 l 1
 700 500 l 1
 667 549 l 1
 636 600 l 1
 610 654 l 1
 587 712 l 1
 569 773 l 1
 578 776 l 1
 607 721 l 1
 637 669 l 1
 669 621 l 1
 703 575 l 1
 739 532 l 1
 778 493 l 1
 818 456 l 1
 861 422 l 1
 907 392 l 1
 979 350 l 1
 920 302 l 1
EndSplineSet
EndChar

StartChar: uni5DE8
Encoding: 24040 24040 49
Width: 1000
Flags: HM
LayerCount: 2
Back
SplineSet
114 -173 m 1
 114 725 l 1
 179 693 l 1
 818 693 l 1
 872 747 l 1
 937 693 l 1
 937 671 l 1
 179 671 l 1
 179 467 l 1
 759 467 l 1
 792 494 l 1
 851 445 l 1
 824 424 l 1
 824 139 l 1
 759 107 l 1
 759 171 l 1
 179 171 l 1
 179 -55 l 1
 845 -55 l 1
 899 -1 l 1
 964 -55 l 1
 964 -76 l 1
 179 -76 l 1
 179 -141 l 1
 114 -173 l 1
179 193 m 1
 759 193 l 1
 759 445 l 1
 179 445 l 1
 179 193 l 1
EndSplineSet
EndChar

StartChar: uni5DF1
Encoding: 24049 24049 50
Width: 1000
Flags: HM
LayerCount: 2
Back
SplineSet
243 -92 m 1
 229 -91 l 1
 216 -89 l 1
 203 -85 l 1
 191 -78 l 1
 180 -69 l 1
 171 -58 l 1
 164 -46 l 1
 160 -33 l 1
 158 -20 l 1
 157 -6 l 1
 157 419 l 1
 222 386 l 1
 781 386 l 1
 781 671 l 1
 109 671 l 1
 109 693 l 1
 781 693 l 1
 813 720 l 1
 872 671 l 1
 845 650 l 1
 845 333 l 1
 781 300 l 1
 781 365 l 1
 222 365 l 1
 222 -13 l 1
 223 -17 l 1
 224 -22 l 1
 227 -24 l 1
 231 -26 l 1
 236 -27 l 1
 243 -28 l 1
 889 -28 l 1
 921 107 l 1
 931 107 l 1
 921 -28 l 1
 940 -41 l 1
 953 -60 l 1
 940 -79 l 1
 921 -92 l 1
 243 -92 l 1
EndSplineSet
EndChar

StartChar: uni7247
Encoding: 29255 29255 51
Width: 1000
Flags: HM
LayerCount: 2
Back
SplineSet
275 338 m 1
 275 83 240 -50 55 -155 c 1
 44 -140 l 1
 190 -25 215 108 215 348 c 1
 215 710 l 1
 210 759 l 1
 212 760 l 1
 303 747 315 740 315 733 c 0
 315 728 310 722 275 712 c 1
 275 338 l 1
646 -157 m 1
 646 257 l 1
 281 257 l 1
 281 252 l 1
 280 251 l 1
 275 193 l 1
 265 138 l 1
 251 87 l 1
 233 39 l 1
 211 -5 l 1
 185 -44 l 1
 154 -79 l 1
 121 -109 l 1
 82 -135 l 1
 41 -155 l 1
 36 -147 l 1
 71 -118 l 1
 101 -88 l 1
 128 -56 l 1
 151 -21 l 1
 170 17 l 1
 186 57 l 1
 199 101 l 1
 208 149 l 1
 214 199 l 1
 216 252 l 1
 216 768 l 1
 281 757 l 1
 297 747 l 1
 281 737 l 1
 281 488 l 1
 566 488 l 1
 566 768 l 1
 630 757 l 1
 646 747 l 1
 630 737 l 1
 630 488 l 1
 867 488 l 1
 921 542 l 1
 985 488 l 1
 985 467 l 1
 281 467 l 1
 281 279 l 1
 646 279 l 1
 679 306 l 1
 738 257 l 1
 711 236 l 1
 711 -124 l 1
 646 -157 l 1
EndSplineSet
EndChar

StartChar: uni5F15
Encoding: 24341 24341 52
Width: 1000
Flags: HM
LayerCount: 2
Back
SplineSet
1340 -115 m 0
 1315 -140 1280 -145 1220 -150 c 1
 1220 -100 1190 -90 1120 -85 c 1
 1120 -63 l 1
 1170 -67 1255 -72 1270 -72 c 0
 1282 -72 1286 -71 1290 -67 c 0
 1342 -15 1375 125 1375 245 c 1
 1075 245 l 1
 1080 275 l 1
 1370 275 l 1
 1393 310 l 1
 1395 310 l 1
 1440 280 1465 260 1465 253 c 0
 1465 248 1455 241 1435 230 c 1
 1435 95 1395 -60 1340 -115 c 0
1695 -145 m 1
 1695 695 l 1
 1690 744 l 1
 1692 745 l 1
 1783 732 1795 725 1795 718 c 0
 1795 713 1790 707 1755 697 c 1
 1755 -135 l 1
 1700 -145 l 1
 1695 -145 l 1
1085 700 m 1
 1365 700 l 1
 1388 735 l 1
 1390 735 l 1
 1435 705 1460 685 1460 678 c 0
 1460 673 1450 666 1430 655 c 1
 1430 430 l 1
 1375 420 l 1
 1370 420 l 1
 1370 455 l 1
 1142 455 l 1
 1096 181 l 1
 1040 179 l 1
 1035 180 l 1
 1085 525 l 1
 1087 525 l 1
 1150 485 l 1
 1370 485 l 1
 1370 670 l 1
 1085 670 l 1
 1015 665 l 1
 1015 705 l 1
 1085 700 l 1
208.747 497.86 m 1
 146 540 l 1
 144.02 540.278 l 1
 94.9072 190.712 l 1
 99.8584 190.016 l 1
 155.715 192.267 l 1
 194.671 469.543 l 1
305 500 m 1
 237 533 l 1
 235 533 l 1
 235 180 l 1
 240 180 l 1
 295 190 l 1
 295 470 l 1
765 -162 m 1
 765 747 l 1
 829 736 l 1
 845 725 l 1
 829 715 l 1
 829 -130 l 1
 765 -162 l 1
299 -162 m 1
 299 -130 l 1
 213 -114 l 1
 213 -98 l 1
 299 -98 l 1
 307 -97 l 1
 314 -96 l 1
 321 -94 l 1
 327 -93 l 1
 332 -90 l 1
 338 -87 l 1
 343 -83 l 1
 348 -79 l 1
 353 -73 l 1
 370 -48 l 1
 381 -25 l 1
 392 0 l 1
 401 29 l 1
 409 62 l 1
 416 98 l 1
 422 137 l 1
 427 179 l 1
 430 226 l 1
 432 263 l 1
 167 263 l 1
 156 194 l 1
 86 173 l 1
 146 531 l 1
 197 494 l 1
 425 494 l 1
 425 693 l 1
 73 693 l 1
 73 714 l 1
 425 714 l 1
 458 741 l 1
 517 693 l 1
 490 671 l 1
 490 440 l 1
 425 408 l 1
 425 472 l 1
 202 472 l 1
 171 284 l 1
 432 284 l 1
 465 311 l 1
 524 263 l 1
 497 247 l 1
 495 246 l 1
 495 222 l 1
 491 174 l 1
 486 129 l 1
 480 87 l 1
 472 48 l 1
 463 12 l 1
 452 -22 l 1
 440 -52 l 1
 426 -80 l 1
 410 -105 l 1
 393 -125 l 1
 384 -134 l 1
 373 -141 l 1
 361 -148 l 1
 350 -152 l 1
 338 -157 l 1
 325 -159 l 1
 312 -161 l 1
 299 -162 l 1
EndSplineSet
EndChar

StartChar: uni5149
Encoding: 20809 20809 53
Width: 1000
Flags: HM
LayerCount: 2
Back
SplineSet
595 420 m 1
 700 520 780 640 810 730 c 1
 873 700 895 686 895 676 c 0
 895 669 880 667 855 667 c 1
 805 580 726 486 607 409 c 1
 595 420 l 1
660 -23 m 2
 660 -53 670 -63 760 -63 c 2
 800 -63 l 2
 850 -63 885 -58 895 -48 c 0
 905 -38 920 7 930 57 c 1
 945 52 l 1
 942 22 940 -23 940 -38 c 0
 940 -53 965 -58 965 -78 c 0
 965 -103 925 -123 795 -123 c 2
 745 -123 l 2
 615 -123 600 -108 600 -28 c 2
 600 295 l 1
 595 344 l 1
 597 345 l 1
 688 332 700 325 700 318 c 0
 700 313 695 307 660 297 c 1
 660 -23 l 2
372 345 m 1
 440 334 469 325 469 316 c 0
 469 310 460 305 433 297 c 1
 428 102 340 -90 55 -160 c 1
 49 -143 l 1
 305 -50 370 135 372 345 c 1
51 -156 m 1
 48 -146 l 1
 113 -119 l 1
 170 -88 l 1
 220 -52 l 1
 262 -12 l 1
 297 33 l 1
 325 83 l 1
 347 138 l 1
 362 199 l 1
 370 266 l 1
 372 333 l 1
 372 351 l 1
 437 338 l 1
 453 327 l 1
 435 316 l 1
 431 259 l 1
 418 187 l 1
 397 120 l 1
 370 60 l 1
 334 6 l 1
 291 -41 l 1
 241 -80 l 1
 184 -113 l 1
 121 -138 l 1
 51 -156 l 1
684 -114 m 1
 670 -113 l 1
 657 -110 l 1
 644 -106 l 1
 631 -99 l 1
 621 -91 l 1
 612 -80 l 1
 605 -67 l 1
 601 -55 l 1
 599 -41 l 1
 598 -28 l 1
 598 349 l 1
 663 338 l 1
 679 327 l 1
 663 318 l 1
 663 -34 l 1
 664 -39 l 1
 665 -44 l 1
 667 -46 l 1
 672 -48 l 1
 677 -49 l 1
 684 -49 l 1
 911 -49 l 1
 942 85 l 1
 953 85 l 1
 943 -49 l 1
 961 -62 l 1
 974 -81 l 1
 961 -101 l 1
 942 -114 l 1
 684 -114 l 1
60 359 m 1
 60 381 l 1
 480 381 l 1
 480 768 l 1
 544 757 l 1
 560 747 l 1
 544 737 l 1
 544 381 l 1
 845 381 l 1
 899 435 l 1
 964 381 l 1
 964 359 l 1
 60 359 l 1
633 411 m 1
 627 416 l 1
 744 599 l 1
 794 683 l 1
 807 706 l 1
 812 715 l 1
 864 677 l 1
 872 659 l 1
 852 659 l 1
 806 597 l 1
 739 516 l 1
 689 462 l 1
 662 436 l 1
 633 411 l 1
329 447 m 1
 304 449 l 1
 288 467 l 1
 281 491 l 1
 272 515 l 1
 261 539 l 1
 250 563 l 1
 222 609 l 1
 168 678 l 1
 148 702 l 1
 153 709 l 1
 181 693 l 1
 207 676 l 1
 231 656 l 1
 253 635 l 1
 273 613 l 1
 292 590 l 1
 309 565 l 1
 324 541 l 1
 337 514 l 1
 349 487 l 1
 347 463 l 1
 329 447 l 1
EndSplineSet
EndChar

StartChar: uni5927
Encoding: 22823 22823 54
Width: 1000
Flags: HM
LayerCount: 2
Back
SplineSet
1515 440 m 1
 1525 450 l 1
 1535 445 l 1
 1585 180 1775 -5 1945 -65 c 1
 1945 -80 l 1
 1915 -80 1890 -100 1885 -130 c 1
 1725 -35 1555 145 1515 440 c 1
1920 445 m 1
 1130 445 l 1
 1060 440 l 1
 1060 480 l 1
 1130 475 l 1
 1805 475 l 1
 1845 535 l 1
 1847 535 l 1
 1920 465 l 1
 1920 445 l 1
1530 505 m 2
 1530 205 1335 -65 1050 -145 c 1
 1044 -128 l 1
 1300 -25 1470 229 1470 515 c 10
 1470 695 l 17
 1465 744 l 1
 1467 745 l 1
 1558 732 1570 725 1570 718 c 0
 1570 713 1565 707 1530 697 c 1
 1530 505 l 2
500 120 m 1
 510 130 l 1
 520 125 l 1
 570 -20 715 -125 845 -155 c 1
 845 -170 l 1
 815 -170 790 -190 785 -220 c 1
 665 -155 540 -45 500 120 c 1
51 -150 m 1
 48 -141 l 1
 132 -98 l 1
 208 -49 l 1
 273 6 l 1
 330 67 l 1
 377 135 l 1
 415 211 l 1
 444 293 l 1
 465 383 l 1
 472 445 l 1
 66 445 l 1
 66 467 l 1
 475 467 l 1
 477 480 l 1
 480 585 l 1
 480 768 l 1
 544 757 l 1
 560 747 l 1
 544 737 l 1
 544 585 l 1
 538 475 l 1
 537 467 l 1
 840 467 l 1
 894 521 l 1
 958 467 l 1
 958 445 l 1
 546 445 l 1
 567 378 l 1
 592 308 l 1
 621 244 l 1
 654 185 l 1
 691 131 l 1
 732 81 l 1
 778 36 l 1
 828 -4 l 1
 883 -39 l 1
 970 -86 l 1
 910 -134 l 1
 847 -96 l 1
 789 -54 l 1
 737 -7 l 1
 691 45 l 1
 650 102 l 1
 615 163 l 1
 586 229 l 1
 562 298 l 1
 545 372 l 1
 535 445 l 1
 533 445 l 1
 522 372 l 1
 496 277 l 1
 460 190 l 1
 415 111 l 1
 361 41 l 1
 297 -21 l 1
 224 -73 l 1
 142 -116 l 1
 51 -150 l 1
EndSplineSet
EndChar

StartChar: uni706B
Encoding: 28779 28779 55
Width: 1000
Flags: HM
LayerCount: 2
Back
SplineSet
56 -150 m 1
 53 -141 l 1
 137 -100 l 1
 210 -49 l 1
 275 13 l 1
 331 84 l 1
 377 166 l 1
 415 259 l 1
 444 364 l 1
 465 480 l 1
 477 607 l 1
 480 741 l 1
 480 759 l 1
 544 747 l 1
 560 736 l 1
 543 726 l 1
 540 649 l 1
 549 551 l 1
 564 445 l 1
 587 349 l 1
 603 301 l 1
 728 423 l 1
 827 528 l 1
 850 555 l 1
 852 557 l 1
 897 512 l 1
 902 492 l 1
 882 497 l 1
 817 436 l 1
 728 365 l 1
 664 321 l 1
 608 287 l 1
 616 262 l 1
 652 184 l 1
 695 116 l 1
 745 57 l 1
 801 6 l 1
 864 -36 l 1
 935 -70 l 1
 968 -85 l 1
 906 -135 l 1
 829 -94 l 1
 761 -43 l 1
 701 16 l 1
 650 85 l 1
 608 162 l 1
 574 247 l 1
 549 340 l 1
 533 441 l 1
 528 519 l 1
 522 471 l 1
 497 351 l 1
 462 242 l 1
 418 145 l 1
 364 60 l 1
 301 -12 l 1
 228 -72 l 1
 146 -118 l 1
 56 -150 l 1
142 208 m 1
 122 222 l 1
 118 247 l 1
 132 266 l 1
 154 281 l 1
 174 298 l 1
 193 319 l 1
 209 343 l 1
 224 371 l 1
 236 403 l 1
 246 438 l 1
 254 478 l 1
 260 522 l 1
 265 569 l 1
 275 570 l 1
 281 521 l 1
 283 476 l 1
 281 433 l 1
 275 393 l 1
 266 355 l 1
 254 321 l 1
 238 288 l 1
 217 260 l 1
 194 234 l 1
 166 212 l 1
 142 208 l 1
EndSplineSet
EndChar

StartChar: uni4ECA
Encoding: 20170 20170 56
Width: 1000
Flags: HM
LayerCount: 2
Back
SplineSet
759.829 137.366 m 17
 635.426 -148.759 l 1
 581 -136 l 1
 576.415 -134.007 l 1
 704.007 159.456 l 9
 731.958 156.027 l 25
 759.829 137.366 l 17
354 176 m 17
 354 -136 l 1
 299 -146 l 1
 294 -146 l 1
 294 174 l 9
 321 182 l 25
 354 176 l 17
645 765 m 1
 655 775 l 1
 665 770 l 1
 715 625 860 520 990 490 c 1
 990 475 l 1
 960 475 935 455 930 425 c 1
 810 490 685 600 645 765 c 1
245 465 m 1
 350 565 430 685 460 775 c 1
 523 745 545 731 545 721 c 0
 545 714 530 712 505 712 c 1
 455 625 376 531 257 454 c 1
 245 465 l 1
638 -137 m 1
 566 -136 l 1
 739 198 l 1
 195 198 l 1
 195 220 l 1
 749 220 l 1
 781 247 l 1
 840 198 l 1
 813 182 l 1
 796 175 l 1
 638 -137 l 1
52 259 m 1
 46 267 l 1
 102 313 l 1
 154 359 l 1
 204 406 l 1
 250 455 l 1
 294 504 l 1
 334 555 l 1
 371 607 l 1
 406 660 l 1
 436 716 l 1
 464 772 l 1
 467 778 l 1
 522 744 l 1
 532 727 l 1
 512 726 l 1
 503 710 l 1
 572 633 l 1
 615 590 l 1
 659 550 l 1
 703 514 l 1
 749 480 l 1
 796 451 l 1
 844 424 l 1
 893 401 l 1
 980 368 l 1
 918 316 l 1
 865 341 l 1
 814 369 l 1
 764 401 l 1
 716 436 l 1
 671 475 l 1
 628 517 l 1
 586 563 l 1
 547 613 l 1
 511 666 l 1
 495 695 l 1
 454 630 l 1
 415 576 l 1
 373 523 l 1
 328 473 l 1
 279 426 l 1
 228 380 l 1
 173 337 l 1
 114 297 l 1
 52 259 l 1
292 359 m 1
 292 381 l 1
 593 381 l 1
 646 435 l 1
 711 381 l 1
 711 359 l 1
 292 359 l 1
EndSplineSet
EndChar

StartChar: uni53E5
Encoding: 21477 21477 57
Width: 1000
Flags: HMW
LayerCount: 2
Back
SplineSet
1240 770 m 1
 1337 740 1373 726 1373 715 c 0
 1373 706 1358 700 1330 694 c 1
 1290 565 1190 390 1053 262 c 1
 1040 275 l 1
 1150 450 1225 650 1240 770 c 1
1725 -45 m 0
 1790 20 1820 340 1820 585 c 1
 1246 585 l 1
 1256 615 l 1
 1813 615 l 1
 1848 658 l 1
 1851 658 l 1
 1910 620 1942 595 1942 585 c 0
 1942 580 1930 570 1910 560 c 1
 1910 310 1880 -30 1790 -120 c 0
 1770 -140 1740 -155 1640 -165 c 1
 1640 -105 1610 -80 1530 -72 c 1
 1530 -50 l 1
 1575 -54 1665 -60 1685 -60 c 0
 1702 -60 1715 -55 1725 -45 c 0
1565 120 m 1
 1385 120 l 1
 1386 60 l 1
 1310 45 l 1
 1292 45 l 1
 1295 175 l 1
 1295 400 l 1
 1290 475 l 1
 1292 475 l 1
 1395 435 l 1
 1558 435 l 1
 1593 478 l 1
 1596 478 l 1
 1655 440 1687 415 1687 405 c 0
 1687 400 1675 390 1655 380 c 1
 1655 195 l 1
 1658 80 l 1
 1580 65 l 1
 1564 65 l 1
 1565 120 l 1
1565 150 m 1
 1565 405 l 1
 1385 405 l 1
 1385 150 l 1
 1565 150 l 1
730 155 m 1
 820 155 l 1
 820 -45 l 2
 820 -125 795 -150 650 -165 c 1
 650 -105 640 -85 550 -72 c 1
 550 -50 l 1
 590 -54 675 -60 695 -60 c 0
 720 -60 730 -50 730 -33 c 2
 730 155 l 1
790 -125 m 0
 765 -150 730 -155 670 -160 c 1
 670 -110 640 -100 565 -95 c 1
 565 -73 l 1
 620 -77 705 -82 720 -82 c 0
 732 -82 736 -81 740 -77 c 0
 827 10 845 385 845 585 c 1
 257 585 l 1
 213 474 150 369 53 267 c 1
 40 280 l 1
 150 445 215 625 240 765 c 1
 309 742 332 731 332 720 c 0
 332 714 321 709 297 707 c 1
 289 676 279 645 268 615 c 1
 840 615 l 1
 863 650 l 1
 865 650 l 1
 910 620 935 600 935 593 c 0
 935 588 925 581 905 570 c 1
 905 315 885 -30 790 -125 c 0
580 140 m 1
 580 395 l 1
 355 395 l 1
 355 140 l 1
 580 140 l 1
580 110 m 1
 355 110 l 1
 355 50 l 1
 300 40 l 1
 295 40 l 1
 295 458 l 1
 297 458 l 1
 365 425 l 1
 575 425 l 1
 598 460 l 1
 600 460 l 1
 645 430 670 410 670 403 c 0
 670 398 660 391 640 380 c 1
 640 70 l 1
 585 60 l 1
 580 60 l 1
 580 110 l 1
EndSplineSet
Fore
SplineSet
565 150 m 1
 565 405 l 1
 385 405 l 1
 385 150 l 1
 565 150 l 1
565 120 m 1
 385 120 l 1
 386 60 l 1
 310 45 l 1
 292 45 l 1
 295 175 l 1
 295 400 l 1
 290 475 l 1
 292 475 l 1
 395 435 l 1
 558 435 l 1
 593 478 l 1
 596 478 l 1
 655 440 687 415 687 405 c 0
 687 400 675 390 655 380 c 1
 655 195 l 1
 658 80 l 1
 580 65 l 1
 564 65 l 1
 565 120 l 1
725 -45 m 0
 790 20 820 340 820 585 c 1
 287 585 l 1
 235 477 154 357 53 262 c 1
 40 275 l 1
 150 450 225 650 240 770 c 1
 337 740 373 726 373 715 c 0
 373 706 358 700 330 694 c 1
 322 669 312 643 300 615 c 1
 813 615 l 1
 848 658 l 1
 851 658 l 1
 910 620 942 595 942 585 c 0
 942 580 930 570 910 560 c 1
 910 310 880 -30 790 -120 c 0
 770 -140 740 -155 640 -165 c 1
 640 -105 610 -80 530 -72 c 1
 530 -50 l 1
 575 -54 665 -60 685 -60 c 0
 702 -60 715 -55 725 -45 c 0
EndSplineSet
EndChar

StartChar: uni53E4
Encoding: 21476 21476 58
Width: 1000
Flags: HM
LayerCount: 2
Back
SplineSet
197 -164.495 m 1
 197 301.41 l 1
 261.025 268.905 l 1
 472.8 268.905 l 1
 472.8 507.275 l 1
 49.25 507.275 l 1
 49.25 528.945 l 1
 472.8 528.945 l 1
 472.8 756.48 l 1
 535.84 745.645 l 1
 551.6 735.795 l 1
 535.84 725.945 l 1
 535.84 528.945 l 1
 843.16 528.945 l 1
 896.35 582.135 l 1
 959.39 528.945 l 1
 959.39 507.275 l 1
 535.84 507.275 l 1
 535.84 268.905 l 1
 747.615 268.905 l 1
 780.12 295.5 l 1
 838.235 248.22 l 1
 811.64 226.55 l 1
 811.64 -101.455 l 1
 747.615 -132.975 l 1
 747.615 -69.9346 l 1
 261.025 -69.9346 l 1
 261.025 -132.975 l 1
 197 -164.495 l 1
261.025 -48.2646 m 1
 747.615 -48.2646 l 1
 747.615 248.22 l 1
 261.025 248.22 l 1
 261.025 -48.2646 l 1
EndSplineSet
EndChar

StartChar: uni76EE
Encoding: 30446 30446 59
Width: 1000
Flags: HMW
LayerCount: 2
Back
SplineSet
760 430 m 1
 250 430 l 1
 250 210 l 1
 760 210 l 1
 760 430 l 1
760 460 m 1
 760 670 l 1
 250 670 l 1
 250 460 l 1
 760 460 l 1
760 -75 m 1
 250 -75 l 1
 250 -135 l 1
 195 -145 l 1
 190 -145 l 1
 190 733 l 1
 192 733 l 1
 260 700 l 1
 755 700 l 1
 778 735 l 1
 780 735 l 1
 825 705 850 685 850 678 c 0
 850 673 840 666 820 655 c 1
 820 -125 l 1
 765 -135 l 1
 760 -135 l 1
 760 -75 l 1
760 180 m 1
 250 180 l 1
 250 -45 l 1
 760 -45 l 1
 760 180 l 1
EndSplineSet
Fore
SplineSet
718 700 m 1
 753 743 l 1
 756 743 l 1
 815 705 847 680 847 670 c 0
 847 665 835 655 815 645 c 1
 815 -20 l 1
 818 -135 l 1
 740 -150 l 1
 722 -150 l 1
 725 -75 l 1
 280 -75 l 1
 283 -135 l 1
 205 -150 l 1
 187 -150 l 1
 190 -20 l 1
 190 665 l 1
 185 740 l 1
 187 740 l 1
 290 700 l 1
 718 700 l 1
280 460 m 1
 725 460 l 1
 725 670 l 1
 280 670 l 1
 280 460 l 1
280 430 m 1
 280 210 l 1
 725 210 l 1
 725 430 l 1
 280 430 l 1
280 180 m 1
 280 -45 l 1
 725 -45 l 1
 725 180 l 1
 280 180 l 1
EndSplineSet
EndChar

StartChar: uni6708
Encoding: 26376 26376 60
Width: 1000
Flags: HM
LayerCount: 2
Back
SplineSet
320 348 m 0
 320 88 270 -55 95 -160 c 1
 84 -145 l 1
 220 -30 260 113 260 358 c 2
 260 733 l 1
 262 733 l 1
 330 700 l 1
 735 700 l 1
 758 735 l 1
 760 735 l 1
 805 705 830 685 830 678 c 0
 830 673 820 666 800 655 c 1
 800 -70 l 2
 800 -130 770 -147 660 -155 c 1
 660 -105 630 -95 550 -90 c 1
 550 -68 l 1
 610 -72 705 -77 720 -77 c 0
 735 -77 740 -70 740 -50 c 2
 740 210 l 1
 320 210 l 1
122 -165 m 1
 116 -158 l 1
 144 -125 l 1
 168 -92 l 1
 189 -57 l 1
 208 -21 l 1
 223 16 l 1
 236 56 l 1
 245 98 l 1
 251 142 l 1
 254 188 l 1
 254 736 l 1
 318 703 l 1
 732 703 l 1
 765 730 l 1
 824 682 l 1
 797 660 l 1
 797 -71 l 1
 796 -84 l 1
 794 -98 l 1
 789 -110 l 1
 782 -123 l 1
 774 -134 l 1
 763 -142 l 1
 751 -149 l 1
 738 -153 l 1
 724 -156 l 1
 711 -157 l 1
 711 -124 l 1
 603 -108 l 1
 603 -92 l 1
 711 -92 l 1
 717 -92 l 1
 722 -91 l 1
 727 -89 l 1
 729 -87 l 1
 731 -82 l 1
 732 -77 l 1
 732 -71 l 1
 732 214 l 1
 317 214 l 1
 315 184 l 1
 308 134 l 1
 297 86 l 1
 283 41 l 1
 265 -1 l 1
 244 -41 l 1
 219 -77 l 1
 191 -110 l 1
 158 -140 l 1
 122 -165 l 1
318 467 m 1
 732 467 l 1
 732 682 l 1
 318 682 l 1
 318 467 l 1
318 236 m 1
 732 236 l 1
 732 445 l 1
 318 445 l 1
 318 236 l 1
EndSplineSet
EndChar

StartChar: uni6728
Encoding: 26408 26408 61
Width: 1000
Flags: HMW
LayerCount: 2
Back
SplineSet
1425 495 m 9
 1460 500 l 25
 1455 360 l 17
 1385 205 1220 40 1060 -50 c 9
 1045 -40 l 17
 1205 95 1359 310 1425 495 c 9
1545 450 m 1
 1545 500 l 1
 1555 495 l 1
 1610 310 1795 105 1965 45 c 1
 1965 35 l 1
 1920 30 1885 5 1875 -35 c 1
 1725 50 1590 245 1545 450 c 1
1452 -155 m 1
 1455 -25 l 1
 1455 695 l 1
 1450 759 l 1
 1452 760 l 1
 1575 740 1585 731 1585 723 c 0
 1585 718 1580 710 1545 700 c 1
 1545 -25 l 1
 1548 -140 l 1
 1470 -155 l 1
 1452 -155 l 1
1933 490 m 1
 1855 495 l 1
 1150 495 l 1
 1080 490 l 1
 1075 530 l 1
 1150 525 l 1
 1790 525 l 1
 1843 600 l 1
 1845 600 l 1
 1935 510 l 1
 1933 490 l 1
542 495 m 1
 637 270 845 70 960 40 c 1
 960 25 l 1
 930 25 905 5 900 -25 c 1
 750 65 600 260 530 465 c 1
 530 -140 l 1
 475 -150 l 1
 470 -150 l 1
 470 410 l 1
 390 240 250 70 60 -37 c 1
 50 -25 l 1
 225 115 355 295 435 495 c 1
 150 495 l 1
 80 490 l 1
 80 530 l 1
 150 525 l 1
 470 525 l 1
 470 700 l 1
 465 749 l 1
 467 750 l 1
 558 737 570 730 570 723 c 0
 570 718 565 712 530 702 c 1
 530 525 l 1
 811 525 l 1
 853 587 l 1
 855 587 l 1
 930 515 l 1
 930 495 l 1
 542 495 l 1
EndSplineSet
Fore
SplineSet
933 490 m 1
 855 495 l 1
 555 495 l 1
 610 310 795 105 965 45 c 1
 965 35 l 1
 920 30 885 5 875 -35 c 1
 725 55 590 245 545 450 c 1
 545 -25 l 1
 548 -140 l 1
 470 -155 l 1
 452 -155 l 1
 455 -25 l 1
 455 360 l 1
 385 205 220 40 60 -50 c 1
 45 -40 l 1
 205 95 359 315 425 495 c 1
 150 495 l 1
 80 490 l 1
 75 530 l 1
 150 525 l 1
 455 525 l 1
 455 695 l 1
 450 759 l 1
 452 760 l 1
 575 740 585 731 585 723 c 0
 585 718 580 710 545 700 c 1
 545 525 l 1
 790 525 l 1
 843 600 l 1
 845 600 l 1
 935 510 l 1
 933 490 l 1
EndSplineSet
EndChar

StartChar: uni672C
Encoding: 26412 26412 62
Width: 1000
Flags: HMW
LayerCount: 2
Back
SplineSet
545 515 m 1
 640 310 845 125 960 90 c 1
 960 75 l 1
 930 75 905 55 900 25 c 1
 750 120 600 300 530 488 c 1
 530 90 l 1
 641 90 l 1
 678 147 l 1
 680 147 l 1
 750 80 l 1
 750 60 l 1
 530 60 l 1
 530 -140 l 1
 475 -150 l 1
 470 -150 l 1
 470 60 l 1
 330 60 l 1
 260 55 l 1
 260 95 l 1
 330 90 l 1
 470 90 l 1
 470 430 l 1
 390 270 250 100 60 -7 c 1
 50 5 l 1
 225 145 355 325 435 515 c 1
 150 515 l 1
 80 510 l 1
 80 550 l 1
 150 545 l 1
 470 545 l 1
 470 700 l 1
 465 749 l 1
 467 750 l 1
 558 737 570 730 570 723 c 0
 570 718 565 712 530 702 c 1
 530 545 l 1
 815 545 l 1
 855 605 l 1
 857 605 l 1
 930 535 l 1
 930 515 l 1
 545 515 l 1
EndSplineSet
Fore
SplineSet
150 500 m 0
 150 583 217 650 300 650 c 0
 383 650 450 583 450 500 c 0
 450 417 383 350 300 350 c 0
 217 350 150 417 150 500 c 0
EndSplineSet
EndChar

StartChar: uni6751
Encoding: 26449 26449 63
Width: 1000
Flags: HM
LayerCount: 2
Back
SplineSet
227 -167 m 1
 227 357 l 1
 209 311 l 1
 187 263 l 1
 164 218 l 1
 138 173 l 1
 111 130 l 1
 81 89 l 1
 48 50 l 1
 40 56 l 1
 86 144 l 1
 127 235 l 1
 162 328 l 1
 177 377 l 1
 202 476 l 1
 208 510 l 1
 44 510 l 1
 44 531 l 1
 227 531 l 1
 227 773 l 1
 292 763 l 1
 308 752 l 1
 292 742 l 1
 292 531 l 1
 340 531 l 1
 394 585 l 1
 458 531 l 1
 458 510 l 1
 292 510 l 1
 292 385 l 1
 317 377 l 1
 337 371 l 1
 355 363 l 1
 389 344 l 1
 405 333 l 1
 420 321 l 1
 447 295 l 1
 453 271 l 1
 440 250 l 1
 417 244 l 1
 395 257 l 1
 388 270 l 1
 370 295 l 1
 347 320 l 1
 335 333 l 1
 292 368 l 1
 292 -135 l 1
 227 -167 l 1
753 -162 m 1
 753 -130 l 1
 645 -114 l 1
 645 -98 l 1
 753 -98 l 1
 759 -97 l 1
 764 -96 l 1
 767 -95 l 1
 770 -94 l 1
 771 -93 l 1
 771 -92 l 1
 772 -91 l 1
 773 -87 l 1
 774 -82 l 1
 774 -76 l 1
 774 478 l 1
 457 478 l 1
 457 499 l 1
 774 499 l 1
 774 779 l 1
 839 768 l 1
 855 757 l 1
 839 748 l 1
 839 499 l 1
 864 499 l 1
 917 553 l 1
 982 499 l 1
 982 478 l 1
 839 478 l 1
 839 -76 l 1
 838 -89 l 1
 836 -103 l 1
 831 -116 l 1
 825 -128 l 1
 816 -139 l 1
 805 -148 l 1
 793 -155 l 1
 780 -159 l 1
 767 -161 l 1
 753 -162 l 1
659 140 m 1
 635 143 l 1
 618 162 l 1
 613 182 l 1
 606 202 l 1
 597 223 l 1
 586 243 l 1
 573 264 l 1
 558 284 l 1
 523 326 l 1
 481 369 l 1
 486 377 l 1
 515 363 l 1
 542 347 l 1
 566 330 l 1
 588 312 l 1
 608 292 l 1
 627 272 l 1
 643 250 l 1
 658 228 l 1
 670 205 l 1
 680 180 l 1
 678 156 l 1
 659 140 l 1
EndSplineSet
EndChar

StartChar: uni67D4
Encoding: 26580 26580 64
Width: 1000
Flags: HM
LayerCount: 2
Back
SplineSet
480 -168 m 1
 480 94 l 1
 438 57 l 1
 399 26 l 1
 357 -4 l 1
 311 -30 l 1
 264 -55 l 1
 213 -78 l 1
 160 -99 l 1
 104 -117 l 1
 45 -132 l 1
 43 -122 l 1
 149 -72 l 1
 198 -47 l 1
 244 -20 l 1
 287 8 l 1
 328 38 l 1
 365 68 l 1
 400 100 l 1
 431 133 l 1
 434 136 l 1
 71 136 l 1
 71 157 l 1
 480 157 l 1
 480 226 l 1
 544 215 l 1
 560 204 l 1
 544 195 l 1
 544 157 l 1
 835 157 l 1
 888 211 l 1
 953 157 l 1
 953 136 l 1
 562 136 l 1
 656 76 l 1
 732 33 l 1
 815 -6 l 1
 903 -41 l 1
 986 -70 l 1
 924 -123 l 1
 877 -103 l 1
 788 -59 l 1
 707 -10 l 1
 669 17 l 1
 633 45 l 1
 599 74 l 1
 567 106 l 1
 544 133 l 1
 544 -136 l 1
 480 -168 l 1
480 236 m 1
 480 268 l 1
 372 285 l 1
 372 301 l 1
 480 301 l 1
 486 301 l 1
 491 302 l 1
 496 304 l 1
 498 306 l 1
 500 311 l 1
 501 316 l 1
 501 322 l 1
 501 492 l 1
 473 462 l 1
 434 426 l 1
 393 393 l 1
 350 360 l 1
 306 331 l 1
 259 303 l 1
 210 277 l 1
 159 254 l 1
 106 233 l 1
 51 216 l 1
 48 225 l 1
 98 252 l 1
 193 308 l 1
 237 337 l 1
 280 368 l 1
 320 400 l 1
 358 433 l 1
 394 468 l 1
 428 504 l 1
 433 510 l 1
 55 510 l 1
 55 532 l 1
 529 532 l 1
 510 558 l 1
 485 586 l 1
 454 612 l 1
 438 626 l 1
 401 653 l 1
 380 665 l 1
 384 674 l 1
 431 661 l 1
 453 653 l 1
 474 644 l 1
 494 635 l 1
 514 623 l 1
 532 611 l 1
 549 599 l 1
 556 593 l 1
 631 658 l 1
 703 715 l 1
 200 715 l 1
 200 736 l 1
 731 736 l 1
 752 752 l 1
 754 750 l 1
 770 763 l 1
 829 715 l 1
 802 698 l 1
 746 675 l 1
 602 597 l 1
 575 583 l 1
 570 581 l 1
 580 571 l 1
 587 547 l 1
 579 532 l 1
 881 532 l 1
 893 545 l 1
 895 542 l 1
 915 559 l 1
 974 510 l 1
 947 494 l 1
 915 480 l 1
 844 429 l 1
 784 390 l 1
 740 367 l 1
 735 375 l 1
 861 510 l 1
 566 510 l 1
 566 322 l 1
 565 309 l 1
 563 295 l 1
 558 282 l 1
 551 270 l 1
 543 259 l 1
 532 251 l 1
 520 244 l 1
 507 239 l 1
 493 237 l 1
 480 236 l 1
EndSplineSet
EndChar

StartChar: uni767D
Encoding: 30333 30333 65
Width: 1000
Flags: HMW
LayerCount: 2
Back
SplineSet
775 -65 m 1
 230 -65 l 1
 230 -130 l 1
 175 -140 l 1
 170 -140 l 1
 170 603 l 1
 172 603 l 1
 240 570 l 1
 415 570 l 1
 440 645 460 720 470 775 c 1
 545 755 565 746 565 737 c 0
 565 730 553 725 528 721 c 1
 501 662 477 620 440 570 c 1
 770 570 l 1
 793 605 l 1
 795 605 l 1
 840 575 865 555 865 548 c 0
 865 543 855 536 835 525 c 1
 835 -120 l 1
 780 -130 l 1
 775 -130 l 1
 775 -65 l 1
775 275 m 1
 775 540 l 1
 230 540 l 1
 230 275 l 1
 775 275 l 1
775 245 m 1
 230 245 l 1
 230 -35 l 1
 775 -35 l 1
 775 245 l 1
EndSplineSet
Fore
SplineSet
150 500 m 0
 150 583 217 650 300 650 c 0
 383 650 450 583 450 500 c 0
 450 417 383 350 300 350 c 0
 217 350 150 417 150 500 c 0
EndSplineSet
EndChar

StartChar: uni767E
Encoding: 30334 30334 66
Width: 1000
Flags: HM
LayerCount: 2
Back
SplineSet
415 495 m 1
 440 570 460 645 470 700 c 1
 542 680 563 671 563 662 c 0
 563 655 550 650 525 646 c 1
 499 586 477 545 440 495 c 1
222 -157 m 1
 222 526 l 1
 286 494 l 1
 435 494 l 1
 438 507 l 1
 443 529 l 1
 472 635 l 1
 477 656 l 1
 482 677 l 1
 77 677 l 1
 77 698 l 1
 845 698 l 1
 899 752 l 1
 964 698 l 1
 964 677 l 1
 547 677 l 1
 521 617 l 1
 501 578 l 1
 467 519 l 1
 450 494 l 1
 775 494 l 1
 808 521 l 1
 867 472 l 1
 840 451 l 1
 840 -108 l 1
 775 -141 l 1
 775 -87 l 1
 286 -87 l 1
 286 -124 l 1
 222 -157 l 1
286 -65 m 1
 775 -65 l 1
 775 204 l 1
 286 204 l 1
 286 -65 l 1
286 225 m 1
 775 225 l 1
 775 472 l 1
 286 472 l 1
 286 225 l 1
EndSplineSet
EndChar

StartChar: uni7ACB
Encoding: 31435 31435 67
Width: 1000
Flags: HM
LayerCount: 2
Back
SplineSet
160 235 m 1
 173 248 l 1
 275 205 375 85 375 15 c 0
 375 -8 360 -25 340 -25 c 0
 285 -25 325 110 160 235 c 1
535 270 m 1
 560 335 580 400 590 455 c 1
 662 435 683 426 683 417 c 0
 683 410 670 405 645 401 c 1
 620 355 597 315 560 270 c 1
34 -108 m 1
 34 -86 l 1
 570 -86 l 1
 665 227 l 1
 708 390 l 1
 721 439 l 1
 724 453 l 1
 784 427 l 1
 797 413 l 1
 778 407 l 1
 732 264 l 1
 692 158 l 1
 650 54 l 1
 602 -48 l 1
 583 -86 l 1
 851 -86 l 1
 905 -32 l 1
 970 -86 l 1
 970 -108 l 1
 34 -108 l 1
364 -32 m 1
 340 -25 l 1
 328 -4 l 1
 322 50 l 1
 314 102 l 1
 305 152 l 1
 294 199 l 1
 282 244 l 1
 268 288 l 1
 253 329 l 1
 219 407 l 1
 200 445 l 1
 208 451 l 1
 236 418 l 1
 261 383 l 1
 284 345 l 1
 306 303 l 1
 325 259 l 1
 342 213 l 1
 357 164 l 1
 370 113 l 1
 382 60 l 1
 392 4 l 1
 385 -19 l 1
 364 -32 l 1
93 521 m 1
 93 543 l 1
 470 543 l 1
 470 747 l 1
 534 737 l 1
 550 726 l 1
 534 716 l 1
 534 543 l 1
 792 543 l 1
 846 597 l 1
 911 543 l 1
 911 521 l 1
 93 521 l 1
EndSplineSet
EndChar

StartChar: uni5E74
Encoding: 24180 24180 68
Width: 1000
Flags: HM
LayerCount: 2
Back
SplineSet
1307 712 m 1
 1265 575 1195 425 1068 312 c 1
 1055 325 l 1
 1165 460 1235 650 1250 770 c 1
 1319 747 1342 736.045 1342 725 c 3
 1342 719 1331 714 1307 712 c 1
1705 385 m 1
 1745 445 l 1
 1747 445 l 1
 1820 375 l 1
 1820 355 l 1
 1280 355 l 1
 1280 105 l 1
 1220 105 l 1
 1220 418 l 1
 1222 418 l 1
 1290 385 l 1
 1705 385 l 1
1240 575 m 1
 1240 605 l 1
 1755 605 l 1
 1795 665 l 1
 1797 665 l 1
 1870 595 l 1
 1870 575 l 1
 1240 575 l 1
1560 590 m 1
 1560 -135 l 1
 1505 -145 l 1
 1500 -145 l 1
 1500 590 l 1
 1560 590 l 1
1900 90 m 1
 1100 90 l 1
 1030 85 l 1
 1030 125 l 1
 1100 120 l 1
 1785 120 l 1
 1825 180 l 1
 1827 180 l 1
 1900 110 l 1
 1900 90 l 1
534 -162 m 1
 534 96 l 1
 50 96 l 1
 50 118 l 1
 249 118 l 1
 249 419 l 1
 313 386 l 1
 534 386 l 1
 534 585 l 1
 288 585 l 1
 271 547 l 1
 247 501 l 1
 221 458 l 1
 193 417 l 1
 163 379 l 1
 130 345 l 1
 96 313 l 1
 89 320 l 1
 139 397 l 1
 163 436 l 1
 186 478 l 1
 225 567 l 1
 259 665 l 1
 285 765 l 1
 288 780 l 1
 348 755 l 1
 361 741 l 1
 342 735 l 1
 332 700 l 1
 313 647 l 1
 297 607 l 1
 792 607 l 1
 845 660 l 1
 910 607 l 1
 910 585 l 1
 598 585 l 1
 598 386 l 1
 749 386 l 1
 802 440 l 1
 867 386 l 1
 867 365 l 1
 598 365 l 1
 598 118 l 1
 829 118 l 1
 883 171 l 1
 947 118 l 1
 947 96 l 1
 598 96 l 1
 598 -130 l 1
 534 -162 l 1
313 118 m 1
 534 118 l 1
 534 365 l 1
 313 365 l 1
 313 118 l 1
EndSplineSet
EndChar

StartChar: uni5FC3
Encoding: 24515 24515 69
Width: 1000
Flags: HM
LayerCount: 2
Back
SplineSet
165.802 402.283 m 1
 185.43 399.329 l 1
 210.158 243.447 154.984 90.5293 100.076 55.7422 c 0
 83.1807 45.0391 55.0479 52.0742 45.9492 66.4355 c 0
 16.5146 112.896 157.023 139.67 165.802 402.283 c 1
384.296 727.347 m 1
 394.775 744.205 l 1
 499.821 720.428 622.386 618.433 632.607 554.241 c 0
 635.752 534.49 618.159 511.437 601.37 508.764 c 0
 547.055 500.114 581.311 622.018 384.296 727.347 c 1
761.738 398.965 m 1
 776.862 411.82 l 1
 869.641 357.119 965.23 207.585 955.374 143.337 c 0
 952.341 123.568 928.552 106.983 911.748 109.562 c 0
 857.384 117.901 917.209 238.535 761.738 398.965 c 1
482 360 m 1
 495 375 l 1
 595 335 700 215 700 150 c 0
 700 130 679 110 662 110 c 0
 607 110 660 225 482 360 c 1
394 -114 m 1
 380 -113 l 1
 366 -110 l 1
 353 -106 l 1
 341 -99 l 1
 330 -91 l 1
 322 -80 l 1
 315 -67 l 1
 310 -55 l 1
 308 -41 l 1
 308 -28 l 1
 308 515 l 1
 372 505 l 1
 388 494 l 1
 372 484 l 1
 372 -34 l 1
 373 -39 l 1
 375 -44 l 1
 377 -46 l 1
 382 -48 l 1
 387 -49 l 1
 394 -49 l 1
 739 -49 l 1
 770 85 l 1
 781 85 l 1
 771 -49 l 1
 789 -62 l 1
 802 -81 l 1
 789 -101 l 1
 770 -114 l 1
 394 -114 l 1
62 42 m 1
 42 55 l 1
 37 79 l 1
 50 100 l 1
 67 112 l 1
 83 127 l 1
 99 147 l 1
 113 172 l 1
 127 201 l 1
 138 235 l 1
 149 273 l 1
 158 315 l 1
 166 362 l 1
 173 414 l 1
 183 413 l 1
 186 361 l 1
 187 312 l 1
 184 267 l 1
 178 225 l 1
 170 187 l 1
 159 152 l 1
 145 120 l 1
 129 92 l 1
 109 68 l 1
 86 47 l 1
 62 42 l 1
956 113 m 1
 931 118 l 1
 918 138 l 1
 913 169 l 1
 906 198 l 1
 897 227 l 1
 886 255 l 1
 873 283 l 1
 858 309 l 1
 840 336 l 1
 800 390 l 1
 776 417 l 1
 782 424 l 1
 813 405 l 1
 842 383 l 1
 867 359 l 1
 891 334 l 1
 912 306 l 1
 930 278 l 1
 947 248 l 1
 961 216 l 1
 972 184 l 1
 981 150 l 1
 976 126 l 1
 956 113 l 1
590 511 m 1
 572 527 l 1
 561 552 l 1
 549 577 l 1
 534 600 l 1
 517 622 l 1
 478 664 l 1
 430 702 l 1
 375 740 l 1
 379 749 l 1
 413 740 l 1
 445 727 l 1
 475 713 l 1
 503 695 l 1
 529 677 l 1
 553 656 l 1
 576 633 l 1
 596 609 l 1
 615 583 l 1
 631 555 l 1
 632 530 l 1
 615 512 l 1
 590 511 l 1
EndSplineSet
EndChar

StartChar: uni624B
Encoding: 25163 25163 70
Width: 1000
Flags: HM
LayerCount: 2
Back
SplineSet
1085 603 m 1
 1340 640 1625 700 1755 758 c 1
 1800 730 1830 708 1830 695 c 3
 1830 690 1825 689 1817 689 c 3
 1810 689 1802 690 1789 693 c 1
 1575 635 1335 600 1090 585 c 1
 1085 603 l 1
1935 190 m 1
 1120 190 l 1
 1050 185 l 1
 1050 225 l 1
 1120 220 l 1
 1820 220 l 1
 1860 279 l 1
 1862 279 l 1
 1935 210 l 1
 1935 190 l 1
1470 650 m 1
 1530 660 l 1
 1530 -75 l 2
 1530 -135 1500 -150 1405 -160 c 1
 1405 -110 1380 -100 1310 -95 c 1
 1310 -73 l 1
 1355 -77 1435 -82 1450 -82 c 0
 1465 -82 1470 -75 1470 -55 c 2
 1470 650 l 1
1875 410 m 1
 1180 410 l 1
 1110 405 l 1
 1110 445 l 1
 1180 440 l 1
 1760 440 l 1
 1800 497 l 1
 1802 497 l 1
 1875 430 l 1
 1875 410 l 1
469 -162 m 1
 469 -130 l 1
 361 -114 l 1
 361 -98 l 1
 469 -98 l 1
 475 -97 l 1
 480 -96 l 1
 485 -94 l 1
 487 -92 l 1
 489 -87 l 1
 490 -82 l 1
 490 -76 l 1
 490 193 l 1
 55 193 l 1
 55 214 l 1
 490 214 l 1
 490 419 l 1
 114 419 l 1
 114 440 l 1
 490 440 l 1
 490 630 l 1
 421 620 l 1
 352 612 l 1
 280 605 l 1
 207 600 l 1
 130 597 l 1
 130 606 l 1
 346 647 l 1
 479 674 l 1
 603 706 l 1
 717 741 l 1
 771 759 l 1
 773 751 l 1
 823 709 l 1
 824 692 l 1
 802 702 l 1
 735 682 l 1
 616 654 l 1
 555 642 l 1
 555 440 l 1
 792 440 l 1
 845 494 l 1
 910 440 l 1
 910 419 l 1
 555 419 l 1
 555 214 l 1
 851 214 l 1
 904 268 l 1
 969 214 l 1
 969 193 l 1
 555 193 l 1
 555 -76 l 1
 554 -89 l 1
 552 -103 l 1
 547 -116 l 1
 540 -128 l 1
 532 -139 l 1
 521 -148 l 1
 509 -155 l 1
 496 -159 l 1
 482 -161 l 1
 469 -162 l 1
EndSplineSet
EndChar

StartChar: uni6C34
Encoding: 27700 27700 71
Width: 1000
Flags: HM
LayerCount: 2
Back
SplineSet
1540 702 m 1
 1580 325 1790 80 1970 0 c 1
 1970 -15 l 1
 1950 -15 1923 -35 1915 -65 c 1
 1705 60 1575 320 1540 560 c 1
 1540 702 l 1
1629 334 m 1
 1725 410 1805 495 1857 584 c 1
 1910 545 1929 525 1929 515 c 3
 1929 511 1925 509 1920 509 c 3
 1913 509 1898 511 1888 513 c 1
 1830 440 1740 370 1638 321 c 1
 1629 334 l 1
1540 -75 m 1
 1540 -135 1510 -150 1405 -160 c 1
 1405 -110 1380 -100 1300 -95 c 1
 1300 -73 l 1
 1355 -77 1445 -82 1460 -82 c 0
 1475 -82 1480 -75 1480 -55 c 2
 1480 710 l 1
 1475 759 l 1
 1477 760 l 1
 1568 747 1580 740 1580 733 c 0
 1580 728 1575 722 1540 712 c 1
 1540 -75 l 1
1130 460 m 1
 1060 455 l 1
 1060 495 l 1
 1130 490 l 1
 1325 490 l 1
 1348 527 l 1
 1350 527 l 1
 1400 491 1422 473 1422 465 c 0
 1422 460 1410 453 1390 445 c 1
 1360 225 1235 30 1045 -60 c 1
 1037 -45 l 1
 1200 70 1305 260 1325 460 c 1
 1130 460 l 1
608.745 343.892 m 1
 731.8 420.588 834.417 521.928 882 604 c 1
 937.631 561.878 956.344 543.718 954.321 533.925 c 0
 952.906 527.069 937.812 528.145 913.328 533.2 c 1
 846.766 458.111 750.386 382.032 618.271 330.691 c 1
 608.745 343.892 l 1
448 -162 m 1
 448 -130 l 1
 341 -114 l 1
 341 -98 l 1
 448 -98 l 1
 455 -97 l 1
 460 -96 l 1
 464 -94 l 1
 467 -92 l 1
 468 -87 l 1
 469 -82 l 1
 470 -76 l 1
 470 773 l 1
 534 763 l 1
 550 752 l 1
 534 742 l 1
 534 701 l 1
 551 598 l 1
 573 501 l 1
 600 411 l 1
 625 348 l 1
 780 484 l 1
 825 527 l 1
 858 563 l 1
 864 569 l 1
 908 521 l 1
 912 502 l 1
 892 507 l 1
 839 465 l 1
 754 405 l 1
 687 364 l 1
 651 343 l 1
 631 333 l 1
 671 256 l 1
 716 191 l 1
 766 133 l 1
 822 83 l 1
 884 40 l 1
 953 5 l 1
 983 -10 l 1
 922 -59 l 1
 848 -16 l 1
 782 34 l 1
 723 93 l 1
 671 159 l 1
 628 232 l 1
 592 312 l 1
 563 400 l 1
 542 494 l 1
 534 553 l 1
 534 -76 l 1
 533 -89 l 1
 531 -103 l 1
 527 -116 l 1
 520 -128 l 1
 511 -139 l 1
 500 -148 l 1
 488 -155 l 1
 475 -159 l 1
 462 -161 l 1
 448 -162 l 1
36 -58 m 1
 32 -50 l 1
 81 -11 l 1
 125 31 l 1
 165 75 l 1
 201 122 l 1
 232 173 l 1
 260 227 l 1
 282 284 l 1
 300 344 l 1
 315 409 l 1
 322 462 l 1
 61 462 l 1
 61 483 l 1
 325 483 l 1
 357 510 l 1
 416 462 l 1
 389 445 l 1
 384 443 l 1
 375 396 l 1
 356 328 l 1
 333 264 l 1
 304 205 l 1
 271 149 l 1
 234 98 l 1
 191 51 l 1
 144 9 l 1
 93 -27 l 1
 36 -58 l 1
EndSplineSet
EndChar

StartChar: uni6C17
Encoding: 27671 27671 72
Width: 1000
Flags: HM
LayerCount: 2
Back
SplineSet
1210 230 m 1
 1220 245 l 1
 1430 185 1680 5 1680 -65 c 3
 1680 -83 1660 -100 1642 -100 c 3
 1592 -100 1580 50 1210 230 c 1
1081 345 m 1
 1190 475 1290 635 1322 781 c 1
 1390 757 1413 745 1413 735 c 3
 1413 728 1397 725 1374 723 c 1
 1320 585 1220 440 1092 333 c 1
 1081 345 l 1
1745 330 m 1
 1240 330 l 1
 1170 325 l 1
 1170 365 l 1
 1240 360 l 1
 1740 360 l 1
 1763 395 l 1
 1765 395 l 1
 1810 365 1835 345 1835 338 c 0
 1835 333 1825 326 1805 315 c 1
 1805 220 1809 136 1830 70 c 0
 1857.13 -15.2803 1905 -60 1915 -60 c 0
 1925 -60 1945 -20 1965 55 c 1
 1980 50 l 1
 1975 17 1965 -65 1965 -80 c 0
 1965 -89 1985 -100 1985 -120 c 0
 1985 -135 1970 -145 1950 -145 c 0
 1910 -145 1817.92 -86.5 1773 47 c 0
 1748.19 120.732 1745 215 1745 330 c 1
1940 610 m 1
 1305 610 l 1
 1285 605 l 1
 1285 625 l 1
 1305 640 l 1
 1825 640 l 1
 1865 695 l 1
 1867 695 l 1
 1940 630 l 1
 1940 610 l 1
1085 -135 m 1
 1300 -45 1500 125 1580 285 c 1
 1640 254 1663 238 1663 228 c 3
 1663 221 1651 220 1623 220 c 1
 1520 65 1335 -85 1093 -149 c 1
 1085 -135 l 1
1870 470 m 1
 1360 470 l 1
 1290 465 l 1
 1290 505 l 1
 1360 500 l 1
 1755 500 l 1
 1795 555 l 1
 1797 555 l 1
 1870 490 l 1
 1870 470 l 1
328.44 -1.62109 m 1
 437.192 94.2861 521.728 211.135 555.151 299.921 c 1
 616.957 267.53 638.404 252.698 638.021 242.706 c 0
 637.754 235.711 622.688 234.287 597.707 235.244 c 1
 544.412 150.222 461.871 59.3154 340.011 -13.0723 c 1
 328.44 -1.62109 l 1
111.241 449.867 m 1
 205.29 560.229 272.397 687.887 292.891 780.515 c 1
 358.665 757.219 382 745.578 383.038 735.633 c 0
 383.766 728.67 369.054 725.124 344.189 722.527 c 1
 303.492 630.807 234.68 529.112 124.318 440.172 c 1
 111.241 449.867 l 1
975 -120 m 0
 975 -135 960 -145 940 -145 c 0
 865 -145 640 -45 630 230 c 1
 628 265 l 1
 690 260 724 255 724 245 c 0
 724 239 717 234 690 223 c 1
 700 -5 885 -70 900 -70 c 0
 910 -70 935 -25 955 50 c 1
 970 45 l 1
 965 12 955 -65 955 -80 c 0
 955 -88.8887 975 -100 975 -120 c 0
56 -150 m 1
 53 -141 l 1
 121 -114 l 1
 185 -83 l 1
 245 -49 l 1
 301 -12 l 1
 353 29 l 1
 401 75 l 1
 409 83 l 1
 364 117 l 1
 275 177 l 1
 181 235 l 1
 185 244 l 1
 238 224 l 1
 289 202 l 1
 338 178 l 1
 386 151 l 1
 432 123 l 1
 440 118 l 1
 486 177 l 1
 523 234 l 1
 556 295 l 1
 559 300 l 1
 613 265 l 1
 622 248 l 1
 602 247 l 1
 574 201 l 1
 532 142 l 1
 486 88 l 1
 485 87 l 1
 521 60 l 1
 563 26 l 1
 642 -47 l 1
 651 -70 l 1
 641 -93 l 1
 618 -101 l 1
 595 -92 l 1
 560 -53 l 1
 524 -17 l 1
 486 19 l 1
 448 51 l 1
 436 38 l 1
 381 -6 l 1
 324 -45 l 1
 263 -80 l 1
 197 -109 l 1
 128 -132 l 1
 56 -150 l 1
937 -149 m 1
 894 -129 l 1
 856 -102 l 1
 822 -68 l 1
 795 -27 l 1
 773 20 l 1
 757 73 l 1
 745 133 l 1
 738 197 l 1
 736 268 l 1
 737 333 l 1
 125 333 l 1
 125 354 l 1
 738 354 l 1
 770 381 l 1
 829 333 l 1
 802 316 l 1
 801 316 l 1
 800 269 l 1
 802 202 l 1
 809 142 l 1
 819 89 l 1
 833 43 l 1
 852 5 l 1
 873 -28 l 1
 897 -53 l 1
 921 -70 l 1
 947 48 l 1
 958 48 l 1
 948 -84 l 1
 958 -88 l 1
 976 -105 l 1
 978 -129 l 1
 961 -148 l 1
 937 -149 l 1
58 351 m 1
 51 358 l 1
 117 437 l 1
 146 477 l 1
 174 517 l 1
 199 558 l 1
 222 599 l 1
 261 685 l 1
 278 728 l 1
 294 781 l 1
 353 753 l 1
 365 738 l 1
 345 734 l 1
 314 661 l 1
 300 634 l 1
 797 634 l 1
 851 687 l 1
 915 634 l 1
 915 612 l 1
 288 612 l 1
 265 574 l 1
 237 533 l 1
 207 493 l 1
 174 455 l 1
 138 418 l 1
 100 383 l 1
 58 351 l 1
249 472 m 1
 249 494 l 1
 732 494 l 1
 786 548 l 1
 851 494 l 1
 851 472 l 1
 249 472 l 1
EndSplineSet
EndChar

StartChar: uni5B54
Encoding: 23380 23380 73
Width: 1000
Flags: HM
LayerCount: 2
Back
SplineSet
1025 272 m 1
 1170 285 1365 320 1535 370 c 1
 1538 350 l 1
 1380 285 1235 245 1078 213 c 1
 1075 188 1072 180 1065 180 c 3
 1055 180 1043 200 1025 272 c 1
1635 -23 m 2
 1635 -53 1645 -63 1735 -63 c 2
 1765 -63 l 2
 1815 -63 1850 -58 1860 -48 c 0
 1870 -38 1885 7 1895 57 c 1
 1910 52 l 1
 1907 22 1905 -23 1905 -38 c 0
 1905 -53 1930 -58 1930 -78 c 0
 1930 -103 1890 -123 1760 -123 c 2
 1720 -123 l 2
 1590 -123 1575 -108 1575 -28 c 2
 1575 680 l 1
 1570 729 l 1
 1572 730 l 1
 1663 717 1675 710 1675 703 c 0
 1675 698 1670 692 1635 682 c 1
 1635 -23 l 2
1305 -65 m 2
 1305 -125 1275 -140 1180 -150 c 1
 1180 -100 1155 -90 1085 -85 c 1
 1085 -63 l 1
 1130 -67 1210 -72 1225 -72 c 0
 1240 -72 1245 -65 1245 -45 c 2
 1245 435 l 1
 1240 484 l 1
 1242 485 l 1
 1333 472 1345 465 1345 458 c 0
 1345 453 1340 447 1305 437 c 1
 1305 -65 l 2
1115 655 m 1
 1045 650 l 1
 1045 690 l 1
 1115 685 l 1
 1420 685 l 1
 1445 722 l 1
 1447 722 l 1
 1496 683 1518 663 1518 655 c 0
 1518 650 1505 645 1485 640 c 1
 1435 580 1370 515 1305 465 c 1
 1285 475 l 1
 1340 535 1390 600 1418 655 c 1
 1115 655 l 1
45 162 m 1
 300 175 605 205 925 245 c 1
 928 225 l 1
 620 165 330 125 98 103 c 1
 95 78 92 70 85 70 c 3
 75 70 63 90 45 162 c 1
455 703 m 1
 462 713 l 1
 465 711 l 1
 488 730 l 1
 547 682 l 1
 520 666 l 1
 498 657 l 1
 442 600 l 1
 379 542 l 1
 331 505 l 1
 332 505 l 1
 348 494 l 1
 332 484 l 1
 332 320 l 1
 504 355 l 1
 557 364 l 1
 560 355 l 1
 460 317 l 1
 410 300 l 1
 332 276 l 1
 332 -76 l 1
 331 -89 l 1
 329 -103 l 1
 324 -116 l 1
 318 -128 l 1
 309 -139 l 1
 298 -148 l 1
 286 -155 l 1
 273 -159 l 1
 259 -161 l 1
 246 -162 l 1
 246 -130 l 1
 160 -114 l 1
 160 -98 l 1
 246 -98 l 1
 252 -97 l 1
 257 -96 l 1
 262 -94 l 1
 264 -92 l 1
 265 -91 l 1
 266 -87 l 1
 267 -82 l 1
 267 -76 l 1
 267 257 l 1
 165 229 l 1
 117 217 l 1
 91 211 l 1
 83 192 l 1
 69 206 l 1
 46 266 l 1
 250 304 l 1
 267 307 l 1
 267 515 l 1
 308 508 l 1
 441 682 l 1
 58 682 l 1
 58 703 l 1
 455 703 l 1
698 -124 m 1
 684 -123 l 1
 670 -121 l 1
 658 -117 l 1
 646 -110 l 1
 634 -101 l 1
 626 -91 l 1
 619 -78 l 1
 615 -65 l 1
 612 -52 l 1
 612 -38 l 1
 612 741 l 1
 676 730 l 1
 692 720 l 1
 676 710 l 1
 676 -38 l 1
 677 -45 l 1
 677 -50 l 1
 678 -53 l 1
 680 -55 l 1
 680 -56 l 1
 681 -57 l 1
 683 -57 l 1
 686 -58 l 1
 691 -59 l 1
 698 -60 l 1
 916 -60 l 1
 947 75 l 1
 958 75 l 1
 947 -60 l 1
 966 -73 l 1
 979 -92 l 1
 966 -112 l 1
 947 -124 l 1
 698 -124 l 1
EndSplineSet
EndChar

StartChar: uni5B57
Encoding: 23383 23383 74
Width: 1000
Flags: HM
LayerCount: 2
Back
SplineSet
458 -163 m 1
 458 -130 l 1
 351 -114 l 1
 351 -98 l 1
 458 -98 l 1
 465 -98 l 1
 470 -97 l 1
 473 -96 l 1
 474 -95 l 1
 475 -94 l 1
 477 -93 l 1
 477 -91 l 1
 478 -88 l 1
 479 -83 l 1
 480 -77 l 1
 480 166 l 1
 50 166 l 1
 50 188 l 1
 480 188 l 1
 480 298 l 1
 542 288 l 1
 686 407 l 1
 721 440 l 1
 189 440 l 1
 189 461 l 1
 742 461 l 1
 752 473 l 1
 754 471 l 1
 775 488 l 1
 835 440 l 1
 808 423 l 1
 778 411 l 1
 716 367 l 1
 663 334 l 1
 599 298 l 1
 564 280 l 1
 559 278 l 1
 560 277 l 1
 544 267 l 1
 544 188 l 1
 856 188 l 1
 910 242 l 1
 974 188 l 1
 974 166 l 1
 544 166 l 1
 544 -77 l 1
 543 -90 l 1
 541 -103 l 1
 537 -116 l 1
 530 -129 l 1
 521 -139 l 1
 510 -149 l 1
 498 -155 l 1
 485 -159 l 1
 472 -162 l 1
 458 -163 l 1
888 634 m 1
 893 640 l 1
 894 639 l 1
 921 660 l 1
 980 612 l 1
 953 596 l 1
 931 587 l 1
 894 549 l 1
 850 510 l 1
 833 497 l 1
 816 481 l 1
 809 487 l 1
 822 506 l 1
 852 559 l 1
 876 604 l 1
 881 612 l 1
 152 612 l 1
 153 597 l 1
 151 572 l 1
 147 548 l 1
 141 527 l 1
 132 506 l 1
 121 487 l 1
 107 471 l 1
 91 456 l 1
 66 453 l 1
 46 467 l 1
 43 492 l 1
 57 512 l 1
 68 517 l 1
 78 524 l 1
 88 534 l 1
 98 547 l 1
 107 562 l 1
 114 580 l 1
 121 602 l 1
 128 626 l 1
 133 652 l 1
 136 682 l 1
 146 683 l 1
 150 652 l 1
 151 634 l 1
 480 634 l 1
 480 781 l 1
 544 771 l 1
 560 760 l 1
 544 750 l 1
 544 634 l 1
 888 634 l 1
EndSplineSet
EndChar

StartChar: uni884C
Encoding: 34892 34892 75
Width: 1000
Flags: HM
LayerCount: 2
Back
SplineSet
1020 200 m 1
 1155 320 1270 460 1320 585 c 1
 1383 555 1405 541 1405 531 c 0
 1405 524 1390 522 1365 522 c 1
 1300 420 1190 290 1032 189 c 1
 1020 200 l 1
1040 500 m 1
 1160 580 1263 678 1308 759 c 1
 1365 717 1381 700 1381 691 c 3
 1381 687 1377 685 1369 685 c 3
 1362 685 1350 687 1340 689 c 1
 1275 615 1180 540 1050 487 c 1
 1040 500 l 1
1935 400 m 1
 1450 400 l 1
 1380 395 l 1
 1380 435 l 1
 1450 430 l 1
 1820 430 l 1
 1860 490 l 1
 1862 490 l 1
 1935 420 l 1
 1935 400 l 1
1200 -145 m 1
 1200 325 l 1
 1195 374 l 1
 1197 375 l 1
 1288 362 1300 355 1300 348 c 0
 1300 343 1295 337 1260 327 c 1
 1260 -135 l 1
 1205 -145 l 1
 1200 -145 l 1
1900 670 m 1
 1500 670 l 1
 1430 665 l 1
 1430 705 l 1
 1500 700 l 1
 1785 700 l 1
 1825 755 l 1
 1827 755 l 1
 1900 690 l 1
 1900 670 l 1
1755 410 m 1
 1755 -65 l 2
 1755 -125 1725 -140 1625 -150 c 1
 1625 -100 1595 -90 1520 -85 c 1
 1520 -63 l 1
 1575 -67 1660 -72 1675 -72 c 0
 1690 -72 1695 -65 1695 -45 c 1
 1695 410 l 1
 1755 410 l 1
57.7451 520.775 m 1
 179.913 598.878 281.361 701.388 328 784 c 1
 384.109 742.519 403.03 724.574 401.12 714.758 c 0
 399.783 707.887 384.678 708.789 360.138 713.564 c 1
 294.44 637.717 198.939 560.537 67.4229 507.686 c 1
 57.7451 520.775 l 1
696 -162 m 1
 696 -130 l 1
 599 -114 l 1
 599 -98 l 1
 696 -98 l 1
 702 -97 l 1
 707 -96 l 1
 712 -94 l 1
 714 -92 l 1
 715 -87 l 1
 717 -82 l 1
 717 -76 l 1
 717 408 l 1
 400 408 l 1
 400 429 l 1
 857 429 l 1
 911 483 l 1
 975 429 l 1
 975 408 l 1
 782 408 l 1
 782 -76 l 1
 780 -89 l 1
 778 -103 l 1
 774 -116 l 1
 767 -128 l 1
 758 -139 l 1
 748 -148 l 1
 735 -155 l 1
 722 -159 l 1
 709 -161 l 1
 696 -162 l 1
220 -162 m 1
 220 349 l 1
 169 302 l 1
 126 269 l 1
 82 236 l 1
 35 205 l 1
 29 213 l 1
 107 290 l 1
 180 366 l 1
 214 405 l 1
 276 483 l 1
 332 563 l 1
 357 604 l 1
 360 608 l 1
 411 569 l 1
 419 551 l 1
 399 552 l 1
 382 528 l 1
 318 449 l 1
 283 411 l 1
 254 381 l 1
 285 376 l 1
 301 365 l 1
 285 355 l 1
 285 -130 l 1
 220 -162 l 1
71 517 m 1
 65 525 l 1
 217 657 l 1
 269 707 l 1
 316 757 l 1
 339 783 l 1
 384 737 l 1
 389 718 l 1
 369 722 l 1
 305 667 l 1
 246 622 l 1
 181 578 l 1
 109 536 l 1
 71 517 l 1
454 698 m 1
 454 720 l 1
 798 720 l 1
 851 773 l 1
 916 720 l 1
 916 698 l 1
 454 698 l 1
EndSplineSet
EndChar

StartChar: uni8033
Encoding: 32819 32819 76
Width: 1000
Flags: HM
LayerCount: 2
Back
SplineSet
1240 280 m 1
 1700 280 l 1
 1700 250 l 1
 1240 250 l 1
 1240 280 l 1
1240 480 m 1
 1700 480 l 1
 1700 450 l 1
 1240 450 l 1
 1240 480 l 1
1710 660 m 1
 1710 -140 l 1
 1655 -150 l 1
 1650 -150 l 1
 1650 660 l 1
 1710 660 l 1
1220 646 m 1
 1280 646 l 1
 1280 40 l 1
 1220 40 l 1
 1220 646 l 1
1045 42 m 1
 1300 55 1605 85 1925 125 c 1
 1928 105 l 1
 1620 45 1330 5 1098 -17 c 1
 1095 -42 1092 -50 1085 -50 c 3
 1075 -50 1063 -30 1045 42 c 1
1890 640 m 1
 1130 640 l 1
 1060 635 l 1
 1060 675 l 1
 1130 670 l 1
 1775 670 l 1
 1815 730 l 1
 1817 730 l 1
 1890 660 l 1
 1890 640 l 1
67.999 41.8584 m 1
 179.678 47.1455 309.528 75.2295 404.687 107.94 c 1
 407.264 89.4375 l 1
 320.432 43.5107 218.005 1.68066 121.856 -15.7646 c 1
 117.297 -42.3955 113.266 -49.9297 107.318 -49.1367 c 0
 98.3975 -47.9463 88.4844 -31.4922 67.999 41.8584 c 1
270 -30 m 1
 380 -10 505 35 595 80 c 1
 600 62 l 1
 520 5 424 -50 331 -80 c 1
 330 -107 327 -115 321 -115 c 0
 312 -115 300 -100 270 -30 c 1
689 -167 m 1
 689 66 l 1
 296 7 l 1
 117 -18 l 1
 108 -36 l 1
 96 -21 l 1
 78 42 l 1
 249 57 l 1
 249 650 l 1
 82 650 l 1
 82 671 l 1
 824 671 l 1
 878 725 l 1
 942 671 l 1
 942 650 l 1
 754 650 l 1
 754 105 l 1
 968 122 l 1
 969 113 l 1
 754 76 l 1
 754 -135 l 1
 689 -167 l 1
313 63 m 1
 689 98 l 1
 689 257 l 1
 313 257 l 1
 313 63 l 1
313 279 m 1
 689 279 l 1
 689 451 l 1
 313 451 l 1
 313 279 l 1
313 472 m 1
 689 472 l 1
 689 650 l 1
 313 650 l 1
 313 472 l 1
EndSplineSet
EndChar

StartChar: uni5411
Encoding: 21521 21521 77
Width: 1000
Flags: HM
LayerCount: 2
Back
SplineSet
815 -151 m 1
 815 -119 l 1
 707 -103 l 1
 707 -87 l 1
 815 -87 l 1
 821 -86 l 1
 826 -85 l 1
 831 -84 l 1
 833 -81 l 1
 834 -77 l 1
 836 -72 l 1
 836 -65 l 1
 836 521 l 1
 175 521 l 1
 175 -124 l 1
 110 -157 l 1
 110 574 l 1
 175 542 l 1
 353 542 l 1
 390 609 l 1
 455 719 l 1
 475 755 l 1
 476 758 l 1
 481 764 l 1
 532 725 l 1
 540 707 l 1
 519 708 l 1
 488 667 l 1
 418 587 l 1
 398 567 l 1
 377 548 l 1
 371 542 l 1
 836 542 l 1
 868 569 l 1
 927 521 l 1
 901 499 l 1
 901 -65 l 1
 900 -79 l 1
 897 -92 l 1
 893 -105 l 1
 886 -117 l 1
 877 -128 l 1
 867 -137 l 1
 854 -144 l 1
 841 -148 l 1
 828 -150 l 1
 815 -151 l 1
320 -6 m 1
 320 392 l 1
 384 359 l 1
 616 359 l 1
 648 386 l 1
 707 338 l 1
 680 316 l 1
 680 58 l 1
 616 26 l 1
 616 91 l 1
 384 91 l 1
 384 26 l 1
 320 -6 l 1
384 112 m 1
 616 112 l 1
 616 338 l 1
 384 338 l 1
 384 112 l 1
EndSplineSet
EndChar

StartChar: uni9AD8
Encoding: 39640 39640 78
Width: 1000
Flags: HMW
LayerCount: 2
Back
SplineSet
945 620 m 1
 125 620 l 1
 55 615 l 1
 55 655 l 1
 125 650 l 1
 470 650 l 1
 470 715 l 1
 465 764 l 1
 467 765 l 1
 558 752 570 745 570 738 c 0
 570 733 565 727 530 717 c 1
 530 650 l 1
 830 650 l 1
 870 705 l 1
 872 705 l 1
 945 640 l 1
 945 620 l 1
835 -50 m 2
 835 250 l 1
 170 250 l 1
 170 -147 l 1
 115 -157 l 1
 110 -157 l 1
 110 313 l 1
 112 313 l 1
 180 280 l 1
 830 280 l 1
 853 315 l 1
 855 315 l 1
 900 285 925 265 925 258 c 0
 925 253 915 246 895 235 c 1
 895 -70 l 2
 895 -130 865 -145 765 -155 c 1
 765 -105 735 -95 660 -90 c 1
 660 -68 l 1
 715 -72 800 -77 815 -77 c 0
 830 -77 835 -70 835 -50 c 2
680 395 m 1
 680 510 l 1
 325 510 l 1
 325 395 l 1
 680 395 l 1
680 365 m 1
 325 365 l 1
 325 340 l 1
 270 330 l 1
 265 330 l 1
 265 573 l 1
 267 573 l 1
 335 540 l 1
 675 540 l 1
 698 572 l 1
 700 572 l 1
 745 542 770 525 770 518 c 0
 770 513 760 506 740 495 c 1
 740 350 l 1
 685 340 l 1
 680 340 l 1
 680 365 l 1
630 15 m 1
 630 140 l 1
 370 140 l 1
 370 15 l 1
 630 15 l 1
630 -15 m 1
 370 -15 l 1
 370 -50 l 1
 315 -60 l 1
 310 -60 l 1
 310 203 l 1
 312 203 l 1
 380 170 l 1
 625 170 l 1
 648 205 l 1
 650 205 l 1
 695 175 720 155 720 148 c 0
 720 143 710 136 690 125 c 1
 690 -25 l 1
 635 -35 l 1
 630 -35 l 1
 630 -15 l 1
EndSplineSet
Fore
SplineSet
617 0 m 1
 383 0 l 1
 384 -45 l 1
 310 -60 l 1
 292 -60 l 1
 295 65 l 1
 295 140 l 1
 290 215 l 1
 292 215 l 1
 393 175 l 1
 610 175 l 1
 643 218 l 1
 646 218 l 1
 705 180 737 155 737 145 c 0
 737 140 725 130 705 120 c 1
 705 75 l 1
 708 -10 l 1
 632 -25 l 1
 617 -25 l 1
 617 0 l 1
617 30 m 1
 617 145 l 1
 383 145 l 1
 383 30 l 1
 617 30 l 1
948 615 m 1
 870 620 l 1
 125 620 l 1
 55 615 l 1
 50 655 l 1
 125 650 l 1
 455 650 l 1
 455 705 l 1
 450 769 l 1
 452 770 l 1
 575 750 585 741 585 733 c 0
 585 728 580 720 545 710 c 1
 545 650 l 1
 805 650 l 1
 858 725 l 1
 860 725 l 1
 950 635 l 1
 948 615 l 1
905 -45 m 2
 905 -125 880 -150 735 -165 c 1
 735 -105 725 -85 635 -72 c 1
 635 -50 l 1
 675 -54 760 -60 780 -60 c 0
 805 -60 815 -50 815 -33 c 2
 815 255 l 1
 190 255 l 1
 190 -30 l 1
 193 -145 l 1
 115 -160 l 1
 97 -160 l 1
 100 -30 l 1
 100 250 l 1
 95 325 l 1
 97 325 l 1
 200 285 l 1
 808 285 l 1
 843 328 l 1
 846 328 l 1
 905 290 937 265 937 255 c 0
 937 250 925 240 905 230 c 1
 905 -45 l 2
660 370 m 1
 345 370 l 1
 345 340 l 1
 270 325 l 1
 252 325 l 1
 255 435 l 1
 255 505 l 1
 250 580 l 1
 252 580 l 1
 355 540 l 1
 653 540 l 1
 688 583 l 1
 691 583 l 1
 750 545 782 520 782 510 c 0
 782 505 770 495 750 485 c 1
 750 435 l 1
 753 345 l 1
 675 330 l 1
 660 330 l 1
 660 370 l 1
660 400 m 1
 660 510 l 1
 345 510 l 1
 345 400 l 1
 660 400 l 1
EndSplineSet
EndChar

StartChar: uni70B9
Encoding: 28857 28857 79
Width: 1000
Flags: HM
LayerCount: 2
Back
SplineSet
150 705 m 1
 162 722 l 1
 252 700 340 635 340 580 c 0
 340 560 322 545 305 545 c 0
 255 545 280 645 150 705 c 1
194 76 m 1
 213.909 69.9492 l 1
 226 -44 173.248 -138.372 121.033 -155.654 c 0
 102.046 -161.938 82.1504 -149.563 76.8086 -133.425 c 0
 61.0977 -85.957 182 -78 194 76 c 1
547.062 58.8965 m 1
 563.547 71.5947 l 1
 643.037 23.999 707.917 -64.0898 691.676 -116.637 c 0
 685.77 -135.745 664.143 -144.761 647.9 -139.74 c 0
 600.131 -124.975 653.546 -36.8174 547.062 58.8965 c 1
760.041 62.5674 m 1
 774 78 l 1
 880 28 954 -50 951.619 -118.387 c 0
 950.923 -138.374 929.539 -150.967 912.662 -148.921 c 0
 863.025 -142.904 912 -48 760.041 62.5674 c 1
332.573 60.6455 m 1
 351.111 70.0967 l 1
 420.495 8.69727 468.072 -74.8184 442.447 -123.484 c 0
 433.127 -141.181 410.212 -146.066 395.17 -138.145 c 0
 350.93 -114.849 419.644 -53.0146 332.573 60.6455 c 1
97 -157 m 1
 78 -142 l 1
 76 -117 l 1
 92 -98 l 1
 107 -91 l 1
 121 -82 l 1
 135 -71 l 1
 147 -58 l 1
 158 -43 l 1
 169 -24 l 1
 178 -3 l 1
 187 20 l 1
 194 46 l 1
 200 75 l 1
 210 75 l 1
 212 44 l 1
 213 15 l 1
 210 -12 l 1
 205 -37 l 1
 198 -62 l 1
 187 -84 l 1
 175 -105 l 1
 160 -124 l 1
 142 -141 l 1
 122 -156 l 1
 97 -157 l 1
930 -150 m 1
 906 -147 l 1
 890 -128 l 1
 886 -110 l 1
 881 -93 l 1
 873 -74 l 1
 864 -56 l 1
 838 -17 l 1
 787 46 l 1
 766 68 l 1
 772 76 l 1
 799 61 l 1
 824 44 l 1
 847 27 l 1
 887 -9 l 1
 903 -28 l 1
 919 -48 l 1
 932 -67 l 1
 943 -88 l 1
 952 -110 l 1
 949 -134 l 1
 930 -150 l 1
664 -140 m 1
 640 -133 l 1
 629 -112 l 1
 628 -96 l 1
 627 -80 l 1
 623 -64 l 1
 618 -47 l 1
 611 -30 l 1
 602 -13 l 1
 592 6 l 1
 580 25 l 1
 566 44 l 1
 550 63 l 1
 557 70 l 1
 598 41 l 1
 616 26 l 1
 633 9 l 1
 647 -8 l 1
 660 -25 l 1
 671 -44 l 1
 680 -64 l 1
 688 -84 l 1
 693 -105 l 1
 685 -128 l 1
 664 -140 l 1
408 -140 m 1
 387 -128 l 1
 379 -105 l 1
 382 -89 l 1
 384 -74 l 1
 384 -58 l 1
 383 -43 l 1
 380 -26 l 1
 377 -9 l 1
 371 8 l 1
 364 26 l 1
 356 44 l 1
 345 63 l 1
 352 69 l 1
 384 39 l 1
 397 23 l 1
 410 6 l 1
 420 -12 l 1
 428 -30 l 1
 435 -50 l 1
 439 -70 l 1
 443 -91 l 1
 443 -112 l 1
 431 -133 l 1
 408 -140 l 1
222 134 m 1
 222 472 l 1
 286 440 l 1
 447 440 l 1
 447 763 l 1
 512 752 l 1
 528 741 l 1
 512 731 l 1
 512 601 l 1
 765 601 l 1
 818 655 l 1
 883 601 l 1
 883 580 l 1
 512 580 l 1
 512 440 l 1
 738 440 l 1
 770 467 l 1
 829 419 l 1
 802 397 l 1
 802 171 l 1
 738 139 l 1
 738 182 l 1
 286 182 l 1
 286 166 l 1
 222 134 l 1
286 204 m 1
 738 204 l 1
 738 419 l 1
 286 419 l 1
 286 204 l 1
EndSplineSet
EndChar

StartChar: uni67F3
Encoding: 26611 26611 80
Width: 1000
Flags: HMW
LayerCount: 2
Back
SplineSet
1550 170 m 1
 1460 80 1400 32 1385 32 c 0
 1376 32 1360 50 1323 110 c 1
 1400 135 1480 165 1550 200 c 1
 1550 170 l 1
1935 105 m 1
 1935 30 1915 5 1815 -10 c 1
 1815 40 1800 62 1740 75 c 1
 1740 97 l 1
 1775 93 1805 90 1825 90 c 0
 1845 90 1850 100 1850 117 c 1
 1850 605 l 1
 1765 605 l 1
 1765 -30 l 1
 1768 -145 l 1
 1695 -160 l 1
 1677 -160 l 1
 1680 -30 l 1
 1680 600 l 1
 1675 675 l 1
 1677 675 l 1
 1775 635 l 1
 1843 635 l 1
 1878 678 l 1
 1881 678 l 1
 1937 640 1967 615 1967 605 c 0
 1967 600 1955 590 1935 580 c 1
 1935 105 l 1
1465 605 m 1
 1465 130 l 1
 1425 110 l 1
 1380 100 l 1
 1380 600 l 1
 1375 675 l 1
 1377 675 l 1
 1465 635 l 1
 1515 665 1555 705 1585 745 c 1
 1655 685 1669 665 1669 655 c 3
 1669 650 1664 647 1655 647 c 3
 1650 647 1641 648 1632 650 c 1
 1590 635 1530 615 1465 605 c 1
1545 255 m 1
 1545 490 l 1
 1540 554 l 1
 1542 555 l 1
 1655 535 1665 526 1665 518 c 0
 1665 513 1660 505 1630 495 c 1
 1630 245 l 1
 1630 35 1565 -95 1400 -150 c 1
 1390 -135 l 1
 1500 -60 1545 55 1545 255 c 1
1240 360 m 1
 1240 385 l 1
 1305 365 1370 320 1370 275 c 0
 1370 247 1350 225 1325 225 c 0
 1275 225 1300 285 1240 360 c 1
1130 505 m 9
 1163 510 l 25
 1158 320 l 17
 1140 225 1100 135 1035 55 c 9
 1020 65 l 17
 1080 200 1115 360 1130 505 c 9
1155 -150 m 1
 1158 -20 l 1
 1158 695 l 1
 1153 759 l 1
 1155 760 l 1
 1278 740 1283 731 1283 723 c 0
 1283 718 1278 710 1243 700 c 1
 1243 -20 l 1
 1246 -135 l 1
 1173 -150 l 1
 1155 -150 l 1
1356 500 m 1
 1293 505 l 1
 1105 505 l 1
 1035 500 l 1
 1030 540 l 1
 1105 535 l 1
 1258 535 l 1
 1291 590 l 1
 1293 590 l 1
 1358 520 l 1
 1356 500 l 1
688.404 244.567 m 1
 541.725 122.876 406.701 34.1699 392.002 31.1797 c 0
 383.183 29.3848 368.416 46.79 328 110 c 1
 439.659 148.028 575.766 206.34 681.477 263.568 c 1
 688.404 244.567 l 1
590 745 m 1
 662.68 683.424 691.608 653.893 689.053 643.193 c 0
 686.961 634.439 671.442 634.035 642.031 640.034 c 1
 578.51 567.819 464.032 497.498 346.802 458.68 c 1
 334.536 471.892 l 1
 458.524 560.503 542.445 653.548 590 745 c 1
630 278 m 2
 630 18 550 -90 405 -145 c 1
 395 -130 l 1
 510 -60 554 12 566 172 c 1
 513 131 463 95 400 60 c 1
 400 34 397 27 391 27 c 0
 382 27 369 41 335 108 c 1
 356 114 376 120 395 127 c 1
 395 595 l 1
 390 644 l 1
 392 645 l 1
 455 630 l 1
 515 660 565 695 605 740 c 1
 650 695 668 675 668 665 c 0
 668 660 664 658 660 658 c 0
 654 658 645 660 628 666 c 1
 580 640 515 617 455 605 c 1
 455 150 l 1
 495 167 532 186 568 205 c 1
 569 231 570 258 570 288 c 2
 570 500 l 1
 565 549 l 1
 567 550 l 1
 648 537 660 530 660 523 c 0
 660 518 655 512 630 502 c 1
 630 278 l 2
688 -155 m 1
 688 658 l 1
 690 658 l 1
 755 625 l 1
 860 625 l 1
 883 660 l 1
 885 660 l 1
 930 630 955 610 955 603 c 0
 955 598 945 591 925 580 c 1
 925 80 l 2
 925 20 895 5 820 -5 c 1
 820 45 800 55 755 60 c 1
 755 82 l 1
 785 78 830 73 845 73 c 0
 860 73 865 80 865 100 c 2
 865 595 l 1
 745 595 l 1
 745 -145 l 1
 693 -155 l 1
 688 -155 l 1
235 385 m 1
 300 365 370 320 370 275 c 0
 370 255 352 235 332 235 c 0
 295 235 310 300 235 360 c 1
 235 -135 l 1
 182 -145 l 1
 177 -145 l 1
 177 360 l 1
 152 250 112 150 39 55 c 1
 27 65 l 1
 92 205 127 355 147 505 c 1
 102 505 l 1
 42 500 l 1
 42 540 l 1
 102 535 l 1
 177 535 l 1
 177 705 l 1
 172 754 l 1
 174 755 l 1
 263 742 275 735 275 728 c 0
 275 723 270 717 235 707 c 1
 235 535 l 1
 260 535 l 1
 295 590 l 1
 297 590 l 1
 360 525 l 1
 360 505 l 1
 235 505 l 1
 235 385 l 1
EndSplineSet
Fore
SplineSet
765 94 m 1
 789 91 810 90 825 90 c 0
 845 90 850 100 850 117 c 2
 850 605 l 1
 765 605 l 1
 765 94 l 1
935 105 m 2
 935 30 915 5 815 -10 c 1
 815 32 804 54 765 68 c 1
 765 -30 l 1
 768 -145 l 1
 695 -160 l 1
 677 -160 l 1
 680 -30 l 1
 680 600 l 1
 675 675 l 1
 677 675 l 1
 775 635 l 1
 843 635 l 1
 878 678 l 1
 881 678 l 1
 937 640 967 615 967 605 c 0
 967 600 955 590 935 580 c 1
 935 105 l 2
545 255 m 2
 545 490 l 1
 540 554 l 1
 542 555 l 1
 655 535 665 526 665 518 c 0
 665 513 660 505 630 495 c 1
 630 245 l 2
 630 35 565 -95 400 -150 c 1
 390 -135 l 1
 482 -73 528 17 541 161 c 1
 456 77 399 32 385 32 c 0
 376 32 360 50 323 110 c 1
 342 116 361 122 380 129 c 1
 380 600 l 1
 375 675 l 1
 377 675 l 1
 465 635 l 1
 515 665 555 705 585 745 c 1
 655 685 669 665 669 655 c 0
 669 650 664 647 655 647 c 0
 650 647 641 648 632 650 c 1
 590 635 530 615 465 605 c 1
 465 162 l 1
 492 173 519 185 544 197 c 1
 545 216 545 235 545 255 c 2
356 500 m 1
 293 505 l 1
 243 505 l 1
 243 384 l 1
 307 364 370 319 370 275 c 0
 370 247 350 225 325 225 c 0
 276 225 299 283 243 356 c 1
 243 -20 l 1
 246 -135 l 1
 173 -150 l 1
 155 -150 l 1
 158 -20 l 1
 158 320 l 1
 140 225 100 135 35 55 c 1
 20 65 l 1
 80 200 115 360 130 505 c 1
 105 505 l 1
 35 500 l 1
 30 540 l 1
 105 535 l 1
 158 535 l 1
 158 695 l 1
 153 759 l 1
 155 760 l 1
 278 740 283 731 283 723 c 0
 283 718 278 710 243 700 c 1
 243 535 l 1
 265 535 l 1
 295 590 l 1
 297 590 l 1
 358 520 l 1
 356 500 l 1
EndSplineSet
EndChar

StartChar: uni4F55
Encoding: 20309 20309 81
Width: 1000
Flags: HM
LayerCount: 2
Back
SplineSet
-400 225 m 1
 -275 400 -175 605 -145 760 c 1
 -80 735 -56 724 -56 713 c 3
 -56 706 -73 703 -95 702 c 1
 -137 559 -240 355 -385 213 c 1
 -400 225 l 1
-244 470 m 1
 -156 457 -144 450 -144 443 c 0
 -144 438 -149 432 -184 422 c 1
 -184 -135 l 1
 -239 -145 l 1
 -244 -145 l 1
 -244 470 l 1
98.6426 431.427 m 1
 194.047 540.621 262.723 667.442 284.356 759.811 c 1
 349.838 735.705 373.027 723.778 373.943 713.82 c 0
 374.585 706.85 359.83 703.485 334.936 701.195 c 1
 293.111 609.983 223.05 509.145 111.601 421.572 c 1
 98.6426 431.427 l 1
791 -167 m 1
 791 -135 l 1
 684 -119 l 1
 684 -103 l 1
 791 -103 l 1
 798 -102 l 1
 803 -101 l 1
 807 -100 l 1
 810 -98 l 1
 811 -93 l 1
 812 -88 l 1
 813 -81 l 1
 813 650 l 1
 337 650 l 1
 337 671 l 1
 858 671 l 1
 912 725 l 1
 977 671 l 1
 977 650 l 1
 877 650 l 1
 877 -81 l 1
 876 -95 l 1
 874 -108 l 1
 870 -121 l 1
 863 -134 l 1
 854 -144 l 1
 843 -153 l 1
 831 -160 l 1
 818 -164 l 1
 805 -166 l 1
 791 -167 l 1
181 -167 m 1
 181 408 l 1
 149 361 l 1
 112 311 l 1
 74 263 l 1
 34 217 l 1
 26 223 l 1
 89 327 l 1
 149 434 l 1
 205 543 l 1
 257 657 l 1
 307 783 l 1
 364 751 l 1
 375 735 l 1
 355 732 l 1
 309 633 l 1
 280 576 l 1
 249 520 l 1
 212 456 l 1
 245 451 l 1
 261 440 l 1
 245 430 l 1
 245 -135 l 1
 181 -167 l 1
404 85 m 1
 404 515 l 1
 469 483 l 1
 621 483 l 1
 654 510 l 1
 713 462 l 1
 686 440 l 1
 686 150 l 1
 621 118 l 1
 621 182 l 1
 469 182 l 1
 469 118 l 1
 404 85 l 1
469 204 m 1
 621 204 l 1
 621 462 l 1
 469 462 l 1
 469 204 l 1
EndSplineSet
EndChar

StartChar: uni5148
Encoding: 20808 20808 82
Width: 1000
Flags: HM
LayerCount: 2
Back
SplineSet
-280 370 m 1
 -195 490 -130 635 -115 730 c 1
 -45 710 -22 700 -22 690 c 3
 -22 685 -30 680 -60 675 c 1
 -95 580 -165 460 -268 361 c 1
 -280 370 l 1
104.71 388.485 m 1
 191.562 504.596 250.43 636.257 265 730 c 1
 332.121 710.927 356.147 700.792 357.815 690.932 c 0
 358.982 684.029 344.526 679.557 319.876 675.387 c 1
 285.086 581.267 222.868 475.408 118.376 379.641 c 1
 104.71 388.485 l 1
669 -124 m 1
 655 -123 l 1
 641 -121 l 1
 628 -117 l 1
 616 -110 l 1
 605 -101 l 1
 597 -91 l 1
 590 -78 l 1
 585 -65 l 1
 583 -52 l 1
 583 -38 l 1
 583 284 l 1
 371 284 l 1
 420 271 l 1
 436 259 l 1
 417 250 l 1
 410 206 l 1
 394 145 l 1
 371 89 l 1
 342 38 l 1
 307 -8 l 1
 266 -49 l 1
 219 -84 l 1
 167 -114 l 1
 110 -138 l 1
 46 -156 l 1
 43 -146 l 1
 101 -119 l 1
 153 -89 l 1
 198 -56 l 1
 238 -19 l 1
 271 21 l 1
 299 64 l 1
 322 111 l 1
 339 162 l 1
 350 217 l 1
 356 271 l 1
 357 284 l 1
 61 284 l 1
 61 306 l 1
 470 306 l 1
 470 548 l 1
 257 548 l 1
 217 483 l 1
 192 450 l 1
 166 419 l 1
 138 389 l 1
 107 362 l 1
 100 368 l 1
 163 470 l 1
 199 539 l 1
 230 610 l 1
 243 648 l 1
 255 685 l 1
 265 724 l 1
 268 733 l 1
 327 706 l 1
 340 691 l 1
 320 686 l 1
 313 666 l 1
 297 627 l 1
 279 589 l 1
 269 569 l 1
 470 569 l 1
 470 757 l 1
 534 747 l 1
 550 736 l 1
 534 726 l 1
 534 569 l 1
 739 569 l 1
 792 623 l 1
 857 569 l 1
 857 548 l 1
 534 548 l 1
 534 306 l 1
 825 306 l 1
 878 359 l 1
 943 306 l 1
 943 284 l 1
 647 284 l 1
 647 -45 l 1
 648 -50 l 1
 650 -55 l 1
 652 -57 l 1
 657 -58 l 1
 662 -59 l 1
 669 -60 l 1
 885 -60 l 1
 916 75 l 1
 927 75 l 1
 916 -60 l 1
 935 -73 l 1
 948 -92 l 1
 935 -112 l 1
 916 -124 l 1
 669 -124 l 1
EndSplineSet
EndChar

StartChar: uni5217
Encoding: 21015 21015 83
Width: 1000
Flags: HM
LayerCount: 2
Back
SplineSet
1190 290 m 1
 1195 310 l 1
 1295 285 1366 230 1366 180 c 3
 1366 160 1350 142 1330 142 c 3
 1280 142 1310 225 1190 290 c 1
1455 450 m 1
 1260 450 l 1
 1250 470 l 1
 1260 480 l 1
 1450 480 l 1
 1473 515 l 1
 1475 515 l 1
 1520 485 1545 465 1545 458 c 0
 1545 453 1535 446 1515 435 c 1
 1465 150 1330 -40 1067 -162 c 9
 1060 -145 l 17
 1285 -10 1410 190 1455 450 c 1
1270 665 m 9
 1335 665 l 17
 1295 425 1210 255 1060 125 c 9
 1050 140 l 17
 1175 285 1240 455 1270 665 c 9
1630 55 m 1
 1630 585 l 1
 1625 634 l 1
 1627 635 l 1
 1718 622 1730 615 1730 608 c 0
 1730 603 1725 597 1690 587 c 1
 1690 65 l 1
 1635 55 l 1
 1630 55 l 1
1905 702 m 1
 1905 -60 l 2
 1905 -120 1875 -135 1780 -145 c 1
 1780 -95 1755 -85 1685 -80 c 1
 1685 -58 l 1
 1730 -62 1810 -67 1825 -67 c 0
 1840 -67 1845 -60 1845 -40 c 2
 1845 700 l 1
 1840 749 l 1
 1842 750 l 1
 1933 737 1945 730 1945 723 c 0
 1945 718 1940 712 1905 702 c 1
1600 665 m 1
 1130 665 l 1
 1060 660 l 1
 1060 700 l 1
 1130 695 l 1
 1485 695 l 1
 1525 750 l 1
 1527 750 l 1
 1600 685 l 1
 1600 665 l 1
171.544 292.688 m 1
 180.877 310.205 l 1
 270.98 298.79 348.305 248.174 368.049 196.84 c 0
 375.229 178.173 369.341 154.48 346.008 145.506 c 0
 290.007 123.967 312.981 245.302 171.544 292.688 c 1
50 -172 m 1
 46 -163 l 1
 112 -122 l 1
 171 -77 l 1
 225 -27 l 1
 272 27 l 1
 314 87 l 1
 349 152 l 1
 379 223 l 1
 404 300 l 1
 422 383 l 1
 434 456 l 1
 261 456 l 1
 251 434 l 1
 226 382 l 1
 197 333 l 1
 181 309 l 1
 207 301 l 1
 227 293 l 1
 247 284 l 1
 264 272 l 1
 281 259 l 1
 296 245 l 1
 309 229 l 1
 321 211 l 1
 331 192 l 1
 329 168 l 1
 311 151 l 1
 286 152 l 1
 270 171 l 1
 266 186 l 1
 261 200 l 1
 254 214 l 1
 246 228 l 1
 236 241 l 1
 225 255 l 1
 211 268 l 1
 179 294 l 1
 173 297 l 1
 131 243 l 1
 93 204 l 1
 51 168 l 1
 45 175 l 1
 77 217 l 1
 108 261 l 1
 136 306 l 1
 162 353 l 1
 185 402 l 1
 205 454 l 1
 224 507 l 1
 239 563 l 1
 252 621 l 1
 260 666 l 1
 48 666 l 1
 48 687 l 1
 439 687 l 1
 493 741 l 1
 557 687 l 1
 557 666 l 1
 325 666 l 1
 312 608 l 1
 294 548 l 1
 275 490 l 1
 270 478 l 1
 435 478 l 1
 468 505 l 1
 527 456 l 1
 500 440 l 1
 495 438 l 1
 483 371 l 1
 460 284 l 1
 430 204 l 1
 394 130 l 1
 352 62 l 1
 304 1 l 1
 249 -53 l 1
 189 -100 l 1
 122 -139 l 1
 50 -172 l 1
826 -162 m 1
 826 -130 l 1
 719 -114 l 1
 719 -98 l 1
 826 -98 l 1
 833 -97 l 1
 837 -96 l 1
 842 -94 l 1
 844 -92 l 1
 846 -87 l 1
 847 -82 l 1
 848 -76 l 1
 848 773 l 1
 912 763 l 1
 928 752 l 1
 912 742 l 1
 912 -76 l 1
 911 -89 l 1
 909 -103 l 1
 905 -116 l 1
 898 -128 l 1
 889 -139 l 1
 878 -148 l 1
 866 -155 l 1
 853 -159 l 1
 840 -161 l 1
 826 -162 l 1
620 15 m 1
 620 693 l 1
 685 682 l 1
 701 671 l 1
 685 662 l 1
 685 48 l 1
 620 15 l 1
EndSplineSet
EndChar

StartChar: uni51AC
Encoding: 20908 20908 84
Width: 1000
Flags: HM
LayerCount: 2
Back
SplineSet
1646 42 m 3
 1600 42 1605 120 1435 182 c 1
 1440 200 l 1
 1555 185 1680 135 1680 80 c 0
 1680 60 1661 42 1646 42 c 3
1285 40 m 1
 1290 55 l 1
 1485 35 1710 -55 1710 -125 c 3
 1710 -145 1690 -160 1675 -160 c 3
 1620 -160 1595 -40 1285 40 c 1
1080 330 m 1
 1240 475 1320 605 1370 763 c 1
 1439 740 1462 729 1462 718 c 3
 1462 712 1451 707 1427 705 c 1
 1355 555 1250 420 1088 315 c 1
 1080 330 l 1
1335 570 m 1
 1335 585 l 1
 1350 585 l 1
 1510 390 1770 210 1950 180 c 1
 1950 165 l 1
 1920 165 1895 145 1890 115 c 1
 1720 170 1475 355 1335 570 c 1
1650 645 m 1
 1673 682 l 1
 1675 682 l 1
 1723 647 1747 627 1747 619 c 0
 1747 614 1735 608 1715 600 c 1
 1575 350 1350 175 1058 90 c 1
 1050 105 l 1
 1320 215 1525 385 1645 615 c 1
 1350 615 l 1
 1360 645 l 1
 1650 645 l 1
378 -132 m 1
 362 -121 l 1
 333 -64 l 1
 750 70 l 1
 803 86 l 1
 806 77 l 1
 709 27 l 1
 526 -54 l 1
 401 -105 l 1
 383 -113 l 1
 378 -132 l 1
167.323 68.876 m 1
 173.693 85.7412 l 1
 391.808 74.498 675.88 -44.6777 691.62 -112.885 c 0
 695.668 -130.424 680.003 -151.486 662.464 -155.533 c 0
 613.744 -166.776 568.322 -23.3164 167.323 68.876 c 1
661.668 -154.928 m 1
 639.013 -148.032 l 1
 606.508 -121.438 l 1
 574.003 -95.8271 l 1
 540.513 -73.1729 l 1
 505.053 -51.5029 l 1
 468.607 -30.8174 l 1
 430.192 -13.0879 l 1
 391.777 3.65723 l 1
 351.393 18.4326 l 1
 310.022 33.207 l 1
 267.668 46.0127 l 1
 269.638 55.8623 l 1
 314.947 52.9072 l 1
 359.272 46.0127 l 1
 402.612 37.1475 l 1
 444.968 24.3428 l 1
 486.338 9.56738 l 1
 527.707 -7.17773 l 1
 567.107 -26.8779 l 1
 605.522 -48.5479 l 1
 642.952 -72.1875 l 1
 679.397 -98.7822 l 1
 690.232 -120.452 l 1
 683.338 -144.093 l 1
 661.668 -154.928 l 1
605.522 74.5771 m 1
 583.853 84.4277 l 1
 570.062 102.157 l 1
 555.287 117.918 l 1
 523.768 147.468 l 1
 506.037 161.258 l 1
 488.308 174.062 l 1
 469.593 186.867 l 1
 427.237 209.522 l 1
 405.567 220.357 l 1
 407.537 230.207 l 1
 433.147 227.253 l 1
 457.772 223.312 l 1
 482.397 216.418 l 1
 506.037 208.537 l 1
 528.692 198.688 l 1
 550.362 187.853 l 1
 572.032 175.048 l 1
 612.418 144.513 l 1
 631.133 127.768 l 1
 639.013 104.128 l 1
 629.162 82.457 l 1
 605.522 74.5771 l 1
676.442 654.742 m 1
 680.383 659.668 l 1
 681.367 659.668 l 1
 708.947 681.338 l 1
 767.062 634.058 l 1
 740.468 618.298 l 1
 724.707 611.402 l 1
 689.247 552.303 l 1
 637.043 478.428 l 1
 578.928 411.447 l 1
 560.213 391.747 l 1
 591.732 365.152 l 1
 650.832 322.798 l 1
 713.872 286.353 l 1
 782.822 251.878 l 1
 856.697 222.327 l 1
 935.497 195.732 l 1
 976.867 182.928 l 1
 914.812 129.737 l 1
 832.072 160.272 l 1
 756.228 195.732 l 1
 684.322 235.133 l 1
 619.312 278.473 l 1
 561.197 326.737 l 1
 527.707 360.228 l 1
 516.872 349.393 l 1
 449.893 292.263 l 1
 377.987 241.043 l 1
 301.157 195.732 l 1
 219.402 156.332 l 1
 133.707 122.843 l 1
 42.1025 95.2627 l 1
 40.1328 104.128 l 1
 125.827 140.572 l 1
 207.582 180.957 l 1
 284.412 225.282 l 1
 355.332 274.532 l 1
 421.327 327.723 l 1
 483.383 384.853 l 1
 493.232 395.688 l 1
 460.728 435.088 l 1
 420.343 495.173 l 1
 386.853 559.197 l 1
 369.122 609.433 l 1
 335.633 558.213 l 1
 305.098 517.827 l 1
 271.607 480.397 l 1
 235.162 444.938 l 1
 194.777 413.418 l 1
 152.423 384.853 l 1
 107.112 360.228 l 1
 102.188 368.107 l 1
 140.603 400.612 l 1
 177.048 435.088 l 1
 210.537 469.562 l 1
 241.072 506.008 l 1
 268.652 544.423 l 1
 294.263 584.808 l 1
 316.918 627.162 l 1
 336.617 671.487 l 1
 354.348 716.798 l 1
 369.122 766.048 l 1
 372.077 773.928 l 1
 430.192 746.348 l 1
 442.013 731.572 l 1
 422.312 727.633 l 1
 411.478 696.112 l 1
 392.763 654.742 l 1
 676.442 654.742 l 1
521.798 427.207 m 1
 539.527 446.907 l 1
 590.747 512.902 l 1
 638.027 583.822 l 1
 666.593 634.058 l 1
 380.942 634.058 l 1
 376.018 623.223 l 1
 406.553 570.032 l 1
 446.938 512.902 l 1
 490.277 459.713 l 1
 521.798 427.207 l 1
EndSplineSet
EndChar

StartChar: uni5439
Encoding: 21561 21561 85
Width: 1000
Flags: HM
LayerCount: 2
Back
SplineSet
1360 310 m 1
 1440 455 1490 605 1505 740 c 1
 1575 730 1602 722 1602 711 c 3
 1602 705 1590 700 1567 693 c 1
 1535 565 1480 420 1375 300 c 1
 1360 310 l 1
1650 360 m 1
 1650 450 l 1
 1658 450 l 1
 1673 175 1815 -5 1955 -80 c 1
 1955 -95 l 1
 1925 -95 1900 -115 1895 -145 c 1
 1755 -25 1660 145 1650 360 c 1
1660 490 m 1
 1660 160 1550 -50 1290 -160 c 9
 1283 -142 l 17
 1505 -15 1600 160 1600 480 c 1
 1600 550 l 1
 1660 550 l 1
 1660 490 l 1
1845 570 m 1
 1868 607 l 1
 1870 607 l 1
 1920 568 1943 548 1943 540 c 0
 1943 535 1930 530 1910 525 c 1
 1880 475 1835 420 1775 370 c 1
 1762 380 l 1
 1795 430 1830 495 1845 540 c 1
 1500 540 l 1
 1510 570 l 1
 1845 570 l 1
1280 68 m 1
 1280 125 l 1
 1125 125 l 1
 1125 45 l 1
 1070 35 l 1
 1065 35 l 1
 1065 668 l 1
 1067 668 l 1
 1135 635 l 1
 1275 635 l 1
 1298 670 l 1
 1300 670 l 1
 1345 640 1370 620 1370 613 c 0
 1370 608 1360 601 1340 590 c 1
 1340 80 l 1
 1285 70 l 1
 1280 68 l 1
1280 155 m 1
 1280 605 l 1
 1125 605 l 1
 1125 155 l 1
 1280 155 l 1
409.364 380.758 m 1
 480.713 506.989 522.324 645.078 524.83 739.914 c 1
 593.834 729.549 618.957 722.558 621.867 712.991 c 0
 623.905 706.294 610.137 700.016 586.219 692.738 c 1
 563.705 594.953 515.483 482.029 424.046 373.728 c 1
 409.364 380.758 l 1
865 521 m 1
 870 528 l 1
 872 527 l 1
 898 548 l 1
 957 499 l 1
 930 483 l 1
 909 474 l 1
 889 451 l 1
 841 403 l 1
 803 367 l 1
 759 330 l 1
 752 336 l 1
 836 466 l 1
 855 499 l 1
 675 499 l 1
 670 402 l 1
 661 337 l 1
 671 284 l 1
 685 229 l 1
 703 178 l 1
 725 130 l 1
 750 86 l 1
 780 46 l 1
 815 9 l 1
 854 -24 l 1
 897 -55 l 1
 970 -96 l 1
 910 -144 l 1
 858 -110 l 1
 812 -73 l 1
 772 -32 l 1
 737 13 l 1
 707 61 l 1
 684 112 l 1
 666 165 l 1
 654 222 l 1
 650 270 l 1
 636 211 l 1
 608 128 l 1
 571 55 l 1
 527 -10 l 1
 476 -64 l 1
 417 -109 l 1
 350 -143 l 1
 278 -166 l 1
 275 -157 l 1
 342 -124 l 1
 400 -85 l 1
 451 -39 l 1
 495 15 l 1
 532 76 l 1
 561 146 l 1
 584 224 l 1
 600 311 l 1
 609 406 l 1
 611 499 l 1
 519 499 l 1
 498 470 l 1
 470 436 l 1
 438 403 l 1
 404 372 l 1
 397 379 l 1
 447 453 l 1
 490 528 l 1
 509 565 l 1
 526 604 l 1
 541 643 l 1
 554 683 l 1
 565 724 l 1
 574 760 l 1
 577 774 l 1
 637 750 l 1
 651 736 l 1
 632 730 l 1
 625 706 l 1
 609 664 l 1
 591 623 l 1
 571 583 l 1
 549 544 l 1
 534 521 l 1
 865 521 l 1
71 30 m 1
 71 657 l 1
 135 624 l 1
 296 624 l 1
 328 651 l 1
 387 603 l 1
 360 581 l 1
 360 95 l 1
 296 63 l 1
 296 127 l 1
 135 127 l 1
 135 63 l 1
 71 30 l 1
135 149 m 1
 296 149 l 1
 296 603 l 1
 135 603 l 1
 135 149 l 1
EndSplineSet
EndChar

StartChar: uni540D
Encoding: 21517 21517 86
Width: 1000
Flags: HMW
LayerCount: 2
Back
SplineSet
690 660 m 1
 713 697 l 1
 715 697 l 1
 763 662 787 642 787 634 c 0
 787 629 775 623 755 615 c 1
 674 470 553 346 408 250 c 1
 825 250 l 1
 848 285 l 1
 850 285 l 1
 895 255 920 235 920 228 c 0
 920 223 910 216 890 205 c 1
 890 -125 l 1
 835 -135 l 1
 830 -135 l 1
 830 -90 l 1
 405 -90 l 1
 405 -135 l 1
 350 -145 l 1
 345 -145 l 1
 345 211 l 1
 256 160 159 119 58 90 c 1
 50 105 l 1
 320 215 560 400 685 630 c 1
 415 630 l 1
 389 596 361 562 331 530 c 1
 419 503 490 452 490 400 c 0
 490 380 472 365 455 365 c 0
 406 365 428 441 315 514 c 1
 251 449 177 391 90 347 c 1
 80 360 l 1
 225 465 360 615 415 765 c 1
 480 734 501 721 501 710 c 0
 501 704 490 700 465 700 c 1
 456 687 447 673 437 660 c 1
 690 660 l 1
830 -60 m 1
 830 220 l 1
 405 220 l 1
 405 -60 l 1
 830 -60 l 1
EndSplineSet
Fore
SplineSet
150 500 m 0
 150 583 217 650 300 650 c 0
 383 650 450 583 450 500 c 0
 450 417 383 350 300 350 c 0
 217 350 150 417 150 500 c 0
EndSplineSet
EndChar

StartChar: uni5B89
Encoding: 23433 23433 87
Width: 1000
Flags: HM
LayerCount: 2
Back
SplineSet
1685 320 m 9
 1750 320 l 17
 1670 5 1480 -130 1105 -155 c 9
 1100 -137 l 17
 1400 -85 1605 15 1685 320 c 9
1215 50 m 1
 1307 210 1371 348 1429 500 c 1
 1443 547 l 1
 1446 548 l 1
 1515 511 1534 501 1534 491 c 3
 1534 483 1522 483 1488 483 c 1
 1440 345 1362 185 1272 31 c 1
 1220 47 l 1
 1215 50 l 1
1305 110 m 1
 1314 128 l 1
 1555 85 1875 -45 1875 -110 c 0
 1875 -132 1860 -150 1840 -150 c 0
 1798 -150 1781 -104 1675 -40 c 0
 1602.99 3.47852 1505 55 1305 110 c 1
1960 320 m 1
 1130 320 l 1
 1060 315 l 1
 1060 355 l 1
 1130 350 l 1
 1840 350 l 1
 1882 412 l 1
 1884 412 l 1
 1960 340 l 1
 1960 320 l 1
1085 412 m 3
 1065 412 1052 430 1052 445 c 3
 1052 485 1115 495 1130 660 c 9
 1150 659 l 17
 1155 640 1160 605 1160 580 c 3
 1160 485 1130 412 1085 412 c 3
1140 575 m 1
 1140 605 l 1
 1480 605 l 1
 1480 710 l 1
 1475 759 l 1
 1477 760 l 1
 1568 747 1580 740 1580 733 c 0
 1580 728 1575 722 1540 712 c 1
 1540 605 l 1
 1870 605 l 1
 1893 642 l 1
 1895 642 l 1
 1945 603 1968 583 1968 575 c 0
 1968 570 1955 565 1935 560 c 1
 1910 520 1872 480 1828 445 c 1
 1815 455 l 1
 1840 495 1857 535 1870 575 c 1
 1140 575 l 1
27 -90 m 1
 138.204 110.668 220.824 297.48 289.063 499.888 c 1
 302.994 547.363 l 1
 306.032 548.241 l 1
 374.6 511.438 394.18 500.638 393.775 490.646 c 0
 393.451 482.652 380.422 482.179 348.448 483.473 c 1
 280.371 285.063 192.351 88.4609 84.2656 -109.331 c 1
 31.875 -93.1992 l 1
 27 -90 l 1
77 50 m 1
 188.204 250.668 270.824 437.48 339.063 639.888 c 1
 352.994 687.363 l 1
 356.032 688.241 l 1
 424.6 651.438 444.18 640.638 443.775 630.646 c 0
 443.451 622.652 430.422 622.179 398.448 623.473 c 1
 330.371 425.063 242.351 228.461 134.266 30.6689 c 1
 81.875 46.8008 l 1
 77 50 l 1
315 120.425 m 1
 384 107.825 463 84.9873 540 57.4248 c 1
 603 122.787 649 207.838 675 318.875 c 1
 421 318.875 l 1
 389 252.725 354 186.575 315 120.425 c 1
830 -149.688 m 3
 770 -149.688 786 -85.9004 567 10.1748 c 1
 460 -84.3252 306 -138.662 95 -153.625 c 1
 90 -139.45 l 1
 264 -111.1 410 -62.2754 517 32.2246 c 1
 460 55.0625 390 79.4746 307 105.463 c 1
 294 82.625 279 60.5752 265 37.7373 c 1
 212 48.7627 l 1
 207 51.125 l 1
 265 142.475 315 230.675 358 318.875 c 1
 125 318.875 l 1
 55 314.938 l 1
 55 346.438 l 1
 125 342.5 l 1
 369 342.5 l 1
 397 402.35 422 462.2 445 523.625 c 1
 457 561.425 l 1
 460 562.213 l 1
 530 535.438 550 527.562 550 519.688 c 0
 550 513.388 537 512.6 505 512.6 c 1
 483 455.9 460 399.2 433 342.5 c 1
 825 342.5 l 1
 867 391.325 l 1
 869 391.325 l 1
 945 334.625 l 1
 945 318.875 l 1
 740 318.875 l 1
 712 203.9 665 109.4 595 36.9502 c 1
 742 -19.75 865 -86.6875 865 -118.188 c 0
 865 -135.513 850 -149.688 830 -149.688 c 3
80.6113 414.909 m 0
 63.0596 411.45 44.5459 422.07 41.0654 439.73 c 0
 32.751 481.919 132.01 490.27 119.534 657.004 c 9
 140.123 655.966 l 17
 144.005 641.442 146.905 626.726 147.872 621.819 c 0
 166.241 528.612 134.573 425.544 80.6113 414.909 c 0
840 -162 m 1
 817 -153 l 1
 781 -117 l 1
 742 -84 l 1
 700 -53 l 1
 656 -24 l 1
 608 3 l 1
 572 21 l 1
 531 -16 l 1
 463 -60 l 1
 384 -96 l 1
 294 -125 l 1
 194 -146 l 1
 83 -159 l 1
 82 -150 l 1
 190 -126 l 1
 286 -97 l 1
 370 -64 l 1
 442 -24 l 1
 502 20 l 1
 525 42 l 1
 449 71 l 1
 391 90 l 1
 335 106 l 1
 306 34 l 1
 235 27 l 1
 343 306 l 1
 40 306 l 1
 40 328 l 1
 351 328 l 1
 436 544 l 1
 492 510 l 1
 503 495 l 1
 485 491 l 1
 421 328 l 1
 846 328 l 1
 900 381 l 1
 964 328 l 1
 964 306 l 1
 699 306 l 1
 691 236 l 1
 669 162 l 1
 634 95 l 1
 603 54 l 1
 628 44 l 1
 680 20 l 1
 730 -7 l 1
 777 -38 l 1
 821 -71 l 1
 862 -107 l 1
 872 -130 l 1
 863 -153 l 1
 840 -162 l 1
553 72 m 1
 588 123 l 1
 614 182 l 1
 630 247 l 1
 635 306 l 1
 413 306 l 1
 339 116 l 1
 395 110 l 1
 457 99 l 1
 517 84 l 1
 553 72 l 1
878 607 m 1
 882 612 l 1
 883 611 l 1
 911 634 l 1
 970 585 l 1
 943 569 l 1
 923 561 l 1
 909 543 l 1
 857 484 l 1
 823 452 l 1
 807 434 l 1
 799 440 l 1
 811 462 l 1
 865 571 l 1
 872 585 l 1
 143 585 l 1
 143 567 l 1
 142 539 l 1
 138 513 l 1
 132 488 l 1
 123 465 l 1
 112 444 l 1
 98 426 l 1
 82 410 l 1
 58 405 l 1
 37 418 l 1
 32 442 l 1
 45 463 l 1
 56 470 l 1
 67 479 l 1
 77 491 l 1
 86 507 l 1
 96 525 l 1
 104 547 l 1
 111 572 l 1
 117 600 l 1
 122 631 l 1
 126 665 l 1
 136 665 l 1
 140 630 l 1
 142 607 l 1
 470 607 l 1
 470 777 l 1
 534 766 l 1
 550 756 l 1
 534 746 l 1
 534 607 l 1
 878 607 l 1
EndSplineSet
EndChar

StartChar: uni6253
Encoding: 25171 25171 88
Width: 1000
Flags: HM
LayerCount: 2
Back
SplineSet
1700 640 m 1
 1525 640 l 1
 1455 635 l 1
 1455 675 l 1
 1525 670 l 1
 1820 670 l 1
 1862 730 l 1
 1864 730 l 1
 1940 660 l 1
 1940 640 l 1
 1760 640 l 1
 1760 -60 l 2
 1760 -120 1730 -135 1630 -145 c 1
 1630 -95 1605 -85 1530 -80 c 1
 1530 -58 l 1
 1580 -62 1665 -67 1680 -67 c 0
 1695 -67 1700 -60 1700 -40 c 2
 1700 640 l 1
1290 -60 m 1
 1290 -120 1260 -135 1165 -145 c 1
 1165 -95 1140 -85 1070 -80 c 1
 1070 -58 l 1
 1115 -62 1195 -67 1210 -67 c 0
 1225 -67 1230 -60 1230 -40 c 1
 1230 700 l 1
 1225 749 l 1
 1227 750 l 1
 1318 737 1330 730 1330 723 c 0
 1330 718 1325 712 1290 702 c 1
 1290 -60 l 1
1045 210 m 1
 1175 235 1320 290 1455 350 c 1
 1460 332 l 1
 1350 260 1213 194 1106 160 c 1
 1105 133 1102 125 1096 125 c 0
 1087 125 1075 140 1045 210 c 1
1460 505 m 1
 1125 505 l 1
 1055 500 l 1
 1055 540 l 1
 1125 535 l 1
 1355 535 l 1
 1390 590 l 1
 1392 590 l 1
 1460 525 l 1
 1460 505 l 1
200 -162 m 1
 200 -130 l 1
 125 -114 l 1
 125 -98 l 1
 200 -98 l 1
 206 -97 l 1
 211 -96 l 1
 216 -94 l 1
 218 -92 l 1
 220 -87 l 1
 221 -82 l 1
 221 -76 l 1
 221 224 l 1
 121 177 l 1
 103 169 l 1
 99 149 l 1
 83 160 l 1
 49 215 l 1
 221 279 l 1
 221 537 l 1
 62 537 l 1
 62 558 l 1
 221 558 l 1
 221 768 l 1
 286 757 l 1
 302 747 l 1
 286 737 l 1
 286 558 l 1
 332 558 l 1
 385 612 l 1
 450 558 l 1
 450 537 l 1
 286 537 l 1
 286 302 l 1
 408 347 l 1
 448 359 l 1
 452 350 l 1
 382 307 l 1
 310 268 l 1
 286 256 l 1
 286 -76 l 1
 285 -89 l 1
 283 -103 l 1
 278 -116 l 1
 271 -128 l 1
 263 -139 l 1
 252 -148 l 1
 240 -155 l 1
 227 -159 l 1
 213 -161 l 1
 200 -162 l 1
684 -157 m 1
 684 -124 l 1
 587 -108 l 1
 587 -92 l 1
 684 -92 l 1
 691 -92 l 1
 696 -91 l 1
 699 -89 l 1
 701 -89 l 1
 702 -88 l 1
 703 -87 l 1
 704 -85 l 1
 705 -82 l 1
 705 -77 l 1
 706 -71 l 1
 706 634 l 1
 427 634 l 1
 427 655 l 1
 844 655 l 1
 898 709 l 1
 963 655 l 1
 963 634 l 1
 770 634 l 1
 770 -71 l 1
 770 -84 l 1
 767 -98 l 1
 763 -110 l 1
 756 -123 l 1
 747 -134 l 1
 736 -142 l 1
 725 -149 l 1
 712 -153 l 1
 698 -156 l 1
 684 -157 l 1
EndSplineSet
EndChar

StartChar: uni5931
Encoding: 22833 22833 89
Width: 1000
Flags: HM
LayerCount: 2
Back
SplineSet
1470 350 m 2
 1470 695 l 1
 1465 744 l 1
 1467 745 l 1
 1558 732 1570 725 1570 718 c 0
 1570 713 1565 707 1530 697 c 1
 1530 340 l 2
 1530 65 1315 -120 1090 -165 c 9
 1083 -147 l 17
 1295 -80 1470 95 1470 350 c 2
1115 340 m 1
 1205 460 1253 620 1265 715 c 1
 1330 700 1360 690 1360 680 c 3
 1360 673 1347 668 1323 663 c 1
 1295 570 1235 430 1128 330 c 1
 1115 340 l 1
1240 515 m 1
 1245 545 l 1
 1750 545 l 1
 1790 605 l 1
 1792 605 l 1
 1865 535 l 1
 1865 515 l 1
 1240 515 l 1
1510 245 m 1
 1520 255 l 1
 1530 250 l 1
 1595 85 1800 -55 1930 -85 c 1
 1930 -100 l 1
 1900 -100 1875 -120 1870 -150 c 1
 1720 -85 1565 60 1510 245 c 1
1925 250 m 1
 1145 250 l 1
 1075 245 l 1
 1075 285 l 1
 1145 280 l 1
 1810 280 l 1
 1850 340 l 1
 1852 340 l 1
 1925 270 l 1
 1925 250 l 1
123.172 375.415 m 1
 203.701 495.997 255.455 630.613 265 725 c 1
 333.043 709.537 357.577 700.7 359.769 690.943 c 0
 361.303 684.113 347.106 678.874 322.714 673.395 c 1
 292.998 577.551 236.521 468.522 137.291 367.312 c 1
 123.172 375.415 l 1
89 -161 m 1
 86 -152 l 1
 163 -117 l 1
 232 -79 l 1
 291 -37 l 1
 341 10 l 1
 383 59 l 1
 417 112 l 1
 442 170 l 1
 459 232 l 1
 465 273 l 1
 88 273 l 1
 88 295 l 1
 468 295 l 1
 468 298 l 1
 470 370 l 1
 470 520 l 1
 259 520 l 1
 232 468 l 1
 210 431 l 1
 186 396 l 1
 158 362 l 1
 129 329 l 1
 121 335 l 1
 161 411 l 1
 196 486 l 1
 211 524 l 1
 235 603 l 1
 245 643 l 1
 253 684 l 1
 261 735 l 1
 323 714 l 1
 337 701 l 1
 318 693 l 1
 313 670 l 1
 300 628 l 1
 286 586 l 1
 270 546 l 1
 269 542 l 1
 470 542 l 1
 470 746 l 1
 534 735 l 1
 550 725 l 1
 534 715 l 1
 534 542 l 1
 733 542 l 1
 787 596 l 1
 851 542 l 1
 851 520 l 1
 534 520 l 1
 534 370 l 1
 534 369 l 1
 529 296 l 1
 530 295 l 1
 798 295 l 1
 851 348 l 1
 916 295 l 1
 916 273 l 1
 539 273 l 1
 551 245 l 1
 575 198 l 1
 603 154 l 1
 633 113 l 1
 667 75 l 1
 705 40 l 1
 747 9 l 1
 793 -20 l 1
 843 -47 l 1
 931 -84 l 1
 870 -136 l 1
 812 -107 l 1
 760 -74 l 1
 711 -39 l 1
 668 0 l 1
 630 41 l 1
 597 86 l 1
 569 134 l 1
 547 185 l 1
 530 238 l 1
 525 268 l 1
 515 219 l 1
 492 150 l 1
 460 88 l 1
 419 31 l 1
 369 -20 l 1
 312 -65 l 1
 246 -103 l 1
 171 -136 l 1
 89 -161 l 1
EndSplineSet
EndChar

StartChar: uni97F3
Encoding: 38899 38899 90
Width: 1000
Flags: HM
LayerCount: 2
Back
SplineSet
265.766 581.822 m 1
 280.436 595.193 l 1
 361.485 554.206 417.343 480.579 418.718 425.597 c 0
 419.218 405.603 405.722 385.259 380.729 384.634 c 0
 320.748 383.135 383.104 489.727 265.766 581.822 c 1
244 -162 m 1
 244 284 l 1
 308 252 l 1
 696 252 l 1
 728 279 l 1
 787 230 l 1
 760 209 l 1
 760 -114 l 1
 696 -146 l 1
 696 -92 l 1
 308 -92 l 1
 308 -130 l 1
 244 -162 l 1
308 -71 m 1
 696 -71 l 1
 696 75 l 1
 308 75 l 1
 308 -71 l 1
308 96 m 1
 696 96 l 1
 696 230 l 1
 308 230 l 1
 308 96 l 1
40 349 m 1
 40 370 l 1
 562 370 l 1
 641 497 l 1
 666 539 l 1
 676 558 l 1
 694 596 l 1
 748 560 l 1
 757 543 l 1
 736 542 l 1
 711 509 l 1
 659 449 l 1
 617 404 l 1
 592 380 l 1
 580 370 l 1
 846 370 l 1
 900 424 l 1
 964 370 l 1
 964 349 l 1
 40 349 l 1
398 381 m 1
 374 385 l 1
 359 405 l 1
 355 424 l 1
 350 444 l 1
 344 463 l 1
 337 480 l 1
 328 499 l 1
 319 516 l 1
 296 550 l 1
 282 567 l 1
 267 584 l 1
 272 592 l 1
 313 569 l 1
 331 555 l 1
 348 540 l 1
 364 523 l 1
 378 505 l 1
 391 486 l 1
 403 465 l 1
 413 444 l 1
 421 421 l 1
 418 397 l 1
 398 381 l 1
126 612 m 1
 126 634 l 1
 470 634 l 1
 470 779 l 1
 534 768 l 1
 550 757 l 1
 534 748 l 1
 534 634 l 1
 760 634 l 1
 814 687 l 1
 878 634 l 1
 878 612 l 1
 126 612 l 1
EndSplineSet
EndChar

StartChar: uni6B69
Encoding: 27497 27497 91
Width: 1000
Flags: HM
LayerCount: 2
Back
SplineSet
1115 -145 m 1
 1375 -85 1600 20 1720 210 c 1
 1777 175 1798 157 1798 147 c 3
 1798 143 1792 140 1781 140 c 3
 1775 140 1765 141 1757 142 c 1
 1615 -25 1392 -130 1120 -160 c 1
 1115 -145 l 1
1240 410 m 1
 1240 615 l 1
 1235 664 l 1
 1237 665 l 1
 1328 652 1340 645 1340 638 c 0
 1340 633 1335 627 1300 617 c 1
 1300 410 l 1
 1245 410 l 1
 1240 410 l 1
1940 390 m 1
 1130 390 l 1
 1060 385 l 1
 1060 425 l 1
 1130 420 l 1
 1825 420 l 1
 1865 475 l 1
 1867 475 l 1
 1940 410 l 1
 1940 390 l 1
1480 410 m 1
 1480 710 l 1
 1475 759 l 1
 1477 760 l 1
 1568 747 1580 740 1580 733 c 0
 1580 728 1575 722 1540 712 c 1
 1540 410 l 1
 1485 410 l 1
 1480 410 l 1
1677 318 m 1
 1685 335 l 1
 1805 315 1920 245 1920 185 c 0
 1920 165 1902 150 1885 150 c 0
 1825 150 1860 245 1677 318 c 1
1075 45 m 1
 1180 140 1255 245 1290 340 c 1
 1353 310 1375 296 1375 286 c 0
 1375 279 1360 277 1335 277 c 1
 1280 185 1205 105 1085 32 c 1
 1075 45 l 1
1480 395 m 1
 1540 395 l 1
 1540 130 l 2
 1540 70 1510 55 1415 45 c 1
 1415 95 1390 105 1320 110 c 1
 1320 132 l 1
 1365 128 1445 123 1460 123 c 0
 1475 123 1480 130 1480 150 c 2
 1480 395 l 1
1530 575 m 1
 1530 605 l 1
 1739 605 l 1
 1777 663 l 1
 1779 663 l 1
 1850 595 l 1
 1850 575 l 1
 1530 575 l 1
480.6 -43.0625 m 1
 596.457 44.127 689.795 154.072 730 240 c 1
 789.109 202.917 809.343 186.467 808.187 176.534 c 0
 807.377 169.581 792.246 169.329 767.414 172.22 c 1
 707.69 91.584 618.352 7.34863 491.247 -55.376 c 1
 480.6 -43.0625 l 1
116.835 -158.912 m 1
 114.865 -150.048 l 1
 212.38 -129.362 l 1
 301.03 -105.723 l 1
 381.8 -78.1426 l 1
 454.69 -46.6221 l 1
 519.7 -11.1621 l 1
 576.83 29.2227 l 1
 627.065 73.5479 l 1
 668.435 120.827 l 1
 703.895 173.032 l 1
 730.49 229.178 l 1
 733.445 236.072 l 1
 788.605 203.567 l 1
 799.44 187.808 l 1
 778.755 184.853 l 1
 755.115 141.513 l 1
 712.76 85.3672 l 1
 663.51 34.1475 l 1
 606.38 -10.1777 l 1
 542.355 -49.5771 l 1
 470.45 -83.0674 l 1
 392.635 -110.647 l 1
 307.925 -133.303 l 1
 215.335 -150.048 l 1
 116.835 -158.912 l 1
460.6 56.8027 m 1
 460.6 88.3223 l 1
 354.22 104.082 l 1
 354.22 120.827 l 1
 460.6 120.827 l 1
 466.51 120.827 l 1
 471.435 121.812 l 1
 476.36 123.782 l 1
 478.33 125.753 l 1
 480.3 130.678 l 1
 481.285 135.603 l 1
 481.285 141.513 l 1
 481.285 417.312 l 1
 68.5703 417.312 l 1
 68.5703 437.997 l 1
 237.99 437.997 l 1
 237.99 687.202 l 1
 301.03 676.367 l 1
 317.775 665.532 l 1
 301.03 656.668 l 1
 301.03 437.997 l 1
 481.285 437.997 l 1
 481.285 771.912 l 1
 545.31 761.077 l 1
 561.07 750.242 l 1
 545.31 741.378 l 1
 545.31 618.253 l 1
 719.655 618.253 l 1
 772.845 671.442 l 1
 835.885 618.253 l 1
 835.885 596.582 l 1
 545.31 596.582 l 1
 545.31 437.997 l 1
 815.2 437.997 l 1
 868.39 491.188 l 1
 931.43 437.997 l 1
 931.43 417.312 l 1
 545.31 417.312 l 1
 561.07 406.478 l 1
 545.31 396.628 l 1
 545.31 141.513 l 1
 544.325 128.707 l 1
 542.355 114.918 l 1
 537.43 102.112 l 1
 530.535 90.293 l 1
 522.655 79.457 l 1
 511.82 71.5771 l 1
 500 64.6826 l 1
 487.195 59.7578 l 1
 473.405 57.7871 l 1
 460.6 56.8027 l 1
81.375 58.7725 m 1
 75.4648 66.6523 l 1
 136.535 124.768 l 1
 164.115 153.332 l 1
 212.38 210.463 l 1
 233.065 239.027 l 1
 250.795 268.577 l 1
 266.555 297.143 l 1
 279.36 325.707 l 1
 289.21 350.332 l 1
 293.15 362.152 l 1
 349.295 331.617 l 1
 361.115 315.857 l 1
 340.43 312.902 l 1
 315.805 268.577 l 1
 295.12 239.027 l 1
 271.48 209.478 l 1
 246.855 181.897 l 1
 218.29 154.317 l 1
 187.755 128.707 l 1
 155.25 103.098 l 1
 119.79 80.4424 l 1
 81.375 58.7725 l 1
887.105 185.838 m 1
 864.45 196.673 l 1
 852.63 214.402 l 1
 822.095 246.907 l 1
 785.65 277.442 l 1
 764.965 293.202 l 1
 720.64 322.753 l 1
 670.405 353.287 l 1
 673.36 362.152 l 1
 703.895 355.258 l 1
 732.46 348.362 l 1
 759.055 338.513 l 1
 784.665 327.678 l 1
 810.275 314.872 l 1
 832.93 302.067 l 1
 855.585 287.293 l 1
 876.27 272.518 l 1
 895.97 255.772 l 1
 913.7 238.043 l 1
 920.595 214.402 l 1
 909.76 193.718 l 1
 887.105 185.838 l 1
EndSplineSet
EndChar

StartChar: uni82B1
Encoding: 33457 33457 92
Width: 1000
Flags: HM
LayerCount: 2
Back
SplineSet
1260 -150 m 1
 1260 260 l 1
 1255 289 l 1
 1257 290 l 1
 1348 277 1360 270 1360 263 c 0
 1360 258 1355 252 1320 242 c 1
 1320 -140 l 1
 1265 -150 l 1
 1260 -150 l 1
1610 205 m 1
 1720 260 1815 330 1873 396 c 1
 1920 344 1932 327 1932 317 c 3
 1932 314 1930 311 1925 311 c 3
 1917 311 1905 315 1891 321 c 1
 1820 270 1720 215 1610 180 c 1
 1610 205 l 1
1620 505 m 1
 1620 710 l 1
 1615 759 l 1
 1617 760 l 1
 1708 747 1720 740 1720 733 c 0
 1720 728 1715 722 1680 712 c 1
 1680 515 l 1
 1625 505 l 1
 1620 505 l 1
1320 505 m 1
 1320 710 l 1
 1315 759 l 1
 1317 760 l 1
 1408 747 1420 740 1420 733 c 0
 1420 728 1415 722 1380 712 c 1
 1380 515 l 1
 1325 505 l 1
 1320 505 l 1
1550 410 m 1
 1545 459 l 1
 1547 460 l 1
 1638 447 1650 440 1650 433 c 0
 1650 428 1645 422 1610 412 c 1
 1610 -30 l 2
 1610 -60 1620 -70 1720 -70 c 2
 1770 -70 l 2
 1830 -70 1865 -65 1875 -55 c 0
 1885 -45 1903 15 1915 75 c 1
 1930 70 l 1
 1925 25 1920 -27 1920 -42 c 0
 1920 -60 1945 -65 1945 -85 c 0
 1945 -110 1905 -130 1765 -130 c 2
 1705 -130 l 2
 1565 -130 1550 -115 1550 -35 c 2
 1550 410 l 1
1045 103 m 1
 1190 210 1315 345 1375 485 c 1
 1439 450 1457 435 1457 426 c 3
 1457 422 1450 419 1435 419 c 3
 1433 419 1425 419 1416 420 c 1
 1345 310 1215 170 1054 90 c 1
 1045 103 l 1
1950 610 m 1
 1120 610 l 1
 1050 605 l 1
 1050 645 l 1
 1120 640 l 1
 1835 640 l 1
 1875 700 l 1
 1877 700 l 1
 1950 630 l 1
 1950 610 l 1
562.259 182.396 m 1
 695.891 238.676 813.236 322.521 873.194 396.039 c 1
 921.467 345.653 937.075 324.763 933.529 315.412 c 0
 931.048 308.867 916.313 312.315 892.938 321.178 c 1
 815.341 257.555 708.147 197.667 569.579 167.855 c 1
 562.259 182.396 l 1
141.504 188.682 m 1
 252.404 282.096 339.57 396.996 375 485 c 1
 436.055 451.216 457.16 435.9 456.551 425.919 c 0
 456.124 418.933 441.029 417.851 416.076 419.374 c 1
 360.866 335.584 276.283 246.574 152.811 176.971 c 1
 141.504 188.682 l 1
260 -167 m 1
 260 237 l 1
 215 198 l 1
 173 164 l 1
 128 134 l 1
 81 106 l 1
 31 81 l 1
 26 90 l 1
 111 157 l 1
 150 192 l 1
 188 228 l 1
 224 266 l 1
 258 305 l 1
 290 346 l 1
 320 388 l 1
 348 433 l 1
 377 484 l 1
 430 447 l 1
 439 429 l 1
 419 429 l 1
 399 399 l 1
 367 355 l 1
 332 312 l 1
 313 291 l 1
 325 290 l 1
 341 279 l 1
 325 269 l 1
 325 -135 l 1
 260 -167 l 1
626 -130 m 1
 612 -129 l 1
 598 -127 l 1
 585 -122 l 1
 573 -115 l 1
 562 -107 l 1
 554 -96 l 1
 547 -84 l 1
 542 -71 l 1
 540 -57 l 1
 540 -44 l 1
 540 472 l 1
 604 462 l 1
 620 451 l 1
 604 441 l 1
 604 192 l 1
 706 257 l 1
 768 300 l 1
 823 345 l 1
 874 391 l 1
 875 392 l 1
 917 343 l 1
 919 323 l 1
 900 330 l 1
 858 299 l 1
 795 259 l 1
 727 222 l 1
 691 205 l 1
 653 189 l 1
 614 174 l 1
 604 171 l 1
 604 -50 l 1
 605 -55 l 1
 607 -60 l 1
 609 -62 l 1
 614 -64 l 1
 619 -65 l 1
 626 -65 l 1
 896 -65 l 1
 927 69 l 1
 937 69 l 1
 927 -65 l 1
 946 -78 l 1
 959 -98 l 1
 946 -117 l 1
 927 -130 l 1
 626 -130 l 1
319 481 m 1
 319 617 l 1
 34 617 l 1
 34 639 l 1
 319 639 l 1
 319 770 l 1
 384 759 l 1
 400 749 l 1
 384 739 l 1
 384 639 l 1
 620 639 l 1
 620 770 l 1
 685 759 l 1
 701 749 l 1
 685 739 l 1
 685 639 l 1
 851 639 l 1
 905 693 l 1
 970 639 l 1
 970 617 l 1
 685 617 l 1
 685 513 l 1
 620 481 l 1
 620 617 l 1
 384 617 l 1
 384 513 l 1
 319 481 l 1
EndSplineSet
EndChar

StartChar: uni6797
Encoding: 26519 26519 93
Width: 1000
Flags: HMW
LayerCount: 2
Back
SplineSet
1315 380 m 1
 1315 405 l 1
 1400 380 1485 320 1485 255 c 0
 1485 225 1465 200 1435 200 c 0
 1365 200 1410 285 1315 380 c 1
1205 505 m 9
 1235 510 l 25
 1230 365 l 17
 1210 245 1145 115 1045 15 c 9
 1030 25 l 17
 1115 160 1180 350 1205 505 c 9
1227 -155 m 1
 1230 -25 l 1
 1230 695 l 1
 1225 759 l 1
 1227 760 l 1
 1350 740 1360 731 1360 723 c 0
 1360 718 1355 710 1320 700 c 1
 1320 -25 l 1
 1323 -140 l 1
 1245 -155 l 1
 1227 -155 l 1
1493 500 m 1
 1415 505 l 1
 1125 505 l 1
 1055 500 l 1
 1050 540 l 1
 1125 535 l 1
 1380 535 l 1
 1418 595 l 1
 1420 595 l 1
 1495 520 l 1
 1493 500 l 1
1625 495 m 9
 1655 500 l 25
 1650 360 l 17
 1600 225 1515 80 1395 -20 c 9
 1380 -10 l 17
 1490 135 1580 320 1625 495 c 9
1740 445 m 1
 1740 500 l 1
 1750 495 l 1
 1790 310 1880 145 1980 65 c 1
 1980 55 l 1
 1935 50 1905 25 1895 -15 c 1
 1820 90 1770 240 1740 445 c 1
1647 -155 m 1
 1650 -25 l 1
 1650 695 l 1
 1645 759 l 1
 1647 760 l 1
 1770 740 1780 731 1780 723 c 0
 1780 718 1775 710 1740 700 c 1
 1740 -25 l 1
 1743 -140 l 1
 1665 -155 l 1
 1647 -155 l 1
1953 490 m 1
 1875 495 l 1
 1585 495 l 1
 1515 490 l 1
 1510 530 l 1
 1585 525 l 1
 1830 525 l 1
 1873 595 l 1
 1875 595 l 1
 1955 510 l 1
 1953 490 l 1
305 375 m 1
 305 -140 l 1
 250 -150 l 1
 245 -150 l 1
 245 370 l 1
 210 250 135 125 47 20 c 1
 35 30 l 1
 115 170 190 345 225 505 c 1
 125 505 l 1
 55 500 l 1
 55 540 l 1
 125 535 l 1
 245 535 l 1
 245 700 l 1
 240 749 l 1
 242 750 l 1
 333 737 345 730 345 723 c 0
 345 718 340 712 305 702 c 1
 305 535 l 1
 385 535 l 1
 420 590 l 1
 422 590 l 1
 490 525 l 1
 490 505 l 1
 305 505 l 1
 305 400 l 1
 400 370 475 295 475 245 c 0
 475 225 457 205 437 205 c 0
 385 205 415 305 305 375 c 1
725 495 m 1
 780 300 895 120 970 60 c 1
 970 45 l 1
 940 45 915 25 910 0 c 1
 830 110 765 250 725 420 c 1
 725 -140 l 1
 670 -150 l 1
 665 -150 l 1
 665 360 l 1
 615 220 520 100 407 -10 c 1
 395 0 l 1
 500 135 595 305 650 495 c 1
 575 495 l 1
 510 492 l 1
 510 528 l 1
 575 525 l 1
 665 525 l 1
 665 700 l 1
 660 749 l 1
 662 750 l 1
 753 737 765 730 765 723 c 0
 765 718 760 712 725 702 c 1
 725 525 l 1
 840 525 l 1
 880 585 l 1
 882 585 l 1
 950 515 l 1
 950 495 l 1
 725 495 l 1
EndSplineSet
Fore
SplineSet
953 490 m 1
 875 495 l 1
 750 495 l 1
 790 310 880 145 980 65 c 1
 980 55 l 1
 935 50 905 25 895 -15 c 1
 820 90 770 240 740 445 c 1
 740 -25 l 1
 743 -140 l 1
 665 -155 l 1
 647 -155 l 1
 650 -25 l 1
 650 360 l 1
 600 225 515 80 395 -20 c 1
 380 -10 l 1
 490 135 580 320 625 495 c 1
 585 495 l 1
 515 490 l 1
 510 530 l 1
 585 525 l 1
 650 525 l 1
 650 695 l 1
 645 759 l 1
 647 760 l 1
 770 740 780 731 780 723 c 0
 780 718 775 710 740 700 c 1
 740 525 l 1
 830 525 l 1
 873 595 l 1
 875 595 l 1
 955 510 l 1
 953 490 l 1
493 500 m 1
 415 505 l 1
 320 505 l 1
 320 403 l 1
 403 377 485 319 485 255 c 0
 485 225 465 200 435 200 c 0
 366 200 408 282 320 375 c 1
 320 -25 l 1
 323 -140 l 1
 245 -155 l 1
 227 -155 l 1
 230 -25 l 1
 230 365 l 1
 210 245 145 115 45 15 c 1
 30 25 l 1
 115 160 180 350 205 505 c 1
 125 505 l 1
 55 500 l 1
 50 540 l 1
 125 535 l 1
 230 535 l 1
 230 695 l 1
 225 759 l 1
 227 760 l 1
 350 740 360 731 360 723 c 0
 360 718 355 710 320 700 c 1
 320 535 l 1
 380 535 l 1
 418 595 l 1
 420 595 l 1
 495 520 l 1
 493 500 l 1
EndSplineSet
EndChar

StartChar: uni62CD
Encoding: 25293 25293 94
Width: 1000
Flags: HMW
LayerCount: 2
Back
SplineSet
1665 775 m 1
 1755 748 1791 734 1791 723 c 3
 1791 714 1778 707 1749 701 c 1
 1730 664 1690 610 1645 570 c 1
 1615 570 l 1
 1637 635 1657 715 1665 775 c 1
1419 500 m 1
 1341 505 l 1
 1126 505 l 1
 1056 500 l 1
 1051 540 l 1
 1126 535 l 1
 1306 535 l 1
 1344 595 l 1
 1346 595 l 1
 1421 520 l 1
 1419 500 l 1
1430 340 m 1
 1260 225 1117 143 1102 143 c 0
 1093 143 1077 165 1043 225 c 1
 1165 260 1305 310 1425 360 c 1
 1430 340 l 1
1285 -32 m 1
 1285 -112 1260 -137 1130 -152 c 1
 1130 -92 1120 -72 1045 -59 c 1
 1045 -37 l 1
 1080 -41 1140 -47 1160 -47 c 0
 1185 -47 1195 -37 1195 -20 c 2
 1195 700 l 1
 1190 764 l 1
 1192 765 l 1
 1315 745 1325 736 1325 728 c 0
 1325 723 1320 715 1285 705 c 1
 1285 -32 l 1
1828 570 m 1
 1863 613 l 1
 1866 613 l 1
 1925 575 1957 550 1957 540 c 0
 1957 535 1945 525 1925 515 c 1
 1925 -5 l 1
 1928 -120 l 1
 1850 -135 l 1
 1832 -135 l 1
 1835 -65 l 1
 1540 -65 l 1
 1543 -130 l 1
 1465 -145 l 1
 1447 -145 l 1
 1450 -15 l 1
 1450 535 l 1
 1445 610 l 1
 1447 610 l 1
 1550 570 l 1
 1828 570 l 1
1540 275 m 1
 1835 275 l 1
 1835 540 l 1
 1540 540 l 1
 1540 275 l 1
1540 245 m 1
 1540 -35 l 1
 1835 -35 l 1
 1835 245 l 1
 1540 245 l 1
665 775 m 1
 756.095 747.148 794.338 731.449 796.217 720.611 c 0
 797.754 711.743 783.657 705.24 754.269 699.131 c 1
 724.447 607.694 647.067 497.865 554.711 415.888 c 1
 538.224 423.18 l 1
 617.114 553.568 657.446 672.199 665 775 c 1
409.742 336.19 m 1
 257.103 222.062 117.771 140.292 102.939 138.047 c 0
 94.04 136.7 80.1709 154.829 43 220 c 1
 156.438 252.34 295.315 303.701 403.783 355.516 c 1
 409.742 336.19 l 1
270 297 m 1
 321 317 373 340 425 365 c 1
 432 347 l 1
 379 310 324 276 270 246 c 1
 270 -60 l 2
 270 -120 240 -135 145 -145 c 1
 145 -95 120 -85 60 -80 c 1
 60 -58 l 1
 100 -62 175 -67 190 -67 c 0
 205 -67 210 -60 210 -40 c 2
 210 215 l 1
 175 198 140 183 107 171 c 1
 107 145 104 136 98 136 c 0
 90 136 76 150 45 220 c 1
 100 235 155 254 210 274 c 1
 210 505 l 1
 125 505 l 1
 55 500 l 1
 55 540 l 1
 125 535 l 1
 210 535 l 1
 210 700 l 1
 205 749 l 1
 207 750 l 1
 298 737 310 730 310 723 c 0
 310 718 305 712 270 702 c 1
 270 535 l 1
 315 535 l 1
 350 590 l 1
 352 590 l 1
 420 525 l 1
 420 505 l 1
 270 505 l 1
 270 297 l 1
855 245 m 1
 520 245 l 1
 520 -35 l 1
 855 -35 l 1
 855 245 l 1
855 275 m 1
 855 540 l 1
 520 540 l 1
 520 275 l 1
 855 275 l 1
855 -65 m 1
 520 -65 l 1
 520 -130 l 1
 465 -140 l 1
 460 -140 l 1
 460 603 l 1
 462 603 l 1
 530 570 l 1
 615 570 l 1
 640 645 660 720 670 775 c 1
 742 755 763 746 763 737 c 0
 763 730 750 725 725 721 c 1
 699 661 677 620 640 570 c 1
 850 570 l 1
 873 605 l 1
 875 605 l 1
 920 575 945 555 945 548 c 0
 945 543 935 536 915 525 c 1
 915 -120 l 1
 860 -130 l 1
 855 -130 l 1
 855 -65 l 1
EndSplineSet
Fore
SplineSet
540 245 m 1
 540 -35 l 1
 830 -35 l 1
 830 245 l 1
 540 245 l 1
540 275 m 1
 830 275 l 1
 830 540 l 1
 540 540 l 1
 540 275 l 1
823 570 m 1
 858 613 l 1
 861 613 l 1
 920 575 952 550 952 540 c 0
 952 535 940 525 920 515 c 1
 920 -5 l 1
 923 -120 l 1
 845 -135 l 1
 827 -135 l 1
 830 -65 l 1
 540 -65 l 1
 543 -130 l 1
 465 -145 l 1
 447 -145 l 1
 450 -15 l 1
 450 535 l 1
 445 610 l 1
 447 610 l 1
 550 570 l 1
 610 570 l 1
 630 635 647 715 655 775 c 1
 745 748 781 734 781 723 c 0
 781 714 768 707 739 701 c 1
 720 664 682 610 640 570 c 1
 823 570 l 1
285 -32 m 2
 285 -112 260 -137 140 -152 c 1
 140 -92 130 -72 60 -59 c 1
 60 -37 l 1
 90 -41 140 -47 160 -47 c 0
 185 -47 195 -37 195 -20 c 2
 195 191 l 1
 143 161 109 143 102 143 c 0
 93 143 77 165 43 225 c 1
 92 239 143 255 195 273 c 1
 195 505 l 1
 126 505 l 1
 56 500 l 1
 51 540 l 1
 126 535 l 1
 195 535 l 1
 195 700 l 1
 190 764 l 1
 192 765 l 1
 315 745 325 736 325 728 c 0
 325 723 320 715 285 705 c 1
 285 535 l 1
 306 535 l 1
 344 595 l 1
 346 595 l 1
 421 520 l 1
 419 500 l 1
 341 505 l 1
 285 505 l 1
 285 305 l 1
 333 323 380 341 425 360 c 1
 430 340 l 1
 378 305 329 273 285 245 c 1
 285 -32 l 2
EndSplineSet
EndChar

StartChar: uni6CE3
Encoding: 27875 27875 95
Width: 1000
Flags: HM
LayerCount: 2
Back
SplineSet
394.906 447.874 m 1
 408.229 455.326 l 1
 545.817 274.441 563.51 98.5527 560.18 18.6221 c 0
 559.139 -6.35645 543.319 -25.7148 523.337 -24.8818 c 0
 448.401 -21.7598 555.809 153.921 394.906 447.874 c 1
39.4189 515.747 m 1
 45.7021 536.352 l 1
 139.484 519.206 209.469 474.955 213.268 430.116 c 0
 214.955 410.188 200.532 390.901 180.604 389.213 c 0
 135.764 385.415 154.091 465.246 39.4189 515.747 c 1
85 610 m 1
 90 630 l 1
 190 605 261 550 261 500 c 3
 261 480 245 462 225 462 c 3
 175 462 205 545 85 610 c 1
170 -156 m 1
 148 -145 l 1
 140 -122 l 1
 143 -84 l 1
 143 -49 l 1
 141 -18 l 1
 136 10 l 1
 128 35 l 1
 122 50 l 1
 119 50 l 1
 120 53 l 1
 119 57 l 1
 106 77 l 1
 89 95 l 1
 70 112 l 1
 47 128 l 1
 50 137 l 1
 79 130 l 1
 107 119 l 1
 131 102 l 1
 138 95 l 1
 264 355 l 1
 335 491 l 1
 344 487 l 1
 212 135 l 1
 191 71 l 1
 185 49 l 1
 182 35 l 1
 179 36 l 1
 184 25 l 1
 194 -8 l 1
 201 -44 l 1
 205 -84 l 1
 205 -127 l 1
 193 -149 l 1
 170 -156 l 1
289 -98 m 1
 289 -76 l 1
 676 -76 l 1
 750 288 l 1
 779 452 l 1
 781 462 l 1
 842 440 l 1
 856 426 l 1
 837 419 l 1
 802 277 l 1
 773 170 l 1
 723 13 l 1
 705 -37 l 1
 688 -76 l 1
 849 -76 l 1
 903 -22 l 1
 967 -76 l 1
 967 -98 l 1
 289 -98 l 1
529 -22 m 1
 505 -14 l 1
 493 7 l 1
 489 62 l 1
 484 113 l 1
 478 163 l 1
 471 211 l 1
 463 256 l 1
 453 300 l 1
 443 341 l 1
 420 418 l 1
 408 455 l 1
 417 459 l 1
 439 427 l 1
 458 391 l 1
 476 352 l 1
 492 311 l 1
 507 268 l 1
 520 221 l 1
 531 173 l 1
 542 122 l 1
 550 69 l 1
 558 13 l 1
 550 -10 l 1
 529 -22 l 1
171 365 m 1
 151 380 l 1
 148 390 l 1
 142 401 l 1
 135 412 l 1
 127 422 l 1
 105 444 l 1
 91 456 l 1
 58 478 l 1
 39 488 l 1
 42 497 l 1
 64 492 l 1
 85 487 l 1
 104 481 l 1
 123 475 l 1
 140 467 l 1
 156 458 l 1
 171 448 l 1
 185 437 l 1
 197 424 l 1
 208 411 l 1
 210 386 l 1
 195 367 l 1
 171 365 l 1
332 531 m 1
 332 553 l 1
 596 553 l 1
 596 757 l 1
 661 747 l 1
 677 736 l 1
 661 726 l 1
 661 553 l 1
 807 553 l 1
 860 607 l 1
 925 553 l 1
 925 531 l 1
 332 531 l 1
245 612 m 1
 226 626 l 1
 221 637 l 1
 215 648 l 1
 208 658 l 1
 199 670 l 1
 189 681 l 1
 165 703 l 1
 135 726 l 1
 117 735 l 1
 120 744 l 1
 140 739 l 1
 160 734 l 1
 179 729 l 1
 196 722 l 1
 213 714 l 1
 229 705 l 1
 243 695 l 1
 257 684 l 1
 270 672 l 1
 281 659 l 1
 284 635 l 1
 270 615 l 1
 245 612 l 1
EndSplineSet
EndChar

StartChar: uni6CE2
Encoding: 27874 27874 96
Width: 1000
Flags: HM
LayerCount: 2
Back
SplineSet
1522 320 m 1
 1535 325 l 1
 1545 320 l 1
 1625 95 1810 -50 1965 -85 c 1
 1965 -100 l 1
 1935 -100 1910 -120 1905 -150 c 1
 1760 -80 1575 85 1522 320 c 1
1455 320 m 1
 1455 350 l 1
 1820 350 l 1
 1843 387 l 1
 1845 387 l 1
 1895 351 1917 333 1917 325 c 0
 1917 320 1905 313 1885 305 c 1
 1805 75 1615 -100 1375 -160 c 1
 1368 -143 l 1
 1570 -60 1750 90 1823 320 c 1
 1455 320 l 1
1630 340 m 1
 1630 710 l 1
 1625 759 l 1
 1627 760 l 1
 1718 747 1730 740 1730 733 c 0
 1730 728 1725 722 1690 712 c 1
 1690 340 l 1
 1635 340 l 1
 1630 340 l 1
1465 330 m 2
 1465 110 1435 -35 1275 -155 c 1
 1264 -140 l 1
 1375 -20 1405 105 1405 338 c 2
 1405 638 l 1
 1407 638 l 1
 1475 605 l 1
 1870 605 l 1
 1893 642 l 1
 1895 642 l 1
 1945 603 1968 583 1968 575 c 0
 1968 570 1955 565 1935 560 c 1
 1910 520 1872 480 1828 445 c 1
 1815 455 l 1
 1840 495 1857 535 1870 575 c 1
 1465 575 l 1
 1465 330 l 2
1110 720 m 1
 1118 740 l 1
 1210 715 1276 665 1276 623 c 3
 1276 603 1260 585 1240 585 c 3
 1195 585 1220 657 1110 720 c 1
1060 515 m 1
 1067 535 l 1
 1160 520 1235 473 1235 428 c 3
 1235 407 1220 390 1198 390 c 3
 1155 390 1175 465 1060 515 c 1
1195 -150 m 3
 1175 -150 1160 -135 1160 -119 c 3
 1160 -90 1170 -40 1170 5 c 3
 1170 65 1150 100 1090 105 c 1
 1090 130 l 1
 1160 130 l 9
 1340 570 l 25
 1360 565 l 17
 1245 210 1215 100 1215 60 c 3
 1215 15 1240 -50 1240 -100 c 3
 1240 -125 1220 -150 1195 -150 c 3
883.34 595.16 m 1
 886.28 600.06 l 1
 888.24 600.06 l 1
 914.7 621.62 l 1
 972.52 574.58 l 1
 946.061 558.9 l 1
 927.44 551.06 l 1
 901.96 518.72 l 1
 860.8 474.62 l 1
 808.86 424.64 l 1
 802 430.52 l 1
 814.74 452.08 l 1
 862.76 545.18 l 1
 876.48 574.58 l 1
 686.36 574.58 l 1
 686.36 348.2 l 1
 815.72 348.2 l 1
 847.08 374.66 l 1
 904.9 326.64 l 1
 878.44 310.96 l 1
 868.64 307.04 l 1
 848.061 253.14 l 1
 813.76 185.52 l 1
 774.561 121.82 l 1
 730.46 64 l 1
 713.8 46.3604 l 1
 729.48 31.6602 l 1
 775.54 -2.63965 l 1
 825.52 -32.04 l 1
 878.44 -56.54 l 1
 974.48 -90.8398 l 1
 913.72 -142.78 l 1
 851 -116.32 l 1
 794.16 -85.9404 l 1
 741.24 -49.6797 l 1
 694.2 -8.51953 l 1
 677.54 8.13965 l 1
 630.5 -34 l 1
 573.66 -73.2002 l 1
 511.92 -107.5 l 1
 446.26 -135.92 l 1
 376.68 -156.5 l 1
 373.74 -147.68 l 1
 438.42 -117.3 l 1
 498.2 -83 l 1
 554.061 -44.7803 l 1
 604.04 -2.63965 l 1
 648.14 40.4805 l 1
 614.82 87.5195 l 1
 582.48 141.42 l 1
 556.02 200.22 l 1
 535.44 263.92 l 1
 523.68 326.64 l 1
 463.9 326.64 l 1
 463.9 279.6 l 1
 460.96 216.88 l 1
 454.1 158.08 l 1
 443.32 103.2 l 1
 429.6 52.2402 l 1
 412.94 6.17969 l 1
 392.36 -35.96 l 1
 367.86 -74.1797 l 1
 339.44 -106.52 l 1
 309.06 -134.94 l 1
 273.78 -156.5 l 1
 267.9 -148.66 l 1
 295.34 -120.24 l 1
 317.88 -88.8799 l 1
 338.46 -55.5596 l 1
 356.1 -18.3203 l 1
 370.8 20.8799 l 1
 382.56 65.96 l 1
 391.38 113 l 1
 397.26 164.94 l 1
 400.2 219.82 l 1
 400.2 627.5 l 1
 463.9 595.16 l 1
 623.64 595.16 l 1
 623.64 774.5 l 1
 686.36 763.72 l 1
 702.04 753.92 l 1
 686.36 744.12 l 1
 686.36 595.16 l 1
 883.34 595.16 l 1
179.7 -146.7 m 1
 158.14 -135.92 l 1
 150.3 -113.38 l 1
 154.22 -76.1396 l 1
 154.22 -42.8203 l 1
 151.28 -11.46 l 1
 146.38 15 l 1
 138.54 39.5 l 1
 129.72 56.1602 l 1
 128.74 56.1602 l 1
 129.72 57.1396 l 1
 113.06 81.6396 l 1
 96.4004 99.2803 l 1
 74.8398 115.94 l 1
 50.3398 131.62 l 1
 52.2998 140.44 l 1
 83.6602 133.58 l 1
 112.08 122.8 l 1
 136.58 106.14 l 1
 147.36 97.3203 l 1
 280.64 354.08 l 1
 355.12 487.36 l 1
 363.94 483.44 l 1
 238.5 179.64 l 1
 209.1 103.2 l 1
 199.3 74.7803 l 1
 192.44 53.2197 l 1
 189.5 39.5 l 1
 187.54 40.4805 l 1
 192.44 31.6602 l 1
 203.22 -1.66016 l 1
 210.08 -36.9404 l 1
 214 -76.1396 l 1
 214 -118.28 l 1
 203.22 -139.84 l 1
 179.7 -146.7 l 1
679.5 79.6797 m 1
 693.22 95.3604 l 1
 730.46 151.22 l 1
 763.78 211 l 1
 792.2 277.64 l 1
 809.84 326.64 l 1
 533.48 326.64 l 1
 557 270.78 l 1
 584.44 212.96 l 1
 615.8 160.04 l 1
 650.1 112.02 l 1
 679.5 79.6797 l 1
463.9 348.2 m 1
 623.64 348.2 l 1
 623.64 574.58 l 1
 463.9 574.58 l 1
 463.9 348.2 l 1
182.64 362.9 m 1
 163.04 377.6 l 1
 159.12 387.4 l 1
 153.24 398.18 l 1
 145.4 408.96 l 1
 135.6 419.74 l 1
 124.82 430.52 l 1
 112.08 441.3 l 1
 97.3799 452.08 l 1
 62.0996 474.62 l 1
 41.5195 484.42 l 1
 44.46 493.24 l 1
 67 488.34 l 1
 89.54 484.42 l 1
 109.14 478.54 l 1
 128.74 472.66 l 1
 147.36 463.84 l 1
 164.02 456 l 1
 178.72 446.2 l 1
 193.42 434.44 l 1
 206.16 422.68 l 1
 217.92 409.94 l 1
 220.86 385.44 l 1
 206.16 365.84 l 1
 182.64 362.9 l 1
262.02 604.96 m 1
 241.44 617.7 l 1
 236.54 628.48 l 1
 229.68 640.24 l 1
 221.84 651.02 l 1
 212.04 661.8 l 1
 189.5 683.36 l 1
 160.1 705.9 l 1
 142.46 717.66 l 1
 123.84 726.48 l 1
 126.78 735.3 l 1
 148.34 730.4 l 1
 168.92 726.48 l 1
 188.52 720.6 l 1
 206.16 713.74 l 1
 223.8 706.88 l 1
 240.46 698.06 l 1
 255.16 688.26 l 1
 269.86 677.48 l 1
 282.6 665.72 l 1
 294.36 652 l 1
 298.28 628.48 l 1
 285.54 608.88 l 1
 262.02 604.96 l 1
EndSplineSet
EndChar

StartChar: uni81E5
Encoding: 33253 33253 97
Width: 1000
Flags: HM
LayerCount: 2
Back
SplineSet
1720 600 m 1
 1720 712 l 1
 1755 722 1760 728 1760 733 c 0
 1760 740 1748 747 1657 760 c 1
 1655 759 l 1
 1660 710 l 1
 1660 590 l 1
 1660 330 1620 30 1435 -145 c 9
 1450 -160 l 17
 1670 20 1715 300 1720 600 c 1
1715 570 m 1
 1715 637 l 1
 1720 637 l 1
 1755 275 1825 35 1975 -75 c 1
 1975 -90 l 1
 1945 -90 1920 -110 1915 -140 c 1
 1785 10 1721 199 1715 570 c 1
1130 455 m 1
 1255 455 l 1
 1255 665 l 1
 1130 665 l 1
 1130 455 l 1
1130 425 m 1
 1130 220 l 1
 1410 220 l 1
 1410 425 l 1
 1130 425 l 1
1315 455 m 1
 1405 455 l 1
 1428 490 l 1
 1430 490 l 1
 1475 460 1500 440 1500 433 c 0
 1500 428 1490 421 1470 410 c 1
 1470 155 l 1
 1415 145 l 1
 1410 145 l 1
 1410 190 l 1
 1315 190 l 1
 1315 -30 l 1
 1400 -30 l 1
 1440 25 l 1
 1442 25 l 1
 1515 -40 l 1
 1515 -60 l 1
 1130 -60 l 1
 1130 -120 l 1
 1075 -130 l 1
 1070 -130 l 1
 1070 728 l 1
 1072 728 l 1
 1140 695 l 1
 1390 695 l 1
 1430 745 l 1
 1432 745 l 1
 1500 685 l 1
 1500 665 l 1
 1315 665 l 1
 1315 455 l 1
1255 -30 m 1
 1255 190 l 1
 1130 190 l 1
 1130 -30 l 1
 1255 -30 l 1
595 600 m 1
 595 667 l 1
 600 667 l 1
 625 285 775 -5 975 -75 c 1
 975 -90 l 1
 945 -90 920 -110 915 -140 c 1
 735 -30 586 204 595 600 c 1
935 640 m 1
 935 707 l 1
 940 707 l 1
 965 305 1135 -5 1385 -75 c 1
 1385 -90 l 1
 1355 -90 1330 -110 1325 -140 c 1
 1095 -30 926 224 935 640 c 1
875 754 m 17
 877 755 l 1
 968 742 980 735 980 728 c 0
 980 723 975 717 940 707 c 9
 940 690 l 18
 940 370 830 -25 470 -145 c 1
 459 -128 l 1
 785 10 880 400 880 705 c 9
 875 754 l 17
-390 445 m 1
 -265 445 l 1
 -265 665 l 1
 -390 665 l 1
 -390 445 l 1
-390 415 m 1
 -390 210 l 1
 -110 210 l 1
 -110 415 l 1
 -390 415 l 1
-205 445 m 1
 -115 445 l 1
 -92 480 l 1
 -90 480 l 1
 -45 450 -20 430 -20 423 c 0
 -20 418 -30 411 -50 400 c 1
 -50 145 l 1
 -105 135 l 1
 -110 135 l 1
 -110 180 l 1
 -205 180 l 1
 -205 -50 l 1
 -120 -50 l 1
 -80 5 l 1
 -78 5 l 1
 -5 -60 l 1
 -5 -80 l 1
 -390 -80 l 1
 -390 -140 l 1
 -445 -150 l 1
 -450 -150 l 1
 -450 728 l 1
 -448 728 l 1
 -380 695 l 1
 -130 695 l 1
 -90 745 l 1
 -88 745 l 1
 -20 685 l 1
 -20 665 l 1
 -205 665 l 1
 -205 445 l 1
-265 -50 m 1
 -265 180 l 1
 -390 180 l 1
 -390 -50 l 1
 -265 -50 l 1
441 -158 m 1
 435 -150 l 1
 481 -102 l 1
 512 -58 l 1
 132 -58 l 1
 132 -122 l 1
 68 -155 l 1
 68 729 l 1
 132 697 l 1
 384 697 l 1
 438 750 l 1
 503 697 l 1
 503 675 l 1
 316 675 l 1
 316 470 l 1
 408 470 l 1
 440 497 l 1
 499 448 l 1
 472 427 l 1
 472 158 l 1
 408 126 l 1
 408 190 l 1
 316 190 l 1
 316 -36 l 1
 398 -36 l 1
 452 18 l 1
 517 -36 l 1
 517 -51 l 1
 556 20 l 1
 587 94 l 1
 613 179 l 1
 634 274 l 1
 650 379 l 1
 661 494 l 1
 667 619 l 1
 668 749 l 1
 668 767 l 1
 733 755 l 1
 749 744 l 1
 732 734 l 1
 729 626 l 1
 729 622 l 1
 740 505 l 1
 755 397 l 1
 774 298 l 1
 797 208 l 1
 825 129 l 1
 856 59 l 1
 891 -2 l 1
 931 -52 l 1
 974 -94 l 1
 984 -104 l 1
 926 -147 l 1
 879 -95 l 1
 838 -35 l 1
 803 33 l 1
 773 110 l 1
 748 195 l 1
 730 289 l 1
 716 391 l 1
 713 442 l 1
 703 371 l 1
 683 264 l 1
 657 166 l 1
 625 80 l 1
 588 4 l 1
 545 -62 l 1
 496 -116 l 1
 441 -158 l 1
132 -36 m 1
 251 -36 l 1
 251 190 l 1
 132 190 l 1
 132 -36 l 1
132 212 m 1
 408 212 l 1
 408 448 l 1
 132 448 l 1
 132 212 l 1
132 470 m 1
 251 470 l 1
 251 675 l 1
 132 675 l 1
 132 470 l 1
EndSplineSet
EndChar

StartChar: u2F81A
Encoding: 65536 194586 98
Width: 1000
Flags: HMW
LayerCount: 2
Back
SplineSet
520 419 m 1
 572 477 617 540 655 610 c 1
 385 610 l 1
 378 598 371 586 364 575 c 1
 409 520 463 468 520 419 c 1
320 -80 m 1
 475 -40 665 20 780 65 c 1
 785 47 l 1
 665 -20 495 -90 381 -130 c 1
 380 -157 377 -165 371 -165 c 0
 362 -165 350 -150 320 -80 c 1
586 72 m 0
 540 72 555 137 390 197 c 1
 395 215 l 1
 515 200 620 165 620 110 c 0
 620 90 601 72 586 72 c 0
660 640 m 1
 683 677 l 1
 685 677 l 1
 733 642 757 622 757 614 c 0
 757 609 750 603 730 595 c 1
 685 515 631 443 568 380 c 1
 700 276 846 199 960 180 c 1
 960 165 l 1
 930 165 905 145 900 115 c 1
 793 150 655 235 533 347 c 1
 405 229 245 143 63 90 c 1
 55 105 l 1
 228 176 375 268 491 387 c 1
 439 439 391 496 351 556 c 1
 288 463 207 381 98 310 c 1
 90 325 l 1
 250 470 330 600 375 758 c 1
 444 735 467 724 467 713 c 0
 467 707 456 702 432 700 c 1
 423 680 413 660 402 640 c 1
 660 640 l 1
EndSplineSet
Fore
SplineSet
150 500 m 0
 150 583 217 650 300 650 c 0
 383 650 450 583 450 500 c 0
 450 417 383 350 300 350 c 0
 217 350 150 417 150 500 c 0
EndSplineSet
EndChar

StartChar: uni9769
Encoding: 38761 38761 99
Width: 1000
Flags: HM
LayerCount: 2
Back
SplineSet
469 -174 m 1
 469 14 l 1
 49 14 l 1
 49 36 l 1
 469 36 l 1
 469 167 l 1
 243 167 l 1
 243 130 l 1
 180 98 l 1
 180 403 l 1
 243 372 l 1
 469 372 l 1
 469 482 l 1
 363 482 l 1
 363 445 l 1
 301 414 l 1
 301 602 l 1
 80 602 l 1
 80 624 l 1
 301 624 l 1
 301 755 l 1
 363 744 l 1
 379 734 l 1
 363 724 l 1
 363 624 l 1
 637 624 l 1
 637 755 l 1
 699 744 l 1
 715 734 l 1
 699 724 l 1
 699 624 l 1
 810 624 l 1
 862 675 l 1
 925 624 l 1
 925 602 l 1
 699 602 l 1
 699 461 l 1
 637 429 l 1
 637 482 l 1
 531 482 l 1
 531 372 l 1
 763 372 l 1
 794 398 l 1
 852 350 l 1
 825 330 l 1
 825 146 l 1
 763 114 l 1
 763 167 l 1
 531 167 l 1
 531 36 l 1
 836 36 l 1
 889 88 l 1
 951 36 l 1
 951 14 l 1
 531 14 l 1
 531 -143 l 1
 469 -174 l 1
243 188 m 1
 469 188 l 1
 469 350 l 1
 243 350 l 1
 243 188 l 1
531 188 m 1
 763 188 l 1
 763 350 l 1
 531 350 l 1
 531 188 l 1
363 503 m 1
 637 503 l 1
 637 602 l 1
 363 602 l 1
 363 503 l 1
EndSplineSet
EndChar

StartChar: uni8FBC
Encoding: 36796 36796 100
Width: 1000
Flags: HM
LayerCount: 2
Back
SplineSet
1657 410 m 17
 1600 265 1495 125 1330 30 c 1
 1322 42 l 1
 1470 160 1590 350 1635 550 c 9
 1657 410 l 17
1647 660 m 1
 1665 350 1795 150 1950 85 c 1
 1950 70 l 1
 1930 70 1903 50 1895 20 c 1
 1720 140 1630 335 1625 665 c 1
 1480 665 l 1
 1410 660 l 1
 1410 700 l 1
 1480 695 l 1
 1603 695 l 1
 1623 730 l 1
 1625 730 l 1
 1662 702 1680 685 1680 678 c 0
 1680 673 1667 667 1647 660 c 1
1095 705 m 1
 1105 725 l 1
 1220 685 1291 620 1291 573 c 0
 1291 553 1275 535 1255 535 c 0
 1210 535 1225 627 1095 705 c 1
1205 365 m 1
 1228 400 l 1
 1230 400 l 1
 1275 370 1300 350 1300 343 c 0
 1300 338 1290 331 1270 320 c 1
 1270 70 l 1
 1325 -45 1480 -63 1640 -63 c 0
 1745 -63 1870 -53 1955 -43 c 1
 1955 -58 l 1
 1925 -63 1910 -86 1905 -111 c 1
 1860 -115 1755 -120 1700 -120 c 0
 1457 -120 1312 -100 1256 52 c 1
 1206 -13 1156 -66 1107 -105 c 1
 1108 -114 1109 -125 1109 -130 c 0
 1109 -135 1107 -140 1103 -140 c 0
 1095 -140 1080 -132 1035 -70 c 1
 1085 -45 1160 0 1210 35 c 1
 1210 335 l 1
 1120 335 l 1
 1050 330 l 1
 1050 370 l 1
 1120 365 l 1
 1205 365 l 1
-105 -160 m 9
 -90 -145 l 17
 -35 -260 120 -280 280 -280 c 3
 385 -280 510 -270 595 -260 c 1
 595 -275 l 1
 565 -280 550 -300 545 -325 c 1
 495 -330 395 -335 340 -335 c 3
 95 -335 -50 -315 -105 -160 c 9
-325 -285 m 1
 -275 -260 -200 -215 -150 -180 c 1
 -90 -145 l 1
 -145 -218 -200 -277 -253 -320 c 1
 -252 -329 -251 -340 -251 -345 c 3
 -251 -350 -253 -355 -257 -355 c 3
 -265 -355 -280 -347 -325 -285 c 1
-155 150 m 1
 -132 185 l 1
 -130 185 l 1
 -85 155 -60 135 -60 128 c 0
 -60 123 -70 116 -90 105 c 1
 -90 -145 l 1
 -150 -200 l 1
 -150 120 l 1
 -240 120 l 1
 -310 115 l 1
 -310 155 l 1
 -240 150 l 1
 -155 150 l 1
-265 490 m 1
 -255 510 l 1
 -140 470 -69 405 -69 358 c 3
 -69 338 -85 320 -105 320 c 3
 -150 320 -135 412 -265 490 c 1
35 -70 m 1
 137.272 -24.8291 248.281 48.1572 325.262 112.957 c 1
 334.332 96.626 l 1
 269.882 22.4971 189.406 -53.4297 106.002 -104.348 c 1
 111.344 -130.832 110.298 -139.312 104.465 -140.716 c 0
 95.7139 -142.82 80.5391 -131.043 35 -70 c 1
99 -127 m 1
 81 -120 l 1
 36 -74 l 1
 45 -68 l 1
 191 18 l 1
 206 26 l 1
 206 344 l 1
 49 344 l 1
 49 364 l 1
 206 364 l 1
 237 391 l 1
 295 344 l 1
 269 322 l 1
 269 50 l 1
 288 30 l 1
 316 6 l 1
 348 -13 l 1
 385 -30 l 1
 433 -43 l 1
 491 -52 l 1
 566 -57 l 1
 659 -59 l 1
 772 -57 l 1
 967 -50 l 1
 910 -121 l 1
 773 -124 l 1
 658 -122 l 1
 563 -115 l 1
 484 -105 l 1
 420 -91 l 1
 368 -70 l 1
 327 -46 l 1
 295 -16 l 1
 271 17 l 1
 260 39 l 1
 230 8 l 1
 155 -59 l 1
 98 -106 l 1
 99 -127 l 1
605 454 m 1
 610 468 l 1
 612 467 l 1
 618 481 l 1
 622 489 l 1
 637 532 l 1
 634 574 l 1
 636 648 l 1
 480 648 l 1
 480 668 l 1
 598 668 l 1
 641 716 l 1
 693 668 l 1
 693 648 l 1
 646 648 l 1
 655 577 l 1
 670 504 l 1
 688 435 l 1
 711 369 l 1
 738 309 l 1
 770 253 l 1
 805 202 l 1
 844 158 l 1
 885 119 l 1
 948 75 l 1
 891 31 l 1
 841 71 l 1
 797 116 l 1
 758 168 l 1
 723 227 l 1
 693 288 l 1
 670 355 l 1
 656 409 l 1
 626 339 l 1
 600 288 l 1
 570 240 l 1
 537 197 l 1
 502 155 l 1
 464 117 l 1
 423 83 l 1
 379 53 l 1
 333 28 l 1
 327 35 l 1
 367 70 l 1
 404 105 l 1
 439 142 l 1
 472 181 l 1
 501 223 l 1
 528 266 l 1
 553 313 l 1
 574 362 l 1
 594 413 l 1
 605 452 l 1
 605 454 l 1
253 532 m 1
 233 546 l 1
 217 579 l 1
 194 611 l 1
 167 642 l 1
 135 674 l 1
 98 705 l 1
 103 713 l 1
 148 695 l 1
 170 684 l 1
 210 657 l 1
 245 629 l 1
 261 613 l 1
 274 596 l 1
 288 578 l 1
 291 555 l 1
 277 535 l 1
 253 532 l 1
EndSplineSet
EndChar

StartChar: uni898B
Encoding: 35211 35211 101
Width: 1000
Flags: HM
LayerCount: 2
Back
SplineSet
460 310 m 1
 450 20 290 -100 70 -155 c 1
 64 -138 l 1
 255 -60 390 35 400 310 c 1
637 -128 m 1
 623 -127 l 1
 609 -125 l 1
 597 -121 l 1
 585 -114 l 1
 574 -105 l 1
 566 -95 l 1
 560 -83 l 1
 555 -70 l 1
 553 -58 l 1
 553 -44 l 1
 553 182 l 1
 417 182 l 1
 446 171 l 1
 460 158 l 1
 440 150 l 1
 432 119 l 1
 410 71 l 1
 384 26 l 1
 351 -13 l 1
 312 -49 l 1
 268 -80 l 1
 219 -106 l 1
 164 -129 l 1
 104 -146 l 1
 39 -158 l 1
 36 -149 l 1
 98 -127 l 1
 153 -103 l 1
 202 -76 l 1
 245 -47 l 1
 282 -16 l 1
 313 19 l 1
 339 56 l 1
 359 95 l 1
 374 137 l 1
 384 180 l 1
 384 182 l 1
 279 182 l 1
 279 119 l 1
 217 87 l 1
 217 743 l 1
 279 712 l 1
 721 712 l 1
 752 738 l 1
 810 690 l 1
 783 670 l 1
 783 150 l 1
 721 119 l 1
 721 182 l 1
 615 182 l 1
 615 -51 l 1
 616 -55 l 1
 618 -60 l 1
 620 -62 l 1
 625 -63 l 1
 630 -64 l 1
 637 -65 l 1
 900 -65 l 1
 931 66 l 1
 941 66 l 1
 931 -65 l 1
 949 -78 l 1
 962 -97 l 1
 949 -115 l 1
 931 -128 l 1
 637 -128 l 1
279 203 m 1
 721 203 l 1
 721 354 l 1
 279 354 l 1
 279 203 l 1
279 376 m 1
 721 376 l 1
 721 522 l 1
 279 522 l 1
 279 376 l 1
279 544 m 1
 721 544 l 1
 721 690 l 1
 279 690 l 1
 279 544 l 1
EndSplineSet
EndChar

StartChar: uni77E5
Encoding: 30693 30693 102
Width: 1000
Flags: HM
LayerCount: 2
Back
SplineSet
1065 360 m 1
 1145 495 1185 645 1200 745 c 1
 1270 727 1294 717 1294 707 c 3
 1294 701 1280 695 1257 692 c 1
 1229 594 1184 465 1078 350 c 1
 1065 360 l 1
200 745 m 1
 264.579 728.28 294.303 717.487 294.038 707.491 c 0
 293.852 700.493 280.724 695.84 256.6 691.479 c 1
1315 195 m 17
 1430 130 1520 40 1520 -20 c 0
 1520 -40 1505 -60 1485 -60 c 0
 1430 -60 1460 40 1310 175 c 9
 1315 195 l 17
1535 280 m 1
 1130 280 l 1
 1060 275 l 1
 1060 315 l 1
 1130 310 l 1
 1425 310 l 1
 1463 370 l 1
 1465 370 l 1
 1535 300 l 1
 1535 280 l 1
1330 560 m 17
 1330 345 l 2
 1330 105 1260 -65 1065 -155 c 1
 1058 -140 l 1
 1225 -30 1270 120 1270 355 c 2
 1270 560 l 9
 1330 560 l 17
1515 550 m 1
 1190 550 l 1
 1180 545 l 1
 1180 585 l 1
 1190 580 l 1
 1410 580 l 1
 1445 637 l 1
 1447 637 l 1
 1515 570 l 1
 1515 550 l 1
1835 25 m 1
 1835 590 l 1
 1630 590 l 1
 1630 25 l 1
 1835 25 l 1
1835 -5 m 1
 1630 -5 l 1
 1630 -75 l 1
 1575 -85 l 1
 1570 -85 l 1
 1570 653 l 1
 1572 653 l 1
 1640 620 l 1
 1830 620 l 1
 1853 655 l 1
 1855 655 l 1
 1900 625 1925 605 1925 598 c 0
 1925 593 1915 586 1895 575 c 1
 1895 -60 l 1
 1840 -70 l 1
 1835 -70 l 1
 1835 -5 l 1
345 135 m 1
 440 105 515 40 515 -20 c 0
 515 -40 497 -60 477 -60 c 0
 425 -60 455 40 345 110 c 1
69 -153 m 1
 64 -145 l 1
 105 -113 l 1
 143 -79 l 1
 174 -42 l 1
 201 0 l 1
 225 44 l 1
 243 94 l 1
 257 147 l 1
 266 204 l 1
 271 267 l 1
 271 286 l 1
 56 286 l 1
 56 308 l 1
 271 308 l 1
 272 334 l 1
 272 560 l 1
 186 560 l 1
 171 518 l 1
 156 482 l 1
 141 447 l 1
 123 416 l 1
 104 388 l 1
 82 363 l 1
 74 367 l 1
 98 429 l 1
 108 461 l 1
 119 495 l 1
 138 568 l 1
 146 609 l 1
 152 651 l 1
 157 695 l 1
 163 753 l 1
 225 734 l 1
 238 722 l 1
 222 714 l 1
 217 687 l 1
 207 641 l 1
 196 598 l 1
 191 580 l 1
 401 580 l 1
 454 633 l 1
 518 580 l 1
 518 560 l 1
 335 560 l 1
 335 334 l 1
 334 308 l 1
 419 308 l 1
 472 359 l 1
 534 308 l 1
 534 286 l 1
 333 286 l 1
 331 263 l 1
 322 196 l 1
 354 171 l 1
 397 130 l 1
 436 86 l 1
 453 65 l 1
 484 18 l 1
 498 -6 l 1
 499 -29 l 1
 483 -48 l 1
 460 -49 l 1
 441 -33 l 1
 432 -11 l 1
 421 13 l 1
 396 59 l 1
 366 105 l 1
 317 175 l 1
 308 134 l 1
 288 77 l 1
 265 25 l 1
 235 -22 l 1
 201 -63 l 1
 161 -100 l 1
 117 -130 l 1
 69 -153 l 1
583 -125 m 1
 583 646 l 1
 646 614 l 1
 842 614 l 1
 873 641 l 1
 931 593 l 1
 904 572 l 1
 904 -62 l 1
 842 -94 l 1
 842 -31 l 1
 646 -31 l 1
 646 -94 l 1
 583 -125 l 1
646 -10 m 1
 842 -10 l 1
 842 593 l 1
 646 593 l 1
 646 -10 l 1
EndSplineSet
EndChar

StartChar: uni6CB3
Encoding: 27827 27827 103
Width: 1000
Flags: HM
LayerCount: 2
Back
SplineSet
779 -154 m 1
 779 -123 l 1
 674 -107 l 1
 674 -92 l 1
 779 -92 l 1
 786 -91 l 1
 791 -90 l 1
 796 -89 l 1
 797 -88 l 1
 797 -87 l 1
 798 -85 l 1
 799 -82 l 1
 801 -77 l 1
 801 644 l 1
 343 644 l 1
 343 664 l 1
 844 664 l 1
 896 717 l 1
 959 664 l 1
 959 644 l 1
 863 644 l 1
 863 -70 l 1
 862 -84 l 1
 860 -97 l 1
 855 -109 l 1
 850 -122 l 1
 841 -132 l 1
 831 -141 l 1
 818 -147 l 1
 806 -151 l 1
 793 -153 l 1
 779 -154 l 1
184 -130 m 1
 163 -118 l 1
 155 -96 l 1
 157 -59 l 1
 158 -26 l 1
 156 4 l 1
 151 30 l 1
 145 55 l 1
 139 69 l 1
 135 69 l 1
 137 73 l 1
 123 96 l 1
 108 113 l 1
 91 129 l 1
 69 144 l 1
 72 153 l 1
 100 147 l 1
 125 136 l 1
 148 119 l 1
 153 113 l 1
 243 306 l 1
 339 493 l 1
 348 489 l 1
 225 151 l 1
 213 117 l 1
 204 90 l 1
 198 68 l 1
 196 55 l 1
 193 56 l 1
 198 45 l 1
 208 14 l 1
 215 -21 l 1
 218 -59 l 1
 218 -100 l 1
 206 -122 l 1
 184 -130 l 1
406 92 m 1
 406 512 l 1
 470 481 l 1
 616 481 l 1
 647 507 l 1
 705 460 l 1
 679 439 l 1
 679 155 l 1
 616 124 l 1
 616 187 l 1
 470 187 l 1
 470 124 l 1
 406 92 l 1
470 208 m 1
 616 208 l 1
 616 460 l 1
 470 460 l 1
 470 208 l 1
184 372 m 1
 166 387 l 1
 162 397 l 1
 157 407 l 1
 150 417 l 1
 143 428 l 1
 134 439 l 1
 109 460 l 1
 79 482 l 1
 62 490 l 1
 64 499 l 1
 85 494 l 1
 104 490 l 1
 123 484 l 1
 141 478 l 1
 156 471 l 1
 172 462 l 1
 187 452 l 1
 198 442 l 1
 211 430 l 1
 221 416 l 1
 223 393 l 1
 208 374 l 1
 184 372 l 1
254 609 m 1
 235 623 l 1
 230 634 l 1
 226 645 l 1
 219 655 l 1
 211 665 l 1
 190 687 l 1
 166 708 l 1
 150 719 l 1
 135 729 l 1
 138 736 l 1
 156 732 l 1
 175 728 l 1
 193 722 l 1
 210 716 l 1
 240 699 l 1
 254 691 l 1
 267 680 l 1
 278 668 l 1
 289 655 l 1
 292 632 l 1
 278 612 l 1
 254 609 l 1
EndSplineSet
EndChar

StartChar: uni66F8
Encoding: 26360 26360 104
Width: 1000
Flags: HMW
LayerCount: 2
Back
SplineSet
525 650 m 1
 525 570 l 1
 750 570 l 1
 750 650 l 1
 525 650 l 1
525 460 m 1
 750 460 l 1
 750 540 l 1
 525 540 l 1
 525 460 l 1
725 140 m 1
 748 175 l 1
 750 175 l 1
 795 145 820 125 820 118 c 0
 820 113 810 106 790 95 c 1
 790 -135 l 1
 735 -145 l 1
 730 -145 l 1
 730 -100 l 1
 270 -100 l 1
 270 -145 l 1
 215 -155 l 1
 210 -155 l 1
 210 173 l 1
 212 173 l 1
 280 140 l 1
 725 140 l 1
730 40 m 1
 730 110 l 1
 270 110 l 1
 270 40 l 1
 730 40 l 1
730 10 m 1
 270 10 l 1
 270 -70 l 1
 730 -70 l 1
 730 10 l 1
935 210 m 1
 135 210 l 1
 65 205 l 1
 65 245 l 1
 135 240 l 1
 465 240 l 1
 465 315 l 1
 210 315 l 1
 140 310 l 1
 140 350 l 1
 210 345 l 1
 465 345 l 1
 465 430 l 1
 230 430 l 1
 160 425 l 1
 160 465 l 1
 230 460 l 1
 465 460 l 1
 465 540 l 1
 120 540 l 1
 50 535 l 1
 50 575 l 1
 120 570 l 1
 465 570 l 1
 465 650 l 1
 230 650 l 1
 160 645 l 1
 160 685 l 1
 230 680 l 1
 465 680 l 1
 465 710 l 1
 460 759 l 1
 462 760 l 1
 553 747 565 740 565 733 c 0
 565 728 560 722 525 712 c 1
 525 680 l 1
 745 680 l 1
 768 715 l 1
 770 715 l 1
 815 685 840 665 840 658 c 0
 840 653 830 646 810 635 c 1
 810 570 l 1
 845 570 l 1
 880 625 l 1
 882 625 l 1
 950 560 l 1
 950 540 l 1
 810 540 l 1
 810 420 l 1
 755 410 l 1
 750 410 l 1
 750 430 l 1
 525 430 l 1
 525 345 l 1
 750 345 l 1
 788 397 l 1
 790 397 l 1
 860 335 l 1
 860 315 l 1
 525 315 l 1
 525 240 l 1
 830 240 l 1
 865 292 l 1
 867 292 l 1
 935 230 l 1
 935 210 l 1
EndSplineSet
Fore
SplineSet
730 535 m 1
 540 535 l 1
 540 455 l 1
 730 455 l 1
 730 535 l 1
540 645 m 1
 540 565 l 1
 730 565 l 1
 730 645 l 1
 540 645 l 1
933 200 m 1
 855 205 l 1
 140 205 l 1
 70 200 l 1
 65 240 l 1
 140 235 l 1
 450 235 l 1
 450 310 l 1
 210 310 l 1
 140 305 l 1
 135 345 l 1
 210 340 l 1
 450 340 l 1
 450 425 l 1
 230 425 l 1
 160 420 l 1
 155 460 l 1
 230 455 l 1
 450 455 l 1
 450 535 l 1
 120 535 l 1
 50 530 l 1
 45 570 l 1
 120 565 l 1
 450 565 l 1
 450 645 l 1
 226 645 l 1
 161 640 l 1
 156 680 l 1
 226 675 l 1
 450 675 l 1
 450 695 l 1
 445 759 l 1
 447 760 l 1
 570 740 580 731 580 723 c 0
 580 718 575 710 540 700 c 1
 540 675 l 1
 723 675 l 1
 758 718 l 1
 761 718 l 1
 820 680 852 655 852 645 c 0
 852 640 840 630 820 620 c 1
 820 565 l 1
 845 565 l 1
 883 625 l 1
 885 625 l 1
 955 550 l 1
 953 530 l 1
 875 535 l 1
 820 535 l 1
 820 465 l 1
 823 415 l 1
 745 400 l 1
 730 400 l 1
 730 425 l 1
 540 425 l 1
 540 340 l 1
 740 340 l 1
 785 390 l 1
 787 390 l 1
 865 325 l 1
 863 305 l 1
 785 310 l 1
 540 310 l 1
 540 235 l 1
 810 235 l 1
 855 285 l 1
 857 285 l 1
 935 220 l 1
 933 200 l 1
708 130 m 1
 743 173 l 1
 746 173 l 1
 805 135 837 110 837 100 c 0
 837 95 825 85 805 75 c 1
 805 -30 l 1
 808 -140 l 1
 730 -155 l 1
 714 -155 l 1
 715 -110 l 1
 290 -110 l 1
 290 -140 l 1
 215 -155 l 1
 197 -155 l 1
 200 -30 l 1
 200 95 l 1
 195 170 l 1
 197 170 l 1
 300 130 l 1
 708 130 l 1
290 30 m 1
 715 30 l 1
 715 100 l 1
 290 100 l 1
 290 30 l 1
290 0 m 1
 290 -80 l 1
 715 -80 l 1
 715 0 l 1
 290 0 l 1
EndSplineSet
EndChar

StartChar: uni5F7C
Encoding: 24444 24444 105
Width: 1000
Flags: HM
LayerCount: 2
Back
SplineSet
1055 488 m 1
 1150 565 1245 670 1285 755 c 1
 1345 716 1362 701 1362 691 c 3
 1362 686 1355 684 1345 684 c 3
 1340 684 1330 685 1322 686 c 1
 1260 605 1185 535 1065 475 c 1
 1055 488 l 1
1038 195 m 1
 1155 305 1250 470 1290 580 c 1
 1353 550 1375 536 1375 526 c 0
 1375 519 1360 517 1335 517 c 1
 1285 420 1185 270 1048 183 c 1
 1038 195 l 1
1190 -145 m 1
 1190 315 l 1
 1185 364 l 1
 1187 365 l 1
 1278 352 1290 345 1290 338 c 0
 1290 333 1285 327 1250 317 c 1
 1250 -135 l 1
 1195 -145 l 1
 1190 -145 l 1
1512 320 m 1
 1525 325 l 1
 1535 320 l 1
 1615 95 1795 -50 1955 -85 c 1
 1955 -100 l 1
 1925 -100 1900 -120 1895 -150 c 1
 1745 -80 1565 85 1512 320 c 1
1455 320 m 1
 1454 106 1428 -37 1280 -155 c 1
 1269 -140 l 1
 1370 -20 1395 105 1395 338 c 2
 1395 638 l 1
 1397 638 l 1
 1465 605 l 1
 1620 605 l 1
 1620 710 l 1
 1615 759 l 1
 1617 760 l 1
 1708 747 1720 740 1720 733 c 0
 1720 728 1715 722 1680 712 c 1
 1680 605 l 1
 1860 605 l 1
 1883 642 l 1
 1885 642 l 1
 1935 603 1958 583 1958 575 c 0
 1958 570 1945 565 1925 560 c 1
 1902 520 1867 480 1823 445 c 1
 1810 455 l 1
 1833 495 1849 535 1860 575 c 1
 1680 575 l 1
 1680 350 l 1
 1800 350 l 1
 1823 387 l 1
 1825 387 l 1
 1875 351 1897 333 1897 325 c 0
 1897 320 1885 313 1865 305 c 1
 1790 75 1605 -100 1365 -160 c 1
 1358 -143 l 1
 1560 -60 1735 90 1803 320 c 1
 1455 320 l 1
1620 575 m 1
 1455 575 l 1
 1455 350 l 1
 1620 350 l 1
 1620 575 l 1
35.4219 476.585 m 1
 152.868 561.623 248.218 669.828 290 755 c 1
 348.415 716.833 368.342 700.014 367.003 690.104 c 0
 366.065 683.166 350.933 683.193 326.158 686.541 c 1
 264.957 607.021 174.081 524.447 45.8408 464.077 c 1
 35.4219 476.585 l 1
60 495 m 1
 164.7 575 254.567 673 293.83 754 c 1
 343.562 712 357.522 695 357.522 686 c 0
 357.522 682 354.032 680 347.053 680 c 0
 340.945 680 330.475 682 321.75 684 c 1
 265.037 610 182.15 535 68.7246 482 c 1
 60 495 l 1
42.5498 195 m 1
 160.338 315 260.675 455 304.3 580 c 1
 359.268 550 378.463 536 378.463 526 c 0
 378.463 519 365.375 517 343.562 517 c 1
 317.388 470 282.487 416 238.862 362 c 1
 280.742 354 286.85 349 286.85 343 c 0
 286.85 338 282.487 332 251.95 322 c 1
 251.95 -140 l 1
 203.963 -150 l 1
 199.6 -150 l 1
 199.6 317 l 1
 157.72 271 108.86 225 53.0195 184 c 1
 42.5498 195 l 1
875 593 m 1
 879 598 l 1
 880 598 l 1
 906 619 l 1
 964 572 l 1
 938 557 l 1
 920 549 l 1
 894 517 l 1
 853 473 l 1
 802 423 l 1
 795 429 l 1
 807 450 l 1
 847 526 l 1
 862 558 l 1
 868 572 l 1
 681 572 l 1
 681 347 l 1
 809 347 l 1
 840 373 l 1
 897 325 l 1
 871 310 l 1
 861 306 l 1
 840 252 l 1
 806 185 l 1
 768 121 l 1
 725 64 l 1
 707 46 l 1
 723 31 l 1
 769 -3 l 1
 817 -32 l 1
 871 -57 l 1
 966 -91 l 1
 905 -143 l 1
 844 -116 l 1
 787 -86 l 1
 734 -50 l 1
 688 -9 l 1
 672 8 l 1
 624 -34 l 1
 568 -73 l 1
 508 -107 l 1
 442 -136 l 1
 373 -156 l 1
 370 -147 l 1
 434 -117 l 1
 494 -83 l 1
 548 -45 l 1
 599 -3 l 1
 643 40 l 1
 608 87 l 1
 577 141 l 1
 551 199 l 1
 531 263 l 1
 519 325 l 1
 460 325 l 1
 460 278 l 1
 456 216 l 1
 449 157 l 1
 439 103 l 1
 426 52 l 1
 409 6 l 1
 388 -36 l 1
 364 -74 l 1
 337 -106 l 1
 306 -134 l 1
 271 -156 l 1
 266 -148 l 1
 292 -120 l 1
 315 -89 l 1
 335 -56 l 1
 353 -19 l 1
 367 21 l 1
 379 64 l 1
 388 112 l 1
 394 164 l 1
 396 219 l 1
 396 625 l 1
 460 593 l 1
 617 593 l 1
 617 772 l 1
 681 761 l 1
 696 751 l 1
 681 741 l 1
 681 593 l 1
 875 593 l 1
194 -152 m 1
 194 335 l 1
 158 300 l 1
 123 267 l 1
 85 234 l 1
 46 205 l 1
 40 212 l 1
 133 322 l 1
 189 397 l 1
 216 435 l 1
 265 511 l 1
 307 590 l 1
 310 595 l 1
 362 559 l 1
 371 542 l 1
 352 542 l 1
 312 480 l 1
 284 442 l 1
 229 375 l 1
 257 370 l 1
 272 359 l 1
 257 350 l 1
 257 -121 l 1
 194 -152 l 1
674 79 m 1
 687 95 l 1
 723 150 l 1
 756 210 l 1
 785 275 l 1
 803 325 l 1
 529 325 l 1
 552 270 l 1
 579 212 l 1
 610 159 l 1
 645 111 l 1
 674 79 l 1
460 347 m 1
 617 347 l 1
 617 572 l 1
 460 572 l 1
 460 347 l 1
75 507 m 1
 69 515 l 1
 215 667 l 1
 255 715 l 1
 290 762 l 1
 293 765 l 1
 340 723 l 1
 346 704 l 1
 326 706 l 1
 273 654 l 1
 224 610 l 1
 168 566 l 1
 107 526 l 1
 75 507 l 1
EndSplineSet
EndChar

StartChar: uni5E8A
Encoding: 24202 24202 106
Width: 1000
Flags: HM
LayerCount: 2
Back
SplineSet
30 -163 m 1
 23 -156 l 1
 45 -122 l 1
 64 -87 l 1
 82 -50 l 1
 97 -10 l 1
 108 32 l 1
 118 77 l 1
 126 126 l 1
 131 177 l 1
 133 229 l 1
 133 648 l 1
 195 617 l 1
 495 617 l 1
 495 770 l 1
 558 759 l 1
 573 749 l 1
 558 739 l 1
 558 617 l 1
 836 617 l 1
 889 670 l 1
 951 617 l 1
 951 597 l 1
 195 597 l 1
 195 287 l 1
 192 228 l 1
 187 171 l 1
 178 117 l 1
 166 66 l 1
 150 20 l 1
 133 -24 l 1
 112 -65 l 1
 89 -102 l 1
 62 -135 l 1
 30 -163 l 1
539 -159 m 1
 539 266 l 1
 529 245 l 1
 497 194 l 1
 464 147 l 1
 427 104 l 1
 388 63 l 1
 346 27 l 1
 302 -5 l 1
 255 -33 l 1
 205 -58 l 1
 200 -49 l 1
 244 -17 l 1
 285 18 l 1
 323 53 l 1
 359 92 l 1
 393 132 l 1
 425 176 l 1
 453 222 l 1
 479 271 l 1
 503 323 l 1
 516 357 l 1
 220 357 l 1
 220 378 l 1
 539 378 l 1
 539 566 l 1
 603 556 l 1
 618 546 l 1
 603 536 l 1
 603 378 l 1
 806 378 l 1
 858 431 l 1
 922 378 l 1
 922 357 l 1
 603 357 l 1
 656 270 l 1
 686 227 l 1
 717 187 l 1
 748 150 l 1
 781 116 l 1
 815 87 l 1
 851 60 l 1
 888 35 l 1
 951 1 l 1
 892 -46 l 1
 852 -20 l 1
 812 11 l 1
 776 44 l 1
 742 79 l 1
 711 119 l 1
 681 161 l 1
 654 206 l 1
 629 255 l 1
 607 306 l 1
 603 322 l 1
 603 -128 l 1
 539 -159 l 1
EndSplineSet
EndChar

StartChar: uni5982
Encoding: 22914 22914 107
Width: 1000
Flags: HM
LayerCount: 2
Back
SplineSet
1835 -5 m 1
 1615 -5 l 1
 1615 -75 l 1
 1560 -85 l 1
 1555 -85 l 1
 1555 653 l 1
 1557 653 l 1
 1625 620 l 1
 1830 620 l 1
 1853 655 l 1
 1855 655 l 1
 1900 625 1925 605 1925 598 c 0
 1925 593 1915 586 1895 575 c 1
 1895 -60 l 1
 1840 -70 l 1
 1835 -70 l 1
 1835 -5 l 1
1835 25 m 1
 1835 590 l 1
 1615 590 l 1
 1615 25 l 1
 1835 25 l 1
1179 195 m 1
 1185 215 l 1
 1330 180 1504 90 1504 20 c 3
 1504 0 1485 -15 1468 -15 c 3
 1415 -15 1435 90 1179 195 c 1
1095 125 m 1
 1165 330 1215 520 1255 710 c 1
 1260 758 l 1
 1263 760 l 1
 1340 735 1360 728 1360 718 c 3
 1360 710 1345 708 1316 704 c 1
 1275 520 1220 315 1155 117 c 1
 1100 123 l 1
 1095 125 l 1
1130 510 m 1
 1410 510 l 1
 1433 545 l 1
 1435 545 l 1
 1480 515 1505 495 1505 488 c 0
 1505 483 1495 476 1475 465 c 1
 1435 195 1303 -28 1050 -150 c 9
 1040 -135 l 17
 1255 0 1380 230 1415 480 c 1
 1130 480 l 1
 1060 475 l 1
 1060 515 l 1
 1130 510 l 1
103.816 234.071 m 1
 110.723 248.295 l 1
 301.472 203.129 512.871 84.6592 503.777 15.252 c 0
 501.179 -4.57812 479.399 -16.8525 464.526 -14.9043 c 0
 409.992 -7.75781 400.795 114.473 103.816 234.071 c 1
103 82 m 1
 176.46 299.342 224.28 497.933 255.159 709.289 c 1
 260.36 758.492 l 1
 263.191 759.9 l 1
 337.243 735.976 358.44 728.857 359.833 718.954 c 0
 360.946 711.032 348.212 708.232 316.523 703.777 c 1
 285.088 496.383 233.708 287.193 162.802 73.2393 c 1
 108.369 79.7256 l 1
 103 82 l 1
97 125 m 1
 170.46 342.342 218.28 540.933 249.159 752.289 c 1
 254.36 801.492 l 1
 257.191 802.9 l 1
 331.243 778.976 352.44 771.857 353.833 761.954 c 0
 354.946 754.032 342.212 751.232 310.523 746.777 c 1
 279.088 539.383 227.708 330.193 156.802 116.239 c 1
 102.369 122.726 l 1
 97 125 l 1
30 -158 m 1
 26 -150 l 1
 90 -106 l 1
 146 -58 l 1
 198 -5 l 1
 245 53 l 1
 286 116 l 1
 297 137 l 1
 262 156 l 1
 188 190 l 1
 180 193 l 1
 164 132 l 1
 96 116 l 1
 190 502 l 1
 64 502 l 1
 64 522 l 1
 196 522 l 1
 255 762 l 1
 314 736 l 1
 327 723 l 1
 310 718 l 1
 261 522 l 1
 414 522 l 1
 445 549 l 1
 503 502 l 1
 477 486 l 1
 473 484 l 1
 457 413 l 1
 433 323 l 1
 402 240 l 1
 366 163 l 1
 359 151 l 1
 384 139 l 1
 415 118 l 1
 444 96 l 1
 471 72 l 1
 496 46 l 1
 503 22 l 1
 491 2 l 1
 468 -5 l 1
 447 6 l 1
 428 31 l 1
 406 54 l 1
 383 77 l 1
 356 98 l 1
 336 112 l 1
 324 93 l 1
 277 28 l 1
 224 -29 l 1
 164 -79 l 1
 101 -123 l 1
 30 -158 l 1
550 -95 m 1
 550 610 l 1
 613 579 l 1
 833 579 l 1
 864 605 l 1
 922 558 l 1
 896 537 l 1
 896 -31 l 1
 833 -63 l 1
 833 0 l 1
 613 0 l 1
 613 -63 l 1
 550 -95 l 1
613 21 m 1
 833 21 l 1
 833 558 l 1
 613 558 l 1
 613 21 l 1
315 172 m 1
 322 185 l 1
 354 260 l 1
 379 340 l 1
 399 425 l 1
 412 502 l 1
 256 502 l 1
 184 211 l 1
 235 200 l 1
 275 187 l 1
 313 173 l 1
 315 172 l 1
EndSplineSet
EndChar

StartChar: uni5176
Encoding: 20854 20854 108
Width: 1000
Flags: HM
LayerCount: 2
Back
SplineSet
470 45 m 1
 475 60 l 1
 670 40 895 -50 895 -120 c 0
 895 -140 875 -155 860 -155 c 0
 805 -155 780 -35 470 45 c 1
88.3789 -181.815 m 1
 210.952 -104.35 312.932 -2.36914 360 80 c 1
 415.894 38.2275 434.721 20.1846 432.759 10.3789 c 0
 431.387 3.51465 416.285 4.49512 391.771 9.39844 c 1
 325.68 -66.1064 229.779 -142.788 97.9893 -194.955 c 1
 88.3789 -181.815 l 1
61 -158 m 1
 57 -149 l 1
 193 -61 l 1
 254 -17 l 1
 310 29 l 1
 360 77 l 1
 401 29 l 1
 404 11 l 1
 386 16 l 1
 313 -37 l 1
 248 -76 l 1
 214 -96 l 1
 141 -130 l 1
 102 -145 l 1
 61 -158 l 1
854 -152 m 1
 833 -142 l 1
 815 -120 l 1
 773 -77 l 1
 724 -36 l 1
 667 3 l 1
 571 60 l 1
 574 68 l 1
 613 59 l 1
 649 47 l 1
 684 33 l 1
 717 18 l 1
 748 1 l 1
 777 -17 l 1
 806 -36 l 1
 832 -57 l 1
 857 -78 l 1
 881 -101 l 1
 888 -123 l 1
 878 -145 l 1
 854 -152 l 1
43 114 m 1
 43 136 l 1
 264 136 l 1
 264 576 l 1
 69 576 l 1
 69 597 l 1
 264 597 l 1
 264 760 l 1
 327 749 l 1
 343 738 l 1
 327 729 l 1
 327 597 l 1
 673 597 l 1
 673 760 l 1
 736 749 l 1
 752 738 l 1
 736 729 l 1
 736 597 l 1
 815 597 l 1
 867 649 l 1
 931 597 l 1
 931 576 l 1
 736 576 l 1
 736 136 l 1
 841 136 l 1
 894 187 l 1
 957 136 l 1
 957 114 l 1
 43 114 l 1
327 136 m 1
 673 136 l 1
 673 270 l 1
 327 270 l 1
 327 136 l 1
327 292 m 1
 673 292 l 1
 673 423 l 1
 327 423 l 1
 327 292 l 1
327 444 m 1
 673 444 l 1
 673 576 l 1
 327 576 l 1
 327 444 l 1
EndSplineSet
EndChar

